<svg width="16" height="16" viewBox="0 0 16 16" fill="none" xmlns="http://www.w3.org/2000/svg">
<g clip-path="url(#clip0_5646_8406)">
<path d="M3.55678 10.689C3.63621 10.6104 3.74544 10.5645 3.86128 10.5645H14.3666C14.5586 10.5645 14.6546 10.7939 14.5189 10.9284L12.4436 12.9839C12.3642 13.0626 12.255 13.1085 12.1391 13.1085H1.63377C1.4418 13.1085 1.34582 12.879 1.48152 12.7446L3.55678 10.689Z" fill="url(#paint0_linear_5646_8406)"/>
<path d="M3.55678 3.0152C3.63952 2.93652 3.74875 2.89062 3.86128 2.89062H14.3666C14.5586 2.89062 14.6546 3.12011 14.5189 3.25453L12.4436 5.31008C12.3642 5.38876 12.255 5.43466 12.1391 5.43466H1.63377C1.4418 5.43466 1.34582 5.20517 1.48152 5.07076L3.55678 3.0152Z" fill="url(#paint1_linear_5646_8406)"/>
<path d="M12.4436 6.8277C12.3642 6.74902 12.255 6.70312 12.1391 6.70312H1.63377C1.4418 6.70312 1.34582 6.93261 1.48152 7.06703L3.55678 9.12258C3.63621 9.20126 3.74544 9.24716 3.86128 9.24716H14.3666C14.5586 9.24716 14.6546 9.01767 14.5189 8.88326L12.4436 6.8277Z" fill="url(#paint2_linear_5646_8406)"/>
</g>
<defs>
<linearGradient id="paint0_linear_5646_8406" x1="13.3631" y1="1.6618" x2="6.20093" y2="15.5117" gradientUnits="userSpaceOnUse">
<stop stop-color="#00FFA3"/>
<stop offset="1" stop-color="#DC1FFF"/>
</linearGradient>
<linearGradient id="paint1_linear_5646_8406" x1="10.184" y1="0.0187072" x2="3.02185" y2="13.8686" gradientUnits="userSpaceOnUse">
<stop stop-color="#00FFA3"/>
<stop offset="1" stop-color="#DC1FFF"/>
</linearGradient>
<linearGradient id="paint2_linear_5646_8406" x1="11.7634" y1="0.835197" x2="4.60127" y2="14.6851" gradientUnits="userSpaceOnUse">
<stop stop-color="#00FFA3"/>
<stop offset="1" stop-color="#DC1FFF"/>
</linearGradient>
<clipPath id="clip0_5646_8406">
<rect width="13.1631" height="10.2188" fill="white" transform="translate(1.41846 2.89062)"/>
</clipPath>
</defs>
</svg>
