<svg width="16" height="15" viewBox="0 0 16 15" fill="none" xmlns="http://www.w3.org/2000/svg">
<g clip-path="url(#clip0_5625_10261)">
<path d="M8.24219 15.1074C12.3843 15.1074 15.7422 11.7496 15.7422 7.60742C15.7422 3.46529 12.3843 0.107422 8.24219 0.107422C4.10005 0.107422 0.742188 3.46529 0.742188 7.60742C0.742188 11.7496 4.10005 15.1074 8.24219 15.1074Z" fill="#0088CC"/>
<path fill-rule="evenodd" clip-rule="evenodd" d="M6.15241 5.06348H10.3578C10.5185 5.06348 10.6524 5.09026 10.8131 5.17062C11.0006 5.25098 11.1078 5.38491 11.1613 5.49205C11.1613 5.49205 11.1613 5.51883 11.1881 5.51883C11.2685 5.65276 11.322 5.81348 11.322 6.00098C11.322 6.16169 11.2953 6.3224 11.1881 6.48312L8.53633 11.0367C8.48276 11.1438 8.37562 11.1974 8.24169 11.1974C8.13455 11.1974 8.02741 11.1438 7.94705 11.0367L5.34883 6.48312C5.29526 6.37598 5.18812 6.24205 5.18812 6.02776C5.16133 5.84026 5.21491 5.67955 5.29526 5.51883C5.37562 5.35812 5.50955 5.22419 5.69705 5.17062C5.85776 5.06348 6.04526 5.06348 6.15241 5.06348ZM7.92026 5.70633H6.15241C6.04526 5.70633 5.99169 5.70633 5.96491 5.73312C5.91133 5.75991 5.88455 5.78669 5.85776 5.84026C5.83098 5.86705 5.83098 5.92062 5.83098 5.97419C5.83098 6.00098 5.85776 6.02776 5.91133 6.13491L7.92026 9.61705V5.70633ZM8.56312 5.70633V9.64383L10.5988 6.13491C10.6256 6.08133 10.6256 6.02776 10.6256 5.97419C10.6256 5.92062 10.6256 5.86705 10.5988 5.84026C10.572 5.81348 10.572 5.78669 10.5453 5.78669L10.5185 5.75991C10.4649 5.73312 10.4113 5.73312 10.331 5.73312H8.56312V5.70633Z" fill="white"/>
</g>
<defs>
<clipPath id="clip0_5625_10261">
<rect width="15" height="15" fill="white" transform="translate(0.5)"/>
</clipPath>
</defs>
</svg>
