<svg width="14" height="14" viewBox="0 0 14 14" fill="none" xmlns="http://www.w3.org/2000/svg">
<g opacity="0.4">
<mask id="path-1-outside-1_5963_59327" maskUnits="userSpaceOnUse" x="0.0351257" y="-0.264648" width="14" height="14" fill="black">
<rect fill="white" x="0.0351257" y="-0.264648" width="14" height="14"/>
<path fill-rule="evenodd" clip-rule="evenodd" d="M10.7048 2.03497C9.95588 1.34351 8.97933 0.883774 7.85088 0.76517C7.63883 0.742914 7.427 0.733293 7.21619 0.735717C4.39595 0.759556 1.75227 2.94132 1.14534 5.86438C1.09342 6.11216 1.05741 6.363 1.03753 6.61537C1.03676 6.62608 1.03877 6.6368 1.04336 6.6465C1.04523 6.65044 1.04749 6.65416 1.05012 6.65761C0.908867 8.61694 1.77487 10.3646 3.26057 11.3387C3.13478 11.2565 3.0126 11.1683 2.89455 11.0738C2.83076 11.0244 2.76795 10.9705 2.70712 10.9166C2.78313 10.9839 2.85868 11.052 2.93429 11.1201L2.93446 11.1202C3.28627 11.4371 3.63904 11.7548 4.04239 12.0043C4.20438 12.1028 4.3717 12.1918 4.54346 12.2708C4.85156 12.4147 5.17525 12.5257 5.50918 12.601C6.6501 12.863 7.85975 12.733 8.94083 12.2875C9.29427 12.141 9.6339 11.9631 9.95563 11.7561C9.95951 11.7535 9.96306 11.7506 9.96623 11.7474C10.6196 11.328 11.1963 10.7949 11.6678 10.1706C12.3268 9.30349 12.7541 8.28298 12.9096 7.20517C13.0728 6.03444 12.8779 4.8113 12.2864 3.78147C12.0951 3.44681 11.8651 3.13584 11.601 2.85498C11.3871 2.62842 11.1505 2.42259 10.9144 2.21724L10.9143 2.21718L10.9143 2.21715L10.9143 2.21713L10.9143 2.21712L10.9142 2.2171L10.9142 2.21709L10.9142 2.21707C10.8297 2.14358 10.7453 2.07016 10.662 1.99587C10.6764 2.00882 10.6906 2.02185 10.7048 2.03497ZM12.1633 7.10503C12.0473 7.62812 11.8659 8.12683 11.6301 8.5929L11.6322 8.58898C12.0385 7.80002 12.2733 6.90689 12.3037 6.01566C12.2921 6.34541 12.2519 6.68186 12.1811 7.02225C12.1754 7.04991 12.1694 7.0775 12.1633 7.10503Z"/>
</mask>
<path fill-rule="evenodd" clip-rule="evenodd" d="M10.7048 2.03497C9.95588 1.34351 8.97933 0.883774 7.85088 0.76517C7.63883 0.742914 7.427 0.733293 7.21619 0.735717C4.39595 0.759556 1.75227 2.94132 1.14534 5.86438C1.09342 6.11216 1.05741 6.363 1.03753 6.61537C1.03676 6.62608 1.03877 6.6368 1.04336 6.6465C1.04523 6.65044 1.04749 6.65416 1.05012 6.65761C0.908867 8.61694 1.77487 10.3646 3.26057 11.3387C3.13478 11.2565 3.0126 11.1683 2.89455 11.0738C2.83076 11.0244 2.76795 10.9705 2.70712 10.9166C2.78313 10.9839 2.85868 11.052 2.93429 11.1201L2.93446 11.1202C3.28627 11.4371 3.63904 11.7548 4.04239 12.0043C4.20438 12.1028 4.3717 12.1918 4.54346 12.2708C4.85156 12.4147 5.17525 12.5257 5.50918 12.601C6.6501 12.863 7.85975 12.733 8.94083 12.2875C9.29427 12.141 9.6339 11.9631 9.95563 11.7561C9.95951 11.7535 9.96306 11.7506 9.96623 11.7474C10.6196 11.328 11.1963 10.7949 11.6678 10.1706C12.3268 9.30349 12.7541 8.28298 12.9096 7.20517C13.0728 6.03444 12.8779 4.8113 12.2864 3.78147C12.0951 3.44681 11.8651 3.13584 11.601 2.85498C11.3871 2.62842 11.1505 2.42259 10.9144 2.21724L10.9143 2.21718L10.9143 2.21715L10.9143 2.21713L10.9143 2.21712L10.9142 2.2171L10.9142 2.21709L10.9142 2.21707C10.8297 2.14358 10.7453 2.07016 10.662 1.99587C10.6764 2.00882 10.6906 2.02185 10.7048 2.03497ZM12.1633 7.10503C12.0473 7.62812 11.8659 8.12683 11.6301 8.5929L11.6322 8.58898C12.0385 7.80002 12.2733 6.90689 12.3037 6.01566C12.2921 6.34541 12.2519 6.68186 12.1811 7.02225C12.1754 7.04991 12.1694 7.0775 12.1633 7.10503Z" fill="#E99855"/>
<path d="M7.85088 0.76517L7.88683 0.423104L7.88678 0.423098L7.85088 0.76517ZM10.7048 2.03497L10.4715 2.28768L10.9384 1.78245L10.7048 2.03497ZM7.21619 0.735717L7.2191 1.07966L7.22014 1.07964L7.21619 0.735717ZM1.14534 5.86438L1.48198 5.93493L1.48211 5.93431L1.14534 5.86438ZM1.03753 6.61537L0.694637 6.58837L0.694476 6.5906L1.03753 6.61537ZM1.04336 6.6465L0.732478 6.79365L0.732479 6.79366L1.04336 6.6465ZM1.05012 6.65761L1.39318 6.68234L1.40253 6.55259L1.32368 6.44913L1.05012 6.65761ZM3.26057 11.3387L3.07254 11.6267L3.44915 11.051L3.26057 11.3387ZM2.89455 11.0738L3.10944 10.8052L3.10524 10.8019L2.89455 11.0738ZM2.70712 10.9166L2.93519 10.6591L2.47904 11.1741L2.70712 10.9166ZM2.93429 11.1201L2.7041 11.3756L2.70417 11.3757L2.93429 11.1201ZM2.93446 11.1202L3.16465 10.8647L3.16458 10.8646L2.93446 11.1202ZM4.04239 12.0043L3.86149 12.2968L3.86361 12.2981L4.04239 12.0043ZM4.54346 12.2708L4.68908 11.9592L4.68717 11.9583L4.54346 12.2708ZM5.50918 12.601L5.58617 12.2658L5.58485 12.2655L5.50918 12.601ZM8.94083 12.2875L9.07186 12.6055L9.07256 12.6053L8.94083 12.2875ZM9.95563 11.7561L10.1418 12.0453L10.1425 12.0448L9.95563 11.7561ZM9.96623 11.7474L9.78043 11.4579L9.74732 11.4792L9.71987 11.5074L9.96623 11.7474ZM11.6678 10.1706L11.3939 9.96242L11.3933 9.9633L11.6678 10.1706ZM12.9096 7.20517L13.25 7.25426L13.2502 7.25265L12.9096 7.20517ZM12.2864 3.78147L11.9878 3.95217L11.9882 3.95278L12.2864 3.78147ZM11.601 2.85498L11.8516 2.61937L11.8511 2.61885L11.601 2.85498ZM10.9144 2.21724L10.6871 2.4754L10.6887 2.47675L10.9144 2.21724ZM10.9143 2.21718L11.1416 1.95902L11.1393 1.95699L10.9143 2.21718ZM10.9143 2.21715L10.6818 2.4708L10.6893 2.47734L10.9143 2.21715ZM10.9142 2.21707L11.1467 1.96344L11.1399 1.95756L10.9142 2.21707ZM10.662 1.99587L10.891 1.73921L10.4316 2.25125L10.662 1.99587ZM11.6301 8.5929L11.3232 8.43762L11.9358 8.75066L11.6301 8.5929ZM12.1633 7.10503L11.8275 7.03047L11.8275 7.03054L12.1633 7.10503ZM11.6322 8.58898L11.9378 8.74674L11.9379 8.74645L11.6322 8.58898ZM12.3037 6.01566L12.6475 6.02737L11.96 6.00355L12.3037 6.01566ZM12.1811 7.02225L11.8444 6.95225L11.8444 6.95226L12.1811 7.02225ZM7.81493 1.10724C8.87016 1.21815 9.77737 1.64682 10.4715 2.28768L10.9381 1.78225C10.1344 1.04021 9.08849 0.549402 7.88683 0.423104L7.81493 1.10724ZM7.22014 1.07964C7.41784 1.07737 7.61635 1.08639 7.81498 1.10724L7.88678 0.423098C7.6613 0.399432 7.43617 0.389214 7.21223 0.391789L7.22014 1.07964ZM1.48211 5.93431C2.05741 3.16354 4.56705 1.10207 7.2191 1.07966L7.21328 0.391778C4.22484 0.417039 1.44712 2.71909 0.808576 5.79446L1.48211 5.93431ZM1.38042 6.64237C1.39914 6.40463 1.43307 6.16834 1.48198 5.93493L0.808707 5.79383C0.753768 6.05597 0.71567 6.32136 0.694644 6.58837L1.38042 6.64237ZM1.35424 6.49935C1.37501 6.54322 1.38409 6.59171 1.38059 6.64014L0.694476 6.5906C0.689434 6.66044 0.702528 6.73038 0.732478 6.79365L1.35424 6.49935ZM1.32368 6.44913C1.33555 6.46469 1.3458 6.48151 1.35424 6.49934L0.732479 6.79366C0.744652 6.81937 0.759444 6.84364 0.776554 6.86609L1.32368 6.44913ZM3.44915 11.051C2.07347 10.1491 1.2604 8.52417 1.39318 6.68234L0.707058 6.63287C0.557335 8.70971 1.47626 10.5802 3.07199 11.6263L3.44915 11.051ZM2.67969 11.3424C2.80648 11.4438 2.93762 11.5386 3.07254 11.6267L3.4486 11.0507C3.33194 10.9745 3.21873 10.8927 3.10942 10.8052L2.67969 11.3424ZM2.47904 11.1741C2.54214 11.23 2.61139 11.2895 2.68386 11.3457L3.10524 10.8019C3.05012 10.7592 2.99375 10.711 2.9352 10.6591L2.47904 11.1741ZM3.16448 10.8645C3.08905 10.7966 3.01244 10.7276 2.93519 10.6591L2.47905 11.1741C2.55382 11.2403 2.62832 11.3074 2.7041 11.3756L3.16448 10.8645ZM3.16458 10.8646L3.16441 10.8644L2.70417 11.3757L2.70433 11.3759L3.16458 10.8646ZM4.22329 11.7117C3.85064 11.4813 3.52038 11.1851 3.16465 10.8647L2.70427 11.3758C3.05216 11.6891 3.42744 12.0284 3.86149 12.2968L4.22329 11.7117ZM4.68717 11.9583C4.52743 11.8848 4.37182 11.8021 4.22117 11.7104L3.86361 12.2981C4.03694 12.4036 4.21597 12.4987 4.39975 12.5833L4.68717 11.9583ZM5.58485 12.2655C5.2751 12.1956 4.97486 12.0927 4.68907 11.9592L4.39785 12.5824C4.72827 12.7368 5.0754 12.8557 5.43352 12.9365L5.58485 12.2655ZM8.80979 11.9695C7.78883 12.3902 6.65179 12.5105 5.58617 12.2658L5.43219 12.9362C6.6484 13.2155 7.93067 13.0758 9.07186 12.6055L8.80979 11.9695ZM9.76949 11.4668C9.46501 11.6628 9.14359 11.8311 8.80909 11.9698L9.07256 12.6053C9.44496 12.4509 9.80279 12.2635 10.1418 12.0453L9.76949 11.4668ZM9.71987 11.5074C9.73451 11.4923 9.75088 11.4789 9.76873 11.4673L10.1425 12.0448C10.1681 12.0282 10.1916 12.0089 10.2126 11.9874L9.71987 11.5074ZM11.3933 9.9633C10.9464 10.5551 10.3997 11.0604 9.78043 11.4579L10.152 12.0368C10.8394 11.5956 11.4463 11.0347 11.9423 10.3778L11.3933 9.9633ZM12.5691 7.15607C12.422 8.17608 12.0176 9.14186 11.3939 9.96242L11.9416 10.3787C12.636 9.46513 13.0862 8.38989 13.25 7.25426L12.5691 7.15607ZM11.9882 3.95278C12.5376 4.90936 12.7227 6.05411 12.5689 7.15768L13.2502 7.25265C13.4228 6.01476 13.2182 4.71324 12.5847 3.61017L11.9882 3.95278ZM11.3504 3.09058C11.596 3.35177 11.8099 3.64095 11.9878 3.95217L12.585 3.61078C12.3803 3.25267 12.1342 2.91991 11.8516 2.61937L11.3504 3.09058ZM10.6887 2.47675C10.9269 2.68401 11.1506 2.87891 11.3509 3.0911L11.8511 2.61885C11.6236 2.37794 11.374 2.16116 11.1401 1.95772L10.6887 2.47675ZM10.687 2.47533L10.6871 2.47539L11.1417 1.95909L11.1416 1.95903L10.687 2.47533ZM10.6893 2.47734L10.6894 2.47737L11.1393 1.95699L11.1392 1.95696L10.6893 2.47734ZM10.6819 2.47068L10.6819 2.4707L11.1467 1.96361L11.1467 1.96359L10.6819 2.47068ZM10.6818 2.47066L10.6819 2.47068L11.1467 1.96359L11.1467 1.96357L10.6818 2.47066ZM10.6818 2.47065L10.6818 2.47066L11.1467 1.96357L11.1466 1.96356L10.6818 2.47065ZM10.6818 2.47063L10.6818 2.47065L11.1466 1.96356L11.1466 1.96354L10.6818 2.47063ZM10.6818 2.47062L10.6818 2.47063L11.1466 1.96354L11.1466 1.96353L10.6818 2.47062ZM10.4331 2.25253C10.5182 2.3285 10.6043 2.40334 10.6885 2.47659L11.1399 1.95756C11.0552 1.88383 10.9724 1.81182 10.891 1.73921L10.4331 2.25253ZM10.9384 1.78245C10.9231 1.76837 10.9078 1.75439 10.8924 1.74049L10.4316 2.25125C10.4449 2.26325 10.4582 2.27533 10.4713 2.28748L10.9384 1.78245ZM11.937 8.74818C12.1854 8.25729 12.3767 7.7315 12.4991 7.17951L11.8275 7.03054C11.7179 7.52474 11.5465 7.99637 11.3232 8.43762L11.937 8.74818ZM11.3265 8.43122L11.3245 8.43514L11.9358 8.75066L11.9378 8.74674L11.3265 8.43122ZM11.9599 6.00394C11.9313 6.84393 11.7096 7.68733 11.3264 8.43151L11.9379 8.74645C12.3673 7.9127 12.6153 6.96984 12.6475 6.02737L11.9599 6.00394ZM12.5179 7.09224C12.5925 6.73305 12.6351 6.37724 12.6474 6.02776L11.96 6.00355C11.949 6.31358 11.9112 6.63066 11.8444 6.95225L12.5179 7.09224ZM12.4991 7.17958C12.5055 7.15054 12.5118 7.12143 12.5179 7.09223L11.8444 6.95226C11.8389 6.97838 11.8333 7.00446 11.8275 7.03047L12.4991 7.17958Z" fill="#4C6042" mask="url(#path-1-outside-1_5963_59327)"/>
<path d="M12.9096 7.20537C13.0728 6.03464 12.8779 4.8115 12.2864 3.78168C12.0951 3.44701 11.8651 3.13604 11.601 2.85518C11.3018 2.53827 10.9581 2.2619 10.6337 1.9707C11.5328 2.76866 12.0975 3.88945 12.2578 5.076C12.418 6.26255 12.1821 7.52129 11.6322 8.58918C11.0872 9.65412 10.2677 10.5543 9.25835 11.1966C8.25442 11.8309 7.08236 12.182 5.88951 12.1488C4.80646 12.1147 3.74369 11.7533 2.89455 11.074C2.83076 11.0246 2.76795 10.9707 2.70712 10.9168C3.13688 11.2975 3.5523 11.7014 4.04239 12.0045C4.49484 12.2798 4.98884 12.4801 5.50525 12.5977C6.64617 12.8622 7.8578 12.7322 8.9369 12.2868C10.019 11.8364 10.9616 11.106 11.6678 10.1708C12.3268 9.3037 12.7541 8.28318 12.9096 7.20537Z" fill="url(#paint0_linear_5963_59327)"/>
<path opacity="0.5" d="M8.94084 12.2875C9.29429 12.141 9.63391 11.9631 9.95564 11.756C9.96925 11.7472 9.97882 11.7334 9.98225 11.7175C9.98568 11.7017 9.98269 11.6851 9.97394 11.6715L9.96702 11.6626L9.64012 11.3155C9.63023 11.3052 9.61702 11.2988 9.60283 11.2972C9.58863 11.2957 9.57435 11.2992 9.56248 11.3071L9.45566 11.3768C8.43146 12.0235 7.23367 12.3815 6.01907 12.3478C5.15827 12.3238 4.31665 12.0881 3.5686 11.6616C4.13484 12.1194 4.79883 12.4408 5.50919 12.601C6.65011 12.863 7.85976 12.733 8.94084 12.2875Z" fill="url(#paint1_linear_5963_59327)" fill-opacity="0.5"/>
<path d="M7.85088 0.76517C10.8943 1.08504 12.8329 3.88629 12.1811 7.02225C11.5293 10.1582 8.53483 12.4413 5.49141 12.1214C2.44798 11.8016 0.509864 9.00032 1.16118 5.86437C1.81249 2.72842 4.80795 0.44579 7.85088 0.76517Z" fill="url(#paint2_linear_5963_59327)"/>
<path style="mix-blend-mode:overlay" opacity="0.61" d="M7.8103 0.897235C4.87321 0.587248 1.9821 2.79176 1.35354 5.81845C1.30801 6.03606 1.27498 6.2561 1.25463 6.47748C1.25381 6.48835 1.25595 6.49924 1.26083 6.50899C1.2657 6.51874 1.27313 6.52699 1.28232 6.53285C2.50879 7.40991 3.98649 7.98687 5.64371 8.1609C7.8647 8.39425 10.0714 7.86822 11.9966 6.78747C12.0047 6.78301 12.0118 6.77679 12.0172 6.76926C12.0225 6.76173 12.0262 6.75308 12.0278 6.74396C12.5381 3.79538 10.6851 1.19931 7.8103 0.897235Z" fill="url(#paint3_linear_5963_59327)"/>
<path opacity="0.5" d="M5.95478 11.852C3.2422 11.5667 1.26452 9.20301 1.87578 6.27272C2.48703 3.34244 5.28813 1.20417 8.13275 1.50328C10.0204 1.70104 11.2894 2.99982 11.7924 4.6333C11.7972 4.6482 11.8076 4.66067 11.8213 4.66811C11.8351 4.67555 11.8512 4.67739 11.8663 4.67325C11.8814 4.66911 11.8944 4.6593 11.9024 4.64588C11.9105 4.63245 11.913 4.61644 11.9096 4.60117C11.4699 2.6048 9.88195 1.08156 7.71733 0.85414C4.76787 0.541682 1.86687 2.75262 1.2388 5.7897C0.610732 8.82677 2.48308 11.54 5.43006 11.8495C5.6953 11.8778 5.96232 11.8855 6.22875 11.8727C6.13776 11.8683 6.04627 11.8619 5.95478 11.852Z" fill="#94512A"/>
<path d="M7.41022 1.37818C7.58185 1.37817 7.75335 1.38708 7.92405 1.40488C9.19503 1.53836 10.2939 2.16031 11.0214 3.158C11.4017 3.68104 11.6648 4.27981 11.7929 4.9136C11.9328 5.60564 11.9284 6.31909 11.78 7.00935C11.4982 8.32297 10.7816 9.50323 9.74595 10.3594C8.71384 11.2191 7.4572 11.6942 6.20749 11.6942C6.0357 11.6943 5.86403 11.6854 5.69316 11.6675C4.42367 11.5341 3.3238 10.9116 2.59633 9.9159C2.21584 9.39097 1.95319 8.7901 1.82632 8.15437C1.68687 7.46244 1.69142 6.74922 1.83968 6.05912C2.12066 4.74564 2.8364 3.56523 3.87126 2.7086C4.90338 1.84884 6.16001 1.37373 7.41022 1.37373M7.41022 0.884277C4.60319 0.886255 1.96232 3.0522 1.35848 5.95925C0.715577 9.06109 2.63194 11.5835 5.64173 11.8999C5.82967 11.9197 6.01851 11.9296 6.20749 11.9296C9.01502 11.9296 11.4284 9.85015 12.0322 6.9431C12.6751 3.84076 10.9858 1.23184 7.97697 0.915424C7.789 0.896067 7.60017 0.886331 7.41121 0.886255L7.41022 0.884277Z" fill="#E99855"/>
<path d="M7.27966 1.22975C7.45311 1.22966 7.62644 1.23873 7.79893 1.25694C9.08228 1.39141 10.1945 2.02078 10.9299 3.02737C11.3143 3.55621 11.5805 4.16153 11.7103 4.80225C11.8513 5.50202 11.8467 6.2233 11.6969 6.92123C11.4118 8.24948 10.6872 9.4429 9.64012 10.3088C8.59663 11.178 7.32615 11.6566 6.06259 11.6566C5.8888 11.6569 5.71513 11.6478 5.54233 11.6294C4.25899 11.4944 3.14725 10.8655 2.41186 9.85844C2.02716 9.32976 1.76099 8.72438 1.63147 8.08356C1.48998 7.38401 1.49453 6.66278 1.64483 5.96507C1.92972 4.63686 2.65438 3.44351 3.70164 2.57797C4.74413 1.70882 6.01561 1.22975 7.27917 1.22975M7.27917 0.735352C4.44098 0.735352 1.77143 2.92503 1.16116 5.86421C0.509847 9.00017 2.44698 11.8019 5.49139 12.1213C5.68145 12.1415 5.87245 12.1515 6.06358 12.1514C8.90127 12.1514 11.5708 9.96127 12.1811 7.02209C12.8329 3.88614 10.8943 1.08489 7.85086 0.765015C7.66094 0.745247 7.47012 0.735346 7.27917 0.735352Z" fill="url(#paint4_linear_5963_59327)"/>
<path d="M5.28814 3.59145H5.28171C5.26815 3.58955 5.25434 3.59228 5.24252 3.5992C5.23071 3.60612 5.22157 3.61682 5.21659 3.62957C5.21162 3.64233 5.21109 3.65639 5.2151 3.66948C5.21911 3.68257 5.22742 3.69392 5.23868 3.7017L5.2456 3.70566C5.25749 3.71217 5.26688 3.72242 5.27231 3.73483L5.30693 3.81393C5.31225 3.82607 5.31347 3.83961 5.31039 3.8525C5.30663 3.86703 5.30838 3.88244 5.3153 3.89576C5.32223 3.90908 5.33384 3.91937 5.3479 3.92465C5.36195 3.92993 5.37747 3.92982 5.39145 3.92435C5.40544 3.91888 5.4169 3.90843 5.42364 3.89501C5.42996 3.88317 5.44006 3.87378 5.45232 3.86832L5.52898 3.83321C5.54163 3.82788 5.55565 3.82666 5.56904 3.82975H5.57547C5.58323 3.83158 5.59128 3.83185 5.59915 3.83055C5.60701 3.82925 5.61455 3.8264 5.62131 3.82217C5.62807 3.81794 5.63392 3.81241 5.63853 3.80591C5.64314 3.7994 5.64642 3.79205 5.64816 3.78427C5.65108 3.77149 5.64982 3.75811 5.64457 3.7461C5.63931 3.73408 5.63035 3.72407 5.61899 3.71753L5.61206 3.71357C5.60018 3.70706 5.59079 3.69681 5.58536 3.6844L5.55074 3.6053C5.54541 3.59316 5.5442 3.57962 5.54728 3.56673C5.54882 3.55322 5.54579 3.53958 5.53866 3.52799C5.53154 3.5164 5.52073 3.50754 5.50798 3.50281C5.49522 3.49809 5.48124 3.49777 5.46829 3.50192C5.45533 3.50607 5.44414 3.51444 5.4365 3.5257C5.43036 3.5378 5.42023 3.5474 5.40782 3.55289L5.33116 3.58799C5.31771 3.59432 5.30242 3.59555 5.28814 3.59145Z" fill="white"/>
<path opacity="0.7" d="M7.83453 0.76551C7.64462 0.745578 7.45379 0.735511 7.26284 0.735352C4.42514 0.735352 1.75559 2.92503 1.14533 5.86422C1.0934 6.11199 1.05739 6.36283 1.03752 6.6152C1.03674 6.62591 1.03875 6.63663 1.04334 6.64633C1.04793 6.65603 1.05496 6.66438 1.06373 6.67058C1.18242 6.75265 1.30309 6.83208 1.42573 6.90887C1.43475 6.91455 1.4451 6.91774 1.45575 6.91812C1.4664 6.9185 1.47696 6.91606 1.48635 6.91103C1.49575 6.90601 1.50364 6.89859 1.50924 6.88953C1.51484 6.88046 1.51793 6.87008 1.51821 6.85943C1.53044 6.5588 1.56732 6.25968 1.6285 5.96507C1.91359 4.63682 2.63841 3.44349 3.6858 2.57797C4.72879 1.70882 5.99977 1.22975 7.26333 1.22975C7.43694 1.22966 7.61044 1.23873 7.7831 1.25694C9.06891 1.39191 10.1787 2.02078 10.9141 3.02787C11.2983 3.55673 11.5643 4.16205 11.694 4.80275C11.8354 5.5023 11.8309 6.22352 11.6806 6.92123C11.6771 6.93804 11.6737 6.95485 11.6697 6.97067C11.668 6.97874 11.6679 6.98706 11.6695 6.99516C11.6711 7.00325 11.6743 7.01094 11.6789 7.01777C11.6835 7.0246 11.6894 7.03043 11.6964 7.03491C11.7033 7.03939 11.711 7.04243 11.7192 7.04384C11.7329 7.04677 11.7472 7.04485 11.7597 7.03841C11.9031 6.96326 12.0451 6.88531 12.1855 6.80456C12.1935 6.79999 12.2003 6.79372 12.2055 6.7862C12.2107 6.77867 12.2142 6.77008 12.2157 6.76105C12.7063 3.73238 10.7939 1.07599 7.83453 0.76551Z" fill="url(#paint5_linear_5963_59327)"/>
<path d="M9.31916 5.10471C9.31916 5.13388 9.29295 5.14871 9.23954 5.14871C9.04172 5.14871 8.73939 5.1314 8.33255 5.0968C7.9257 5.06219 7.62205 5.04571 7.4216 5.04736C7.16641 5.04736 7.01805 5.05675 6.97651 5.07554C6.8776 5.12036 6.82814 5.24792 6.82814 5.4582C6.82814 5.71034 6.89194 5.85372 7.01953 5.88832C7.09961 5.90423 7.18124 5.91103 7.26285 5.90859C7.44649 5.90859 7.72096 5.89854 8.08626 5.87844C8.45157 5.85833 8.72604 5.84844 8.90968 5.84877C8.99705 5.84877 9.0409 6.08262 9.04123 6.55032C9.04123 6.95671 9.02656 7.1932 8.99721 7.25978C8.98989 7.28198 8.97534 7.3011 8.9559 7.31409C8.93645 7.32708 8.91322 7.33319 8.8899 7.33147C8.92287 7.33147 8.83912 7.32224 8.63867 7.30378C8.35348 7.27576 7.9224 7.26176 7.34544 7.26176C7.15949 7.26176 7.05464 7.26307 7.03091 7.26571C6.89507 7.28713 6.82715 7.34432 6.82715 7.43727C6.82715 7.81433 6.84364 8.24873 6.87661 8.74049C6.90331 9.18446 6.91667 9.38222 6.91667 9.33377C6.91667 9.40298 6.83259 9.44303 6.66544 9.45341C6.71061 9.45078 6.59224 9.44946 6.31035 9.44946C5.81317 9.44946 5.49287 9.43215 5.34946 9.39755C5.27231 9.37925 5.23373 9.33772 5.23373 9.27395C5.23373 8.97929 5.24379 8.53631 5.2639 7.94501C5.28401 7.35371 5.2939 6.91057 5.29357 6.61558C5.29357 6.26456 5.27709 5.82339 5.24412 5.29208C5.19631 4.47106 5.17093 4.02989 5.16796 3.96858L5.164 3.91914C5.164 3.8524 5.20159 3.82027 5.28368 3.82027C5.4815 3.82027 5.77823 3.82422 6.17386 3.83213C6.5695 3.84004 6.86787 3.844 7.06899 3.844C7.28164 3.844 7.60128 3.82752 8.02791 3.79456C8.45453 3.7616 8.77417 3.74512 8.98683 3.74512C9.11871 3.74512 9.19322 3.7995 9.21036 3.90827C9.21036 4.02297 9.21531 4.19403 9.22619 4.42244C9.23163 4.48127 9.24894 4.594 9.27811 4.7616C9.30135 4.87462 9.31508 4.98939 9.31916 5.10471Z" fill="#E1892B"/>
<path d="M9.28009 4.96107C9.28009 4.99023 9.25388 5.00507 9.20046 5.00507C9.00265 5.00507 8.70032 4.98859 8.29347 4.95563C7.88663 4.92267 7.58298 4.90619 7.38252 4.90619C7.12734 4.90619 6.97897 4.91542 6.93743 4.93387C6.83852 4.97936 6.78907 5.10708 6.78907 5.31703C6.78907 5.56917 6.85286 5.71255 6.98046 5.74716C7.06054 5.76306 7.14216 5.76986 7.22377 5.76743C7.40708 5.76743 7.68155 5.75737 8.04719 5.73727C8.41282 5.71716 8.68729 5.70727 8.8706 5.7076C8.9583 5.7076 9.00215 5.94145 9.00215 6.40915C9.00215 6.81554 8.98748 7.05203 8.95814 7.11861C8.95074 7.14076 8.93618 7.15983 8.91675 7.17281C8.89732 7.18579 8.87413 7.19194 8.85082 7.1903C8.88379 7.1903 8.80005 7.1809 8.59959 7.16212C8.31474 7.13608 7.88399 7.12289 7.30735 7.12256C7.1214 7.12256 7.01639 7.12388 6.99232 7.12652C6.85682 7.14794 6.78907 7.20496 6.78907 7.29758C6.78907 7.6753 6.80555 8.10987 6.83852 8.6013C6.86523 9.04527 6.87858 9.24303 6.87858 9.19458C6.87858 9.26379 6.79451 9.30384 6.62735 9.31422C6.67219 9.31158 6.55383 9.31027 6.27227 9.31027C5.77542 9.31027 5.45512 9.29379 5.31137 9.26083C5.23422 9.24253 5.19565 9.201 5.19565 9.13723C5.19565 8.84257 5.2057 8.39942 5.22581 7.8078C5.24592 7.21617 5.25582 6.77319 5.25549 6.47886C5.25549 6.12784 5.239 5.68667 5.20603 5.15536C5.15823 4.33401 5.13284 3.89284 5.12987 3.83187L5.12592 3.78243C5.12592 3.71618 5.16301 3.68355 5.2456 3.68355C5.44341 3.68355 5.74014 3.6875 6.13577 3.69541C6.53141 3.70332 6.82978 3.70728 7.0309 3.70728C7.24355 3.70728 7.56319 3.6908 7.98982 3.65784C8.41645 3.62488 8.73609 3.6084 8.94874 3.6084C9.08177 3.6084 9.15595 3.66278 9.17228 3.77155C9.17228 3.88625 9.17722 4.05731 9.1881 4.28572C9.19354 4.34455 9.21036 4.45728 9.23756 4.62488C9.26091 4.73559 9.27513 4.84803 9.28009 4.96107Z" fill="#FFF27E"/>
</g>
<defs>
<linearGradient id="paint0_linear_5963_59327" x1="14.0752" y1="-3.65849" x2="4.1323" y2="17.0744" gradientUnits="userSpaceOnUse">
<stop stop-color="#FFD243"/>
<stop offset="1" stop-color="#CD571B"/>
</linearGradient>
<linearGradient id="paint1_linear_5963_59327" x1="8.18913" y1="8.74616" x2="5.63259" y2="14.0773" gradientUnits="userSpaceOnUse">
<stop stop-color="#E08C3C"/>
<stop offset="1" stop-color="#FFD06F"/>
</linearGradient>
<linearGradient id="paint2_linear_5963_59327" x1="3.57258" y1="21.9659" x2="10.3978" y2="-12.2452" gradientUnits="userSpaceOnUse">
<stop stop-color="#F5942A"/>
<stop offset="1" stop-color="#F5D85D"/>
</linearGradient>
<linearGradient id="paint3_linear_5963_59327" x1="5.0008" y1="14.7453" x2="9.46198" y2="-7.61727" gradientUnits="userSpaceOnUse">
<stop stop-color="#E08C3C"/>
<stop offset="1" stop-color="#FFD06F"/>
</linearGradient>
<linearGradient id="paint4_linear_5963_59327" x1="8.90622" y1="-2.36649" x2="3.06498" y2="20.6727" gradientUnits="userSpaceOnUse">
<stop offset="0.2" stop-color="#FFDE43"/>
<stop offset="0.56" stop-color="#FFD23E"/>
<stop offset="1" stop-color="#FFBD37"/>
</linearGradient>
<linearGradient id="paint5_linear_5963_59327" x1="8.59909" y1="-1.26596" x2="4.80956" y2="13.6802" gradientUnits="userSpaceOnUse">
<stop offset="0.02" stop-color="#FFFFA0"/>
<stop offset="0.98" stop-color="#FFEB6A"/>
</linearGradient>
</defs>
</svg>
