<svg width="14" height="13" viewBox="0 0 14 13" fill="none" xmlns="http://www.w3.org/2000/svg">
<mask id="path-1-outside-1_5625_8169" maskUnits="userSpaceOnUse" x="0.0351562" y="-0.5" width="14" height="14" fill="black">
<rect fill="white" x="0.0351562" y="-0.5" width="14" height="14"/>
<path fill-rule="evenodd" clip-rule="evenodd" d="M10.6406 1.74134C9.90042 1.08236 8.94737 0.645058 7.85093 0.529819C7.63888 0.507562 7.42706 0.497941 7.21624 0.500365C4.396 0.524204 1.75232 2.70596 1.1454 5.62903C1.09347 5.8768 1.05746 6.12765 1.03759 6.38002C1.03681 6.39072 1.03882 6.40145 1.04341 6.41115C1.04527 6.41508 1.04754 6.41879 1.05015 6.42223C0.908732 8.38376 1.77683 10.1332 3.26559 11.1066C3.13803 11.0235 3.01418 10.9342 2.89456 10.8385C2.83077 10.789 2.76796 10.7351 2.70713 10.6812C2.78314 10.7486 2.85869 10.8166 2.9343 10.8847L2.93446 10.8849C3.28628 11.2018 3.63905 11.5195 4.0424 11.7689C4.20439 11.8675 4.37171 11.9564 4.54347 12.0354C4.85157 12.1794 5.17526 12.2903 5.50919 12.3656C6.65011 12.6277 7.85976 12.4976 8.94084 12.0522C9.29428 11.9056 9.63391 11.7278 9.95564 11.5207C9.95952 11.5182 9.96307 11.5153 9.96624 11.512C10.6196 11.0926 11.1964 10.5596 11.6678 9.9352C12.3268 9.06814 12.7541 8.04763 12.9096 6.96981C13.0728 5.79908 12.8779 4.57595 12.2864 3.54612C12.0951 3.21146 11.8651 2.90049 11.601 2.61962C11.3871 2.39307 11.1505 2.18723 10.9144 1.98189L10.9143 1.98183L10.9143 1.9818L10.9143 1.98178L10.9143 1.98177L10.9142 1.98175L10.9142 1.98174L10.9142 1.98172C10.8297 1.90823 10.7453 1.83481 10.662 1.76052L10.6799 1.77669L10.6586 1.75747L10.6406 1.74134ZM12.142 6.96252C12.0258 7.45113 11.8525 7.9178 11.6311 8.35568L11.6322 8.35363C12.0334 7.57457 12.2674 6.69394 12.3025 5.81386C12.2894 6.13288 12.2495 6.45805 12.1812 6.78689C12.1689 6.84574 12.1559 6.90428 12.142 6.96252Z"/>
</mask>
<path fill-rule="evenodd" clip-rule="evenodd" d="M10.6406 1.74134C9.90042 1.08236 8.94737 0.645058 7.85093 0.529819C7.63888 0.507562 7.42706 0.497941 7.21624 0.500365C4.396 0.524204 1.75232 2.70596 1.1454 5.62903C1.09347 5.8768 1.05746 6.12765 1.03759 6.38002C1.03681 6.39072 1.03882 6.40145 1.04341 6.41115C1.04527 6.41508 1.04754 6.41879 1.05015 6.42223C0.908732 8.38376 1.77683 10.1332 3.26559 11.1066C3.13803 11.0235 3.01418 10.9342 2.89456 10.8385C2.83077 10.789 2.76796 10.7351 2.70713 10.6812C2.78314 10.7486 2.85869 10.8166 2.9343 10.8847L2.93446 10.8849C3.28628 11.2018 3.63905 11.5195 4.0424 11.7689C4.20439 11.8675 4.37171 11.9564 4.54347 12.0354C4.85157 12.1794 5.17526 12.2903 5.50919 12.3656C6.65011 12.6277 7.85976 12.4976 8.94084 12.0522C9.29428 11.9056 9.63391 11.7278 9.95564 11.5207C9.95952 11.5182 9.96307 11.5153 9.96624 11.512C10.6196 11.0926 11.1964 10.5596 11.6678 9.9352C12.3268 9.06814 12.7541 8.04763 12.9096 6.96981C13.0728 5.79908 12.8779 4.57595 12.2864 3.54612C12.0951 3.21146 11.8651 2.90049 11.601 2.61962C11.3871 2.39307 11.1505 2.18723 10.9144 1.98189L10.9143 1.98183L10.9143 1.9818L10.9143 1.98178L10.9143 1.98177L10.9142 1.98175L10.9142 1.98174L10.9142 1.98172C10.8297 1.90823 10.7453 1.83481 10.662 1.76052L10.6799 1.77669L10.6586 1.75747L10.6406 1.74134ZM12.142 6.96252C12.0258 7.45113 11.8525 7.9178 11.6311 8.35568L11.6322 8.35363C12.0334 7.57457 12.2674 6.69394 12.3025 5.81386C12.2894 6.13288 12.2495 6.45805 12.1812 6.78689C12.1689 6.84574 12.1559 6.90428 12.142 6.96252Z" fill="#E99855"/>
<path d="M7.85093 0.529819L7.88688 0.187752L7.88684 0.187747L7.85093 0.529819ZM10.6406 1.74134L10.87 1.48503L10.8693 1.48445L10.6406 1.74134ZM7.21624 0.500365L7.21915 0.844305L7.2202 0.844293L7.21624 0.500365ZM1.1454 5.62903L1.48203 5.69958L1.48216 5.69896L1.1454 5.62903ZM1.03759 6.38002L0.694689 6.35302L0.694527 6.35525L1.03759 6.38002ZM1.04341 6.41115L1.35429 6.264L1.35429 6.26399L1.04341 6.41115ZM1.05015 6.42223L1.39321 6.44696L1.40256 6.31731L1.32382 6.21388L1.05015 6.42223ZM3.26559 11.1066L3.07792 11.3948L3.45381 10.8187L3.26559 11.1066ZM2.89456 10.8385L3.10945 10.5698L3.10525 10.5666L2.89456 10.8385ZM2.70713 10.6812L2.9352 10.4238L2.47905 10.9387L2.70713 10.6812ZM2.9343 10.8847L2.70411 11.1403L2.70418 11.1404L2.9343 10.8847ZM2.93446 10.8849L3.16465 10.6293L3.16459 10.6292L2.93446 10.8849ZM4.0424 11.7689L3.8615 12.0615L3.86362 12.0628L4.0424 11.7689ZM4.54347 12.0354L4.68909 11.7238L4.68718 11.7229L4.54347 12.0354ZM5.50919 12.3656L5.58618 12.0304L5.58486 12.0301L5.50919 12.3656ZM8.94084 12.0522L9.07187 12.3702L9.07257 12.3699L8.94084 12.0522ZM9.95564 11.5207L10.1418 11.8099L10.1425 11.8094L9.95564 11.5207ZM9.96624 11.512L9.78044 11.2226L9.74733 11.2438L9.71988 11.272L9.96624 11.512ZM11.6678 9.9352L11.3939 9.72707L11.3933 9.72795L11.6678 9.9352ZM12.9096 6.96981L13.25 7.01891L13.2502 7.0173L12.9096 6.96981ZM12.2864 3.54612L11.9878 3.71682L11.9882 3.71742L12.2864 3.54612ZM11.601 2.61962L11.8516 2.38402L11.8511 2.3835L11.601 2.61962ZM10.9144 1.98189L10.6871 2.24004L10.6887 2.2414L10.9144 1.98189ZM10.9143 1.98183L11.1416 1.72367L11.1393 1.72164L10.9143 1.98183ZM10.9143 1.9818L10.6818 2.23545L10.6893 2.24199L10.9143 1.9818ZM10.9142 1.98172L11.1467 1.72809L11.1399 1.7222L10.9142 1.98172ZM10.662 1.76052L10.891 1.50386L10.431 2.01532L10.662 1.76052ZM10.6799 1.77669L10.4491 2.03174L10.9109 1.52188L10.6799 1.77669ZM10.6586 1.75747L10.8894 1.50242L10.888 1.50116L10.6586 1.75747ZM11.6311 8.35568L11.3242 8.2005L11.9369 8.51324L11.6311 8.35568ZM12.142 6.96252L11.8074 6.88285L11.8074 6.88291L12.142 6.96252ZM11.6322 8.35363L11.9379 8.51119L11.938 8.5111L11.6322 8.35363ZM12.3025 5.81386L12.6461 5.82755L11.9588 5.79976L12.3025 5.81386ZM12.1812 6.78689L11.8444 6.7169V6.7169L12.1812 6.78689ZM7.81498 0.871885C8.84037 0.979658 9.72587 1.38747 10.4119 1.99824L10.8693 1.48445C10.075 0.77725 9.05437 0.310459 7.88688 0.187752L7.81498 0.871885ZM7.2202 0.844293C7.41789 0.84202 7.6164 0.851043 7.81503 0.87189L7.88684 0.187747C7.66136 0.164081 7.43622 0.153863 7.21229 0.156437L7.2202 0.844293ZM1.48216 5.69896C2.05746 2.92819 4.5671 0.866721 7.21915 0.844304L7.21333 0.156427C4.22489 0.181688 1.44717 2.48374 0.808628 5.55911L1.48216 5.69896ZM1.38047 6.40702C1.39919 6.16928 1.43312 5.93299 1.48203 5.69958L0.808758 5.55848C0.75382 5.82062 0.715721 6.08601 0.694696 6.35302L1.38047 6.40702ZM1.35429 6.26399C1.37506 6.30787 1.38414 6.35636 1.38064 6.40479L0.694527 6.35525C0.689486 6.42509 0.702579 6.49503 0.732529 6.5583L1.35429 6.26399ZM1.32382 6.21388C1.33565 6.22942 1.34587 6.24621 1.35429 6.264L0.732529 6.5583C0.744674 6.58396 0.759425 6.60817 0.776483 6.63058L1.32382 6.21388ZM3.45381 10.8187C2.07531 9.91741 1.26027 8.29086 1.39321 6.44696L0.70709 6.3975C0.55719 8.47667 1.47835 10.349 3.07736 11.3945L3.45381 10.8187ZM2.6797 11.107C2.80817 11.2098 2.94111 11.3058 3.07792 11.3948L3.45326 10.8183C3.33495 10.7413 3.22018 10.6585 3.10943 10.5699L2.6797 11.107ZM2.47905 10.9387C2.54215 10.9946 2.6114 11.0542 2.68387 11.1103L3.10525 10.5666C3.05013 10.5239 2.99376 10.4757 2.93521 10.4238L2.47905 10.9387ZM3.16449 10.6292C3.08906 10.5612 3.01245 10.4922 2.9352 10.4238L2.47906 10.9387C2.55383 11.0049 2.62833 11.072 2.70411 11.1403L3.16449 10.6292ZM3.16459 10.6292L3.16442 10.6291L2.70418 11.1404L2.70434 11.1405L3.16459 10.6292ZM4.2233 11.4764C3.85065 11.2459 3.52039 10.9497 3.16465 10.6293L2.70427 11.1404C3.05217 11.4538 3.42745 11.793 3.8615 12.0615L4.2233 11.4764ZM4.68718 11.7229C4.52744 11.6495 4.37183 11.5667 4.22118 11.4751L3.86362 12.0628C4.03695 12.1682 4.21598 12.2634 4.39976 12.3479L4.68718 11.7229ZM5.58486 12.0301C5.27511 11.9603 4.97487 11.8574 4.68908 11.7238L4.39786 12.347C4.72828 12.5014 5.07541 12.6204 5.43353 12.7012L5.58486 12.0301ZM8.8098 11.7342C7.78884 12.1548 6.6518 12.2751 5.58618 12.0304L5.4322 12.7008C6.64841 12.9802 7.93068 12.8404 9.07187 12.3702L8.8098 11.7342ZM9.7695 11.2315C9.46502 11.4274 9.1436 11.5958 8.8091 11.7345L9.07257 12.3699C9.44497 12.2155 9.8028 12.0281 10.1418 11.8099L9.7695 11.2315ZM9.71988 11.272C9.73452 11.257 9.75089 11.2435 9.76874 11.232L10.1425 11.8094C10.1681 11.7929 10.1916 11.7736 10.2126 11.752L9.71988 11.272ZM11.3933 9.72795C10.9464 10.3198 10.3997 10.825 9.78044 11.2226L10.152 11.8015C10.8394 11.3602 11.4463 10.7994 11.9423 10.1425L11.3933 9.72795ZM12.5691 6.92072C12.4221 7.94072 12.0176 8.90651 11.3939 9.72707L11.9416 10.1433C12.636 9.22978 13.0862 8.15454 13.25 7.01891L12.5691 6.92072ZM11.9882 3.71742C12.5376 4.67401 12.7228 5.81876 12.5689 6.92233L13.2502 7.0173C13.4228 5.77941 13.2182 4.47789 12.5847 3.37482L11.9882 3.71742ZM11.3504 2.85523C11.596 3.11641 11.8099 3.4056 11.9878 3.71682L12.5851 3.37543C12.3803 3.01732 12.1342 2.68456 11.8516 2.38402L11.3504 2.85523ZM10.6887 2.2414C10.9269 2.44866 11.1506 2.64355 11.3509 2.85575L11.8511 2.3835C11.6237 2.14258 11.374 1.92581 11.1401 1.72237L10.6887 2.2414ZM10.687 2.23998L10.6871 2.24004L11.1417 1.72373L11.1416 1.72368L10.687 2.23998ZM10.6893 2.24199L10.6894 2.24202L11.1393 1.72164L11.1392 1.72161L10.6893 2.24199ZM10.6819 2.23533L10.6819 2.23534L11.1467 1.72825L11.1467 1.72824L10.6819 2.23533ZM10.6818 2.23531L10.6819 2.23533L11.1467 1.72824L11.1467 1.72822L10.6818 2.23531ZM10.6818 2.2353L10.6818 2.23531L11.1467 1.72822L11.1467 1.72821L10.6818 2.2353ZM10.6818 2.23528L10.6818 2.2353L11.1467 1.72821L11.1466 1.72819L10.6818 2.23528ZM10.6818 2.23527L10.6818 2.23528L11.1466 1.72819L11.1466 1.72818L10.6818 2.23527ZM10.4331 2.01718C10.5182 2.09315 10.6043 2.16799 10.6885 2.24124L11.1399 1.7222C11.0552 1.64848 10.9724 1.57647 10.891 1.50386L10.4331 2.01718ZM10.9109 1.52188L10.8931 1.50571L10.431 2.01532L10.4488 2.0315L10.9109 1.52188ZM10.4279 2.01252L10.4491 2.03174L10.9106 1.52164L10.8894 1.50243L10.4279 2.01252ZM10.4112 1.99766L10.4293 2.01379L10.888 1.50116L10.87 1.48503L10.4112 1.99766ZM11.9381 8.51086C12.1712 8.04966 12.354 7.55768 12.4766 7.04212L11.8074 6.88291C11.6976 7.34459 11.5337 7.78594 11.3242 8.2005L11.9381 8.51086ZM11.3264 8.19607L11.3254 8.19812L11.9369 8.51324L11.9379 8.51119L11.3264 8.19607ZM11.9588 5.80018C11.9258 6.62975 11.7048 7.46135 11.3264 8.19616L11.938 8.5111C12.3619 7.68778 12.6091 6.75812 12.6461 5.82755L11.9588 5.80018ZM12.5179 6.85689C12.59 6.50988 12.6323 6.16602 12.6461 5.82797L11.9588 5.79976C11.9465 6.09973 11.909 6.40621 11.8444 6.7169L12.5179 6.85689ZM12.4766 7.04219C12.4912 6.98075 12.505 6.91898 12.5179 6.85689L11.8444 6.7169C11.8329 6.7725 11.8205 6.82782 11.8074 6.88285L12.4766 7.04219Z" fill="#4C6042" mask="url(#path-1-outside-1_5625_8169)"/>
<path d="M12.9095 6.97002C13.0727 5.79929 12.8778 4.57615 12.2864 3.54632C12.095 3.21166 11.865 2.90069 11.6009 2.61983C11.3017 2.30292 10.958 2.02655 10.6336 1.73535C11.5327 2.53331 12.0974 3.6541 12.2577 4.84065C12.4179 6.0272 12.182 7.28594 11.6321 8.35383C11.0871 9.41877 10.2676 10.3189 9.25826 10.9613C8.25433 11.5956 7.08226 11.9466 5.88942 11.9135C4.80637 11.8794 3.7436 11.518 2.89446 10.8387C2.83067 10.7892 2.76786 10.7353 2.70703 10.6814C3.13679 11.0621 3.55221 11.4661 4.0423 11.7691C4.49475 12.0444 4.98874 12.2447 5.50516 12.3624C6.64608 12.6269 7.85771 12.4969 8.9368 12.0514C10.0189 11.6011 10.9615 10.8707 11.6677 9.9354C12.3267 9.06835 12.754 8.04783 12.9095 6.97002Z" fill="url(#paint0_linear_5625_8169)"/>
<path opacity="0.5" d="M8.94084 12.0522C9.29429 11.9056 9.63391 11.7278 9.95564 11.5207C9.96925 11.5119 9.97882 11.498 9.98225 11.4822C9.98568 11.4663 9.98269 11.4498 9.97394 11.4361L9.96702 11.4272L9.64012 11.0802C9.63023 11.0699 9.61702 11.0634 9.60283 11.0619C9.58863 11.0603 9.57435 11.0638 9.56248 11.0718L9.45566 11.1415C8.43146 11.7882 7.23367 12.1461 6.01907 12.1125C5.15827 12.0884 4.31665 11.8527 3.5686 11.4263C4.13484 11.884 4.79883 12.2054 5.50919 12.3656C6.65011 12.6276 7.85976 12.4976 8.94084 12.0522Z" fill="url(#paint1_linear_5625_8169)" fill-opacity="0.5"/>
<path d="M7.85085 0.529819C10.8943 0.849693 12.8329 3.65094 12.1811 6.78689C11.5293 9.92285 8.5348 12.206 5.49138 11.8861C2.44795 11.5662 0.509834 8.76497 1.16115 5.62902C1.81246 2.49306 4.80792 0.210439 7.85085 0.529819Z" fill="url(#paint2_linear_5625_8169)"/>
<path style="mix-blend-mode:overlay" opacity="0.61" d="M7.81024 0.661883C4.87314 0.351897 1.98204 2.55641 1.35347 5.5831C1.30794 5.80071 1.27492 6.02075 1.25457 6.24213C1.25375 6.253 1.25589 6.26389 1.26076 6.27364C1.26564 6.28339 1.27307 6.29164 1.28226 6.2975C2.50873 7.17456 3.98643 7.75152 5.64364 7.92555C7.86464 8.1589 10.0713 7.63287 11.9966 6.55212C12.0047 6.54766 12.0117 6.54144 12.0171 6.53391C12.0225 6.52638 12.0261 6.51773 12.0277 6.50861C12.5381 3.56003 10.685 0.963959 7.81024 0.661883Z" fill="url(#paint3_linear_5625_8169)"/>
<path opacity="0.5" d="M5.95472 11.6166C3.24214 11.3314 1.26446 8.96765 1.87571 6.03737C2.48697 3.10708 5.28807 0.968821 8.13269 1.26793C10.0204 1.46569 11.2894 2.76447 11.7923 4.39795C11.7971 4.41285 11.8075 4.42531 11.8213 4.43275C11.8351 4.4402 11.8512 4.44204 11.8663 4.4379C11.8814 4.43376 11.8943 4.42395 11.9024 4.41053C11.9104 4.3971 11.913 4.38108 11.9095 4.36582C11.4699 2.36945 9.88189 0.846211 7.71727 0.618789C4.76781 0.306331 1.86681 2.51727 1.23874 5.55434C0.610671 8.59142 2.48302 11.3047 5.43 11.6142C5.69524 11.6424 5.96226 11.6502 6.22869 11.6374C6.1377 11.6329 6.04621 11.6265 5.95472 11.6166Z" fill="#94512A"/>
<path d="M7.41031 1.14283C7.58194 1.14282 7.75344 1.15173 7.92414 1.16952C9.19512 1.30301 10.294 1.92496 11.0215 2.92265C11.4018 3.44568 11.6649 4.04446 11.793 4.67825C11.9329 5.37029 11.9285 6.08373 11.7801 6.774C11.4983 8.08762 10.7817 9.26787 9.74604 10.124C8.71393 10.9838 7.45729 11.4589 6.20758 11.4589C6.03579 11.4589 5.86412 11.45 5.69326 11.4322C4.42376 11.2987 3.32389 10.6763 2.59642 9.68055C2.21593 9.15561 1.95328 8.55475 1.82641 7.91902C1.68696 7.22709 1.69151 6.51387 1.83977 5.82377C2.12075 4.51029 2.83649 3.32988 3.87135 2.47325C4.90347 1.61349 6.1601 1.13838 7.41031 1.13838M7.41031 0.648926C4.60328 0.650903 1.96241 2.81685 1.35858 5.7239C0.715669 8.82574 2.63203 11.3482 5.64182 11.6646C5.82976 11.6843 6.01861 11.6942 6.20758 11.6942C9.01511 11.6942 11.4285 9.6148 12.0323 6.70775C12.6752 3.60541 10.9859 0.996486 7.97706 0.680073C7.78909 0.660715 7.60026 0.650979 7.4113 0.650903L7.41031 0.648926Z" fill="#E99855"/>
<path d="M7.27969 0.994396C7.45314 0.994306 7.62647 1.00338 7.79896 1.02159C9.08231 1.15606 10.1945 1.78543 10.9299 2.79202C11.3144 3.32086 11.5805 3.92618 11.7103 4.5669C11.8513 5.26667 11.8468 5.98795 11.697 6.68588C11.4118 8.01413 10.6872 9.20755 9.64015 10.0735C8.59666 10.9426 7.32618 11.4212 6.06262 11.4212C5.88884 11.4216 5.71516 11.4125 5.54236 11.394C4.25902 11.259 3.14728 10.6302 2.41189 9.62309C2.02719 9.0944 1.76102 8.48903 1.6315 7.84821C1.49001 7.14866 1.49456 6.42743 1.64486 5.72972C1.92975 4.40151 2.65441 3.20816 3.70167 2.34261C4.74416 1.47347 6.01564 0.994396 7.2792 0.994396M7.2792 0.5C4.44101 0.5 1.77146 2.68968 1.16119 5.62886C0.509878 8.76482 2.44701 11.5666 5.49142 11.8859C5.68148 11.9061 5.87248 11.9162 6.06361 11.9161C8.9013 11.9161 11.5709 9.72592 12.1811 6.78674C12.8329 3.65079 10.8943 0.849538 7.85089 0.529664C7.66097 0.509896 7.47015 0.499995 7.2792 0.5Z" fill="url(#paint4_linear_5625_8169)"/>
<path d="M5.28811 3.3561H5.28168C5.26812 3.3542 5.25431 3.35693 5.24249 3.36385C5.23068 3.37077 5.22154 3.38147 5.21656 3.39422C5.21159 3.40698 5.21106 3.42104 5.21507 3.43413C5.21908 3.44722 5.22738 3.45857 5.23865 3.46635L5.24557 3.47031C5.25745 3.47682 5.26685 3.48707 5.27228 3.49948L5.3069 3.57858C5.31222 3.59071 5.31344 3.60426 5.31036 3.61714C5.3066 3.63168 5.30835 3.64709 5.31527 3.66041C5.3222 3.67373 5.33381 3.68402 5.34786 3.6893C5.36192 3.69458 5.37744 3.69447 5.39142 3.689C5.40541 3.68353 5.41687 3.67308 5.42361 3.65966C5.42993 3.64782 5.44003 3.63842 5.45229 3.63296L5.52895 3.59786C5.5416 3.59252 5.55562 3.59131 5.56901 3.5944H5.57544C5.5832 3.59623 5.59125 3.5965 5.59911 3.5952C5.60698 3.5939 5.61452 3.59105 5.62128 3.58682C5.62804 3.58259 5.63389 3.57706 5.6385 3.57056C5.64311 3.56405 5.64638 3.5567 5.64813 3.54892C5.65105 3.53614 5.64979 3.52276 5.64453 3.51074C5.63928 3.49873 5.63032 3.48872 5.61896 3.48217L5.61203 3.47822C5.60015 3.47171 5.59076 3.46145 5.58533 3.44905L5.55071 3.36995C5.54538 3.35781 5.54417 3.34427 5.54725 3.33138C5.54879 3.31787 5.54576 3.30423 5.53863 3.29264C5.53151 3.28105 5.5207 3.27219 5.50795 3.26746C5.49519 3.26273 5.48121 3.26242 5.46826 3.26657C5.4553 3.27072 5.44411 3.27909 5.43647 3.29035C5.43033 3.30245 5.4202 3.31205 5.40778 3.31754L5.33113 3.35264C5.31768 3.35897 5.30239 3.3602 5.28811 3.3561Z" fill="white"/>
<path opacity="0.7" d="M7.83453 0.530158C7.64462 0.510226 7.45379 0.50016 7.26284 0.5C4.42514 0.5 1.75559 2.68968 1.14533 5.62886C1.0934 5.87664 1.05739 6.12748 1.03752 6.37985C1.03674 6.39056 1.03875 6.40128 1.04334 6.41098C1.04793 6.42068 1.05496 6.42903 1.06373 6.43522C1.18242 6.51729 1.30309 6.59673 1.42573 6.67352C1.43475 6.6792 1.4451 6.68239 1.45575 6.68277C1.4664 6.68315 1.47696 6.6807 1.48635 6.67568C1.49575 6.67066 1.50364 6.66324 1.50924 6.65418C1.51484 6.64511 1.51793 6.63473 1.51821 6.62408C1.53044 6.32345 1.56732 6.02432 1.6285 5.72972C1.91359 4.40147 2.63841 3.20814 3.6858 2.34261C4.72879 1.47347 5.99977 0.994396 7.26333 0.994396C7.43694 0.994306 7.61044 1.00338 7.7831 1.02159C9.06891 1.15656 10.1787 1.78543 10.9141 2.79251C11.2983 3.32138 11.5643 3.9267 11.694 4.5674C11.8354 5.26695 11.8309 5.98817 11.6806 6.68588C11.6771 6.70269 11.6737 6.7195 11.6697 6.73532C11.668 6.74339 11.6679 6.75171 11.6695 6.7598C11.6711 6.7679 11.6743 6.77559 11.6789 6.78242C11.6835 6.78925 11.6894 6.79508 11.6964 6.79956C11.7033 6.80404 11.711 6.80708 11.7192 6.80849C11.7329 6.81142 11.7472 6.80949 11.7597 6.80305C11.9031 6.72791 12.0451 6.64996 12.1855 6.56921C12.1935 6.56464 12.2003 6.55837 12.2055 6.55084C12.2107 6.54332 12.2142 6.53473 12.2157 6.5257C12.7063 3.49703 10.7939 0.840639 7.83453 0.530158Z" fill="url(#paint5_linear_5625_8169)"/>
<path d="M9.31922 4.86935C9.31922 4.89852 9.29301 4.91336 9.2396 4.91336C9.04178 4.91336 8.73945 4.89605 8.33261 4.86144C7.92576 4.82684 7.62211 4.81036 7.42166 4.812C7.16647 4.812 7.01811 4.8214 6.97657 4.84019C6.87766 4.88501 6.8282 5.01256 6.8282 5.22285C6.8282 5.47499 6.892 5.61836 7.01959 5.65297C7.09967 5.66888 7.1813 5.67568 7.26291 5.67324C7.44655 5.67324 7.72102 5.66319 8.08632 5.64308C8.45163 5.62298 8.7261 5.61309 8.90974 5.61342C8.99711 5.61342 9.04096 5.84727 9.04129 6.31497C9.04129 6.72136 9.02662 6.95785 8.99727 7.02443C8.98995 7.04663 8.9754 7.06575 8.95596 7.07874C8.93651 7.09173 8.91328 7.09784 8.88996 7.09611C8.92293 7.09611 8.83918 7.08689 8.63873 7.06843C8.35354 7.04041 7.92246 7.0264 7.3455 7.0264C7.15955 7.0264 7.0547 7.02772 7.03097 7.03036C6.89513 7.05178 6.82721 7.10897 6.82721 7.20192C6.82721 7.57897 6.8437 8.01338 6.87667 8.50514C6.90337 8.94911 6.91673 9.14687 6.91673 9.09842C6.91673 9.16763 6.83265 9.20768 6.6655 9.21806C6.71067 9.21542 6.59231 9.21411 6.31042 9.21411C5.81323 9.21411 5.49293 9.1968 5.34952 9.16219C5.27237 9.1439 5.23379 9.10237 5.23379 9.0386C5.23379 8.74394 5.24385 8.30096 5.26396 7.70966C5.28407 7.11836 5.29396 6.67522 5.29363 6.38023C5.29363 6.02921 5.27715 5.58804 5.24418 5.05673C5.19637 4.2357 5.17099 3.79454 5.16802 3.73323L5.16406 3.68379C5.16406 3.61705 5.20165 3.58491 5.28374 3.58491C5.48156 3.58491 5.77829 3.58887 6.17392 3.59678C6.56956 3.60469 6.86793 3.60864 7.06905 3.60864C7.2817 3.60864 7.60134 3.59216 8.02797 3.55921C8.45459 3.52625 8.77423 3.50977 8.98689 3.50977C9.11877 3.50977 9.19328 3.56415 9.21042 3.67292C9.21042 3.78762 9.21537 3.95868 9.22625 4.18709C9.23169 4.24592 9.249 4.35864 9.27817 4.52624C9.30141 4.63927 9.31514 4.75404 9.31922 4.86935Z" fill="#E1892B"/>
<path d="M9.28015 4.72571C9.28015 4.75488 9.25394 4.76972 9.20053 4.76972C9.00271 4.76972 8.70038 4.75324 8.29353 4.72028C7.88669 4.68732 7.58304 4.67084 7.38258 4.67084C7.1274 4.67084 6.97903 4.68006 6.93749 4.69852C6.83858 4.74401 6.78913 4.87173 6.78913 5.08168C6.78913 5.33382 6.85292 5.4772 6.98052 5.5118C7.0606 5.52771 7.14222 5.53451 7.22383 5.53207C7.40714 5.53207 7.68162 5.52202 8.04725 5.50192C8.41288 5.48181 8.68735 5.47192 8.87066 5.47225C8.95836 5.47225 9.00221 5.7061 9.00221 6.1738C9.00221 6.58019 8.98754 6.81668 8.9582 6.88326C8.9508 6.90541 8.93624 6.92448 8.91681 6.93746C8.89738 6.95044 8.87419 6.95659 8.85088 6.95495C8.88385 6.95495 8.80011 6.94555 8.59965 6.92676C8.3148 6.90073 7.88405 6.88754 7.30741 6.88721C7.12146 6.88721 7.01645 6.88853 6.99239 6.89117C6.85688 6.91259 6.78913 6.96961 6.78913 7.06223C6.78913 7.43995 6.80561 7.87452 6.83858 8.36595C6.86529 8.80992 6.87864 9.00768 6.87864 8.95923C6.87864 9.02844 6.79457 9.06849 6.62741 9.07887C6.67225 9.07623 6.55389 9.07491 6.27233 9.07491C5.77548 9.07491 5.45518 9.05843 5.31143 9.02548C5.23428 9.00718 5.19571 8.96565 5.19571 8.90188C5.19571 8.60722 5.20576 8.16407 5.22587 7.57245C5.24599 6.98082 5.25588 6.53784 5.25555 6.24351C5.25555 5.89249 5.23906 5.45132 5.20609 4.92001C5.15829 4.09866 5.1329 3.65749 5.12993 3.59651L5.12598 3.54707C5.12598 3.48083 5.16307 3.4482 5.24566 3.4482C5.44347 3.4482 5.7402 3.45215 6.13584 3.46006C6.53147 3.46797 6.82985 3.47193 7.03096 3.47193C7.24361 3.47193 7.56325 3.45545 7.98988 3.42249C8.41651 3.38953 8.73615 3.37305 8.9488 3.37305C9.08184 3.37305 9.15602 3.42743 9.17234 3.5362C9.17234 3.6509 9.17728 3.82196 9.18816 4.05037C9.1936 4.1092 9.21042 4.22192 9.23762 4.38952C9.26097 4.50024 9.27519 4.61268 9.28015 4.72571Z" fill="#FFF27E"/>
<defs>
<linearGradient id="paint0_linear_5625_8169" x1="14.0751" y1="-3.89384" x2="4.13221" y2="16.839" gradientUnits="userSpaceOnUse">
<stop stop-color="#FFD243"/>
<stop offset="1" stop-color="#CD571B"/>
</linearGradient>
<linearGradient id="paint1_linear_5625_8169" x1="8.18913" y1="8.5108" x2="5.63259" y2="13.842" gradientUnits="userSpaceOnUse">
<stop stop-color="#E08C3C"/>
<stop offset="1" stop-color="#FFD06F"/>
</linearGradient>
<linearGradient id="paint2_linear_5625_8169" x1="3.57255" y1="21.7305" x2="10.3978" y2="-12.4805" gradientUnits="userSpaceOnUse">
<stop stop-color="#F5942A"/>
<stop offset="1" stop-color="#F5D85D"/>
</linearGradient>
<linearGradient id="paint3_linear_5625_8169" x1="5.00074" y1="14.5099" x2="9.46192" y2="-7.85262" gradientUnits="userSpaceOnUse">
<stop stop-color="#E08C3C"/>
<stop offset="1" stop-color="#FFD06F"/>
</linearGradient>
<linearGradient id="paint4_linear_5625_8169" x1="8.90625" y1="-2.60184" x2="3.06502" y2="20.4374" gradientUnits="userSpaceOnUse">
<stop offset="0.2" stop-color="#FFDE43"/>
<stop offset="0.56" stop-color="#FFD23E"/>
<stop offset="1" stop-color="#FFBD37"/>
</linearGradient>
<linearGradient id="paint5_linear_5625_8169" x1="8.59909" y1="-1.50131" x2="4.80956" y2="13.4448" gradientUnits="userSpaceOnUse">
<stop offset="0.02" stop-color="#FFFFA0"/>
<stop offset="0.98" stop-color="#FFEB6A"/>
</linearGradient>
</defs>
</svg>
