<svg width="30" height="31" viewBox="0 0 30 31" fill="none" xmlns="http://www.w3.org/2000/svg">
<path d="M22.5876 12.6267C22.5876 13.5296 22.4434 14.3642 22.193 15.1381H7.80715C7.55676 14.3642 7.4126 13.5296 7.4126 12.6267C7.4126 10.2821 9.30188 8.38525 11.6312 8.38525C13.0046 8.38525 14.2337 9.05295 15.0001 10.0773C15.7664 9.05295 16.9956 8.38525 18.3689 8.38525C20.6983 8.38525 22.5876 10.2821 22.5876 12.6267Z" fill="#C4381A"/>
<path opacity="0.4" d="M22.193 15.1382C20.9942 18.9319 17.2991 21.2006 15.4705 21.8228C15.2125 21.9138 14.7876 21.9138 14.5296 21.8228C12.7011 21.2006 9.00595 18.9319 7.80713 15.1382H22.193Z" fill="#C4381A"/>
</svg>
