<svg width="30" height="31" viewBox="0 0 30 31" fill="none" xmlns="http://www.w3.org/2000/svg">
<path fill-rule="evenodd" clip-rule="evenodd" d="M13.4914 12.4402C13.0765 11.5488 12.9259 10.2881 13.1455 8.94211C13.2039 8.58386 13.2853 8.23967 13.3861 7.91399C11.8034 7.04223 9.34066 7.763 7.57001 9.71647C6.49974 10.8973 5.90245 12.2856 5.82324 13.5281C6.87272 13.9029 7.89635 14.8738 8.51954 16.2221C8.5542 16.2971 8.58717 16.3723 8.61846 16.4476C8.95604 15.6898 9.47093 14.9414 10.1492 14.2764C11.1664 13.2792 12.3641 12.6532 13.4914 12.4402ZM21.0353 12.837C22.727 12.837 24.1052 14.7594 24.1633 17.1623L24.1616 17.1632L24.1749 17.4117L24.1763 17.4374C24.1763 17.4374 20.1493 19.3983 18.6269 20.018C17.1045 20.6377 11.6476 22.7257 11.6476 22.7257C11.6476 22.7257 11.4249 22.7669 11.3414 22.4885C11.2661 22.2375 11.4536 22.1233 11.4536 22.1233C12.4093 21.8172 14.0387 21.175 15.4646 20.613L15.4646 20.613L15.4646 20.613C16.1761 20.3326 16.8369 20.0722 17.3381 19.8834C17.6834 19.7368 18.0003 19.605 18.2937 19.4849C18.0462 18.8432 17.9054 18.1053 17.9054 17.3204C17.9054 14.8443 19.3067 12.837 21.0353 12.837ZM16.7984 15.3675C17.111 15.3675 17.4144 15.3103 17.7037 15.2028C17.4988 15.9016 17.3855 16.6691 17.3855 17.4745C17.3855 18.0786 17.4492 18.6614 17.5676 19.2099L11.3121 21.5819L9.1234 16.8826C9.46143 16.2085 9.95319 15.55 10.585 14.969C11.6161 14.0209 12.8214 13.4618 13.9282 13.3282C14.044 13.5451 14.1714 13.7486 14.3089 13.9366C13.7307 14.3855 13.0671 14.9995 12.5737 15.8082C12.4962 15.9352 12.5363 16.1011 12.6633 16.1786C12.7904 16.2561 12.9562 16.2159 13.0337 16.0889C13.4867 15.3464 14.1025 14.7777 14.653 14.3519C14.8665 14.5789 15.0978 14.7728 15.3435 14.9285C14.8996 15.3237 14.4465 15.8119 14.0848 16.4046C14.0073 16.5316 14.0474 16.6975 14.1745 16.775C14.3015 16.8525 14.4673 16.8123 14.5448 16.6853C14.9166 16.076 15.398 15.5837 15.8629 15.1914C16.1614 15.3062 16.4749 15.3675 16.7984 15.3675Z" fill="white" fill-opacity="0.8"/>
</svg>
