<svg width="30" height="31" viewBox="0 0 30 31" fill="none" xmlns="http://www.w3.org/2000/svg">
<path fill-rule="evenodd" clip-rule="evenodd" d="M12.8199 11.3141L12.0099 12.2098L13.1804 13.2361L16.4004 11.191L17.3837 10.5664L16.8582 11.6061L14.8204 15.6373L16.0745 17.3094L17.364 16.7406L18.0641 16.0829L18.5029 16.5501L17.7628 17.2452L17.7229 17.2827L17.6728 17.3048L16.1003 17.9986L15.8673 18.1014L15.7145 17.8977L14.1883 15.8626L14.0688 15.7034L14.1586 15.5258L15.7607 12.3565L13.3214 13.9058L13.1188 14.0345L12.9383 13.8762L11.3427 12.4771L11.098 12.2626L11.3162 12.0212L12.2575 10.9804L10.1142 9.69199L7.27612 12.8029V13.1084L13.6858 15.697L14.0389 15.8396L13.8381 16.1631L12.1731 18.8457L12.0508 19.0426L11.8255 18.9882L7.74436 18.0019L12.0863 20.7573L16.0176 20.526L17.9602 22.7469L22.724 17.9368L19.6715 16.0405L21.2902 11.1833L16.2424 7.86087L12.8229 11.3171L12.8199 11.3141ZM12.7195 10.5104L14.4545 8.7567L12.0863 7.53027L10.5547 9.20904L12.7195 10.5104ZM11.7508 18.3107L7.27612 17.2294V13.7996L13.0928 16.1486L11.7508 18.3107Z" fill="white" fill-opacity="0.8"/>
</svg>
