<svg width="30" height="31" viewBox="0 0 30 31" fill="none" xmlns="http://www.w3.org/2000/svg">
<path fill-rule="evenodd" clip-rule="evenodd" d="M7.62256 9.69629H22.3776C22.3776 9.69629 22.2597 17.059 21.204 19.8329C20.2986 21.0114 14.9563 24.6497 14.9563 24.6497C14.9563 24.6497 9.47823 21.0114 8.70848 19.8329C7.71642 17.059 7.62256 9.69629 7.62256 9.69629ZM9.00683 10.9043H9.41873H20.581H20.9943L20.9851 11.3175L20.581 11.3085C20.9851 11.3175 20.9851 11.3175 20.9851 11.3176L20.9851 11.3178L20.9851 11.3187L20.985 11.3219L20.9847 11.3343L20.9835 11.3819C20.9823 11.4236 20.9806 11.4848 20.9781 11.5632C20.9732 11.72 20.9652 11.946 20.9532 12.2235C20.9291 12.7784 20.8887 13.5405 20.8232 14.3688C20.694 16.0038 20.4628 17.9676 20.042 19.0734L20.0209 19.1288L19.9848 19.1758C19.7807 19.4415 19.3637 19.8072 18.8969 20.1838C18.4173 20.5708 17.8455 21.0001 17.2985 21.3991C16.7509 21.7986 16.2252 22.1699 15.8365 22.4412C15.6421 22.5769 15.4818 22.6877 15.37 22.7647L15.2405 22.8536L15.2063 22.877L15.1975 22.883L15.1952 22.8846L15.1947 22.885L15.1945 22.8851L14.9669 22.5511L14.7432 22.8877L14.7431 22.8876L14.7425 22.8872L14.7401 22.8856L14.731 22.8796L14.696 22.8562C14.6653 22.8357 14.6205 22.8057 14.5632 22.7671C14.4487 22.6901 14.2847 22.5792 14.0862 22.4434C13.6893 22.1719 13.1535 21.8003 12.5989 21.4004C12.0452 21.0012 11.4688 20.5709 10.9924 20.1825C10.7543 19.9885 10.5374 19.8019 10.3592 19.6326C10.1864 19.4684 10.0303 19.3024 9.93121 19.1506L9.90511 19.1107L9.88903 19.0657C9.49448 17.9625 9.28016 16.0015 9.16136 14.3662C9.1012 13.5382 9.06455 12.7764 9.04293 12.2217C9.03212 11.9443 9.02506 11.7184 9.02069 11.5617C9.01851 11.4833 9.017 11.4222 9.01604 11.3805L9.01498 11.3329L9.01473 11.3206L9.01466 11.3174L9.01465 11.3165L9.01464 11.3163C9.01464 11.3162 9.01464 11.3161 9.41873 11.3085L9.01464 11.3161L9.00683 10.9043ZM14.9669 22.5511L15.1944 22.8851L14.9698 23.0381L14.7433 22.8877L14.9669 22.5511ZM9.83383 11.7126C9.83797 11.8452 9.84346 12.0062 9.85064 12.1903C9.87201 12.7387 9.90823 13.4911 9.96755 14.3077C10.0857 15.934 10.2918 17.7496 10.6327 18.7437C10.6854 18.814 10.7778 18.9153 10.9159 19.0466C11.0738 19.1965 11.2736 19.369 11.503 19.556C11.9616 19.9297 12.5234 20.3494 13.0717 20.7448C13.6191 21.1395 14.1491 21.5071 14.5425 21.7762C14.7117 21.8919 14.8554 21.9893 14.9642 22.0627C15.0703 21.9895 15.2098 21.8929 15.3738 21.7784C15.7595 21.5092 16.2805 21.1412 16.8221 20.7461C17.3644 20.3505 17.9244 19.9298 18.3893 19.5547C18.83 19.1992 19.1538 18.9091 19.3084 18.727C19.6683 17.7335 19.8892 15.9267 20.0174 14.3051C20.0819 13.4889 20.1218 12.7367 20.1456 12.1885C20.1536 12.0052 20.1597 11.8448 20.1644 11.7126H15.0149L15.6716 15.3829L19.7661 16.394L15.6716 17.4051L14.9997 21.1604L14.3277 17.4051L10.2333 16.394L14.3277 15.3829L14.9845 11.7126H9.83383Z" fill="white" fill-opacity="0.8"/>
</svg>
