<svg width="30" height="31" viewBox="0 0 30 31" fill="none" xmlns="http://www.w3.org/2000/svg">
<path d="M10.5406 15.2893L11.1458 14.739L12.1637 15.2893V16.5822H11.1458L10.5406 15.2893Z" fill="white" fill-opacity="0.8"/>
<path fill-rule="evenodd" clip-rule="evenodd" d="M6.75066 7.92777L8.60655 13.6491L5.0494 15.737L7.67861 16.7423L5.82351 21.7686L9.22597 18.9075H11.0819L13.0143 24.2431L13.6337 18.4435L17.5002 17.9795L15.4896 15.737L18.1188 12.3345L15.1408 13.6491L15.4896 9.55165L11.9317 12.3345L6.75066 7.92777ZM13.4176 13.4713L11.8762 14.5194L10.6431 13.0397L8.91668 15.0744L9.95981 16.5541V17.7098L11.3213 17.294L11.8762 17.9722L13.7876 16.5541L12.9244 15.0744L13.4176 14.5194V13.4713Z" fill="white" fill-opacity="0.8"/>
<path d="M22.1456 11.0125L22.4343 11.1428L22.3957 11.5892L21.9363 11.7883L21.7795 11.4267L22.1456 11.0125Z" fill="white" fill-opacity="0.8"/>
<path fill-rule="evenodd" clip-rule="evenodd" d="M24.1771 8.53216L22.4304 10.0728L21.1407 9.13075L21.1886 10.2197L19.1172 10.3349L20.6578 11.1029L20.9436 11.7622L19.3458 13.2707L21.5016 12.5973L22.262 13.8994L22.749 12.8397L24.3628 13.2496L23.437 12.3942L24.9464 11.8869L23.4097 11.0516L24.1771 8.53216ZM23.2347 11.7546L22.6249 11.3684L22.9606 10.7024L21.9718 10.4025L21.6068 11.001L21.1963 11.1791L21.5537 11.5987L21.3983 11.9003L22.1965 12.3609L22.5892 11.8263L22.8623 11.916L23.2347 11.7546Z" fill="white" fill-opacity="0.8"/>
<path d="M22.3041 20.371L22.2041 20.5578L21.908 20.5117L21.7959 20.1962L22.0443 20.1079L22.3041 20.371Z" fill="white" fill-opacity="0.8"/>
<path fill-rule="evenodd" clip-rule="evenodd" d="M23.8671 21.8392L22.9182 20.6037L23.6054 19.7858L22.8766 19.7684L22.8936 18.3809L22.3113 19.3741L21.8583 19.535L20.9242 18.4003L21.2758 19.8694L20.3723 20.3178L21.0574 20.6908L20.7107 21.7491L21.3235 21.1701L21.5936 22.2004L22.2207 21.2128L23.8671 21.8392ZM21.7596 21.0641L22.0449 20.6747L22.4741 20.9289L22.7191 20.2827L22.3362 20.012L22.236 19.7299L21.9398 19.9494L21.7456 19.832L21.402 20.3438L21.741 20.6301L21.6687 20.8083L21.7596 21.0641Z" fill="white" fill-opacity="0.8"/>
<path d="M15.2181 8.77839L15.4888 7.85041L14.0582 9.43567L15.2181 8.77839Z" fill="white" fill-opacity="0.8"/>
<path d="M24.9692 18.7413L25.1294 18.3792L24.2823 18.9978L24.9692 18.7413Z" fill="white" fill-opacity="0.8"/>
<path d="M5.56661 6.33765L4.87061 6.0332C4.87061 6.3812 5.94355 7.91807 6.48002 8.64301L5.56661 6.33765Z" fill="white" fill-opacity="0.8"/>
<path d="M18.7383 17.1743L17.9125 17.5973L19.6784 17.8223L18.7383 17.1743Z" fill="white" fill-opacity="0.8"/>
</svg>
