<svg width="40" height="40" viewBox="0 0 40 40" fill="none" xmlns="http://www.w3.org/2000/svg">
<g clip-path="url(#clip0_5957_45810)">
<path d="M9.71219 4.32242L0.585938 0.585938L4.32242 9.71219C5.09438 11.5977 6.31463 13.2664 7.87734 14.5736L27.1667 30.7094L29.8237 29.8237L30.7094 27.1667L20.0908 14.4727L18.5559 14.1821L18.025 12.0031L14.5737 7.87719C13.2663 6.31458 11.5976 5.0944 9.71219 4.32242Z" fill="#FFE09C"/>
<path d="M1.58453 3.02492L9.00016 6.06078C10.597 6.71453 12.0259 7.75977 13.1326 9.08258L26.6379 25.2271L25.3954 25.3953L24.9295 28.8378L27.1667 30.7093L30.7094 27.1666L14.5736 7.87734C13.2664 6.31464 11.5977 5.09439 9.71219 4.32242L0.585938 0.585938L1.58453 3.02492Z" fill="#FFD18D"/>
<path d="M26.6379 25.2268L26.6371 25.2269L27.4295 26.1741C27.849 26.6756 27.8166 27.4021 27.3549 27.8639L25.7197 29.4985L27.1667 30.7089L30.7093 27.1662L28.8377 24.9287L26.6379 25.2268Z" fill="#FBBD80"/>
<path d="M36.9088 39.4143C38.2923 39.4143 39.4138 38.2928 39.4138 36.9093C39.4138 35.5258 38.2923 34.4043 36.9088 34.4043C35.5253 34.4043 34.4038 35.5258 34.4038 36.9093C34.4038 38.2928 35.5253 39.4143 36.9088 39.4143Z" fill="#FFE077"/>
<path d="M35.1376 35.1381C34.9059 35.3697 34.7333 35.6372 34.6113 35.921C35.5255 35.5281 36.6245 35.7007 37.371 36.4472C38.1175 37.1937 38.2901 38.2927 37.8973 39.2069C38.1811 39.0849 38.4485 38.9124 38.6802 38.6806C39.6585 37.7024 39.6585 36.1163 38.6802 35.1381C37.702 34.1597 36.1159 34.1597 35.1376 35.1381Z" fill="#FFD05B"/>
<path d="M28.9375 31.5947L31.5945 28.9377L37.3514 34.6944L34.6944 37.3515L28.9375 31.5947Z" fill="#D48C64"/>
<path d="M30.2661 30.2656L31.5946 28.9371L37.3515 34.6938L36.023 36.0223L30.2661 30.2656Z" fill="#C6805D"/>
<path d="M34.2521 27.1665L27.1667 34.2518C26.6776 34.741 25.8846 34.741 25.3954 34.2518C24.9063 33.7627 24.9063 32.9696 25.3954 32.4805L32.4807 25.3952C32.9699 24.906 33.7629 24.906 34.2521 25.3952C34.7412 25.8843 34.7412 26.6774 34.2521 27.1665Z" fill="#FFE077"/>
<path d="M32.4806 25.3952L30.6614 27.2144C31.1506 26.7252 31.9436 26.7253 32.4328 27.2145C32.9219 27.7036 32.9219 28.4967 32.4328 28.9858L27.1665 34.252L27.1667 34.2518L34.252 27.1665C34.7411 26.6774 34.7411 25.8843 34.252 25.3952C33.7628 24.906 32.9698 24.906 32.4806 25.3952Z" fill="#FFD05B"/>
<path d="M35.6777 9.71219L39.4142 0.585938L30.288 4.32242C28.4025 5.09438 26.7338 6.31463 25.4266 7.87734L9.29077 27.1667L10.1765 29.8237L12.8335 30.7094L32.1229 14.5736C33.6856 13.2664 34.9058 11.5977 35.6777 9.71219Z" fill="#ECEAEC"/>
<path d="M36.9751 1.58453L33.9393 9.00016C33.2855 10.597 32.2403 12.0259 30.9175 13.1326L14.773 26.6379L14.6048 25.3954L11.1623 24.9295L9.29077 27.1667L12.8335 30.7094L32.1229 14.5736C33.6856 13.2664 34.9058 11.5977 35.6778 9.71219L39.4141 0.585938L36.9751 1.58453Z" fill="#DBD8DB"/>
<path d="M14.773 26.6379L14.7728 26.6371L13.8256 27.4295C13.3241 27.849 12.5976 27.8166 12.1359 27.3549L10.5012 25.7197L9.29077 27.1667L12.8335 30.7093L15.071 28.8377L14.773 26.6379Z" fill="#C9C5C9"/>
<path d="M3.09094 39.4143C4.47441 39.4143 5.59594 38.2928 5.59594 36.9093C5.59594 35.5258 4.47441 34.4043 3.09094 34.4043C1.70746 34.4043 0.585938 35.5258 0.585938 36.9093C0.585938 38.2928 1.70746 39.4143 3.09094 39.4143Z" fill="#FFE077"/>
<path d="M4.86229 35.1376C4.63064 34.9059 4.36314 34.7333 4.07932 34.6113C4.47229 35.5255 4.29963 36.6245 3.55314 37.371C2.80666 38.1175 1.70768 38.2901 0.793457 37.8973C0.91541 38.1811 1.08791 38.4485 1.31971 38.6802C2.29791 39.6585 3.88408 39.6585 4.86229 38.6802C5.84057 37.702 5.84057 36.1159 4.86229 35.1376Z" fill="#FFD05B"/>
<path d="M8.40527 28.9375L11.0622 31.5946L5.30529 37.3513L2.64833 34.6942L8.40527 28.9375Z" fill="#D48C64"/>
<path d="M3.97705 36.0225L9.73374 30.2656L11.0622 31.594L5.30555 37.3509L3.97705 36.0225Z" fill="#C6805D"/>
<path d="M12.8335 34.2518L5.7482 27.1665C5.25906 26.6774 5.25906 25.8843 5.7482 25.3952C6.23734 24.906 7.03039 24.906 7.51953 25.3952L14.6048 32.4805C15.094 32.9696 15.094 33.7627 14.6048 34.2518C14.1157 34.741 13.3226 34.741 12.8335 34.2518Z" fill="#FFE077"/>
<path d="M14.6048 32.4811L12.7856 30.6619C13.2748 31.1511 13.2748 31.9441 12.7855 32.4332C12.2964 32.9224 11.5034 32.9224 11.0142 32.4332L5.74805 27.167L5.7482 27.1671L12.8335 34.2525C13.3227 34.7416 14.1157 34.7416 14.6048 34.2525C15.094 33.7633 15.094 32.9703 14.6048 32.4811Z" fill="#FFD05B"/>
<path d="M12.8334 30.7094L32.1229 14.5736C33.6856 13.2664 34.9058 11.5977 35.6778 9.71219L39.4142 0.585938L30.288 4.32234C28.4025 5.09429 26.7338 6.31453 25.4266 7.87727L9.29077 27.1667" stroke="black" stroke-width="0.8" stroke-miterlimit="10" stroke-linecap="round" stroke-linejoin="round"/>
<path d="M12.8333 34.2518L5.74796 27.1665C5.25882 26.6774 5.25882 25.8843 5.74796 25.3952C6.2371 24.906 7.03015 24.906 7.51929 25.3952L14.6046 32.4805C15.0937 32.9696 15.0937 33.7627 14.6046 34.2518C14.1155 34.741 13.3224 34.741 12.8333 34.2518Z" stroke="black" stroke-width="0.8" stroke-miterlimit="10" stroke-linecap="round" stroke-linejoin="round"/>
<path d="M7.9624 29.3809L10.6194 32.0379L5.30525 37.3518L2.64829 34.6948L7.9624 29.3809Z" stroke="black" stroke-width="0.8" stroke-miterlimit="10" stroke-linecap="round" stroke-linejoin="round"/>
<path d="M2.92293 34.4201C2.33918 34.4592 1.76582 34.6915 1.31965 35.1377C0.341367 36.1159 0.341367 37.702 1.31965 38.6803C2.29793 39.6586 3.88402 39.6586 4.8623 38.6803C5.30848 38.2341 5.54074 37.6608 5.57988 37.077M30.9596 9.04047L14.6046 25.3954M14.6046 25.3954L11.1399 24.9265M14.6046 25.3954L15.0736 28.8602M6.19082 31.1522L8.84785 33.8092M4.41949 32.9235L7.07652 35.5805M25.2077 20.5898L30.7094 27.1667M14.7989 20.3636L7.8773 14.5736C6.31459 13.2664 5.09434 11.5977 4.32238 9.71219L0.585977 0.585938L9.71223 4.32234C11.5977 5.09429 13.2664 6.31453 14.5736 7.87727L18.3409 12.3809M27.1668 30.7094L20.1289 24.8221M28.0244 29.8516L25.3954 32.4806C24.9063 32.9698 24.9063 33.7628 25.3954 34.252C25.8846 34.7411 26.6776 34.7411 27.1668 34.252L34.2521 27.1666C34.7412 26.6775 34.7412 25.8845 34.2521 25.3953C33.7629 24.9062 32.9699 24.9062 32.4807 25.3953L29.746 28.1301" stroke="black" stroke-width="0.8" stroke-miterlimit="10" stroke-linecap="round" stroke-linejoin="round"/>
<path d="M37.3521 34.6943L34.6951 37.3514L29.381 32.0375L32.0379 29.3804L37.3521 34.6943Z" stroke="black" stroke-width="0.8" stroke-miterlimit="10" stroke-linecap="round" stroke-linejoin="round"/>
<path d="M37.0772 34.4196C37.6609 34.4588 38.2343 34.6911 38.6804 35.1372C39.6587 36.1155 39.6587 37.7016 38.6804 38.6799C37.7022 39.6582 36.1161 39.6582 35.1378 38.6799C34.6916 38.2337 34.4594 37.6604 34.4202 37.0766M22.7476 22.7471L25.3954 25.395M25.3954 25.395L28.8602 24.9261M25.3954 25.395L24.9265 28.8597M9.04053 9.04004L17.3408 17.3403M33.8093 31.1518L31.1522 33.8088M35.5806 32.9231L32.9236 35.5801" stroke="black" stroke-width="0.8" stroke-miterlimit="10" stroke-linecap="round" stroke-linejoin="round"/>
</g>
<defs>
<clipPath id="clip0_5957_45810">
<rect width="40" height="40" fill="white"/>
</clipPath>
</defs>
</svg>
