<svg width="18" height="18" viewBox="0 0 18 18" fill="none" xmlns="http://www.w3.org/2000/svg">
<mask id="path-1-outside-1_5957_41852" maskUnits="userSpaceOnUse" x="0.046875" y="0" width="18" height="18" fill="black">
<rect fill="white" x="0.046875" width="18" height="18"/>
<path fill-rule="evenodd" clip-rule="evenodd" d="M13.8905 2.68778C12.8986 1.79093 11.6145 1.19531 10.1346 1.03976C9.85184 1.01008 9.56941 0.997255 9.28832 1.00049C5.528 1.03227 2.00309 3.94129 1.19386 7.83871C1.12462 8.16907 1.07661 8.50353 1.05011 8.84003C1.04908 8.8543 1.05176 8.8686 1.05788 8.88153C1.06036 8.88678 1.06338 8.89173 1.06687 8.89631C0.877033 11.5294 2.0515 13.8758 4.0612 15.1683C3.87685 15.0503 3.69818 14.9224 3.52608 14.7847C3.44102 14.7188 3.35728 14.647 3.27617 14.5751C3.37759 14.6649 3.47841 14.7557 3.57928 14.8466L3.57929 14.8466C4.04837 15.2691 4.51873 15.6928 5.05653 16.0253C5.27732 16.1597 5.50554 16.2806 5.73992 16.3877C6.14613 16.5762 6.57253 16.7217 7.01226 16.8208C8.53348 17.1702 10.1463 16.9968 11.5878 16.4029C12.059 16.2075 12.5119 15.9704 12.9409 15.6943C12.9459 15.691 12.9505 15.6872 12.9547 15.683C13.8259 15.1238 14.5951 14.413 15.2237 13.5804C16.1024 12.4243 16.6722 11.0636 16.8794 9.62653C17.097 8.06556 16.8372 6.43471 16.0486 5.06161C15.7935 4.61539 15.4868 4.20076 15.1347 3.82628C14.8495 3.5242 14.534 3.24976 14.2192 2.97596L14.2191 2.9759L14.2191 2.97586C14.109 2.88014 13.9991 2.7845 13.8905 2.68778ZM15.8559 9.61722C15.7004 10.2706 15.4684 10.8945 15.172 11.4797L15.1762 11.4716C15.7114 10.4323 16.0236 9.25739 16.07 8.0833C16.0527 8.50924 15.9995 8.94342 15.9082 9.38253C15.8919 9.46116 15.8744 9.5394 15.8559 9.61722Z"/>
</mask>
<path fill-rule="evenodd" clip-rule="evenodd" d="M13.8905 2.68778C12.8986 1.79093 11.6145 1.19531 10.1346 1.03976C9.85184 1.01008 9.56941 0.997255 9.28832 1.00049C5.528 1.03227 2.00309 3.94129 1.19386 7.83871C1.12462 8.16907 1.07661 8.50353 1.05011 8.84003C1.04908 8.8543 1.05176 8.8686 1.05788 8.88153C1.06036 8.88678 1.06338 8.89173 1.06687 8.89631C0.877033 11.5294 2.0515 13.8758 4.0612 15.1683C3.87685 15.0503 3.69818 14.9224 3.52608 14.7847C3.44102 14.7188 3.35728 14.647 3.27617 14.5751C3.37759 14.6649 3.47841 14.7557 3.57928 14.8466L3.57929 14.8466C4.04837 15.2691 4.51873 15.6928 5.05653 16.0253C5.27732 16.1597 5.50554 16.2806 5.73992 16.3877C6.14613 16.5762 6.57253 16.7217 7.01226 16.8208C8.53348 17.1702 10.1463 16.9968 11.5878 16.4029C12.059 16.2075 12.5119 15.9704 12.9409 15.6943C12.9459 15.691 12.9505 15.6872 12.9547 15.683C13.8259 15.1238 14.5951 14.413 15.2237 13.5804C16.1024 12.4243 16.6722 11.0636 16.8794 9.62653C17.097 8.06556 16.8372 6.43471 16.0486 5.06161C15.7935 4.61539 15.4868 4.20076 15.1347 3.82628C14.8495 3.5242 14.534 3.24976 14.2192 2.97596L14.2191 2.9759L14.2191 2.97586C14.109 2.88014 13.9991 2.7845 13.8905 2.68778ZM15.8559 9.61722C15.7004 10.2706 15.4684 10.8945 15.172 11.4797L15.1762 11.4716C15.7114 10.4323 16.0236 9.25739 16.07 8.0833C16.0527 8.50924 15.9995 8.94342 15.9082 9.38253C15.8919 9.46116 15.8744 9.5394 15.8559 9.61722Z" fill="#E99855"/>
<path d="M10.1346 1.03976L10.1825 0.583669L10.1824 0.583662L10.1346 1.03976ZM13.8905 2.68778L13.583 3.02798L13.5854 3.03017L13.8905 2.68778ZM9.28832 1.00049L9.2922 1.45907L9.29359 1.45906L9.28832 1.00049ZM1.19386 7.83871L1.64271 7.93278L1.64289 7.93194L1.19386 7.83871ZM1.05011 8.84003L0.592918 8.80402L0.592703 8.807L1.05011 8.84003ZM1.05788 8.88153L0.643373 9.07774L0.643379 9.07775L1.05788 8.88153ZM1.06687 8.89631L1.52428 8.92929L1.53674 8.75642L1.43176 8.61852L1.06687 8.89631ZM4.0612 15.1683L3.8139 15.5545L4.30927 14.7826L4.0612 15.1683ZM3.52608 14.7847L3.8126 14.4266L3.807 14.4222L3.52608 14.7847ZM3.27617 14.5751L3.58026 14.2318L2.97207 14.9184L3.27617 14.5751ZM3.57928 14.8466L3.90356 14.5223L3.8951 14.5139L3.8862 14.5058L3.57928 14.8466ZM3.57929 14.8466L3.25501 15.1709L3.26347 15.1794L3.27237 15.1874L3.57929 14.8466ZM5.05653 16.0253L4.81533 16.4154L4.81816 16.4171L5.05653 16.0253ZM5.73992 16.3877L5.93296 15.9717L5.93046 15.9705L5.73992 16.3877ZM7.01226 16.8208L7.11491 16.3739L7.11314 16.3735L7.01226 16.8208ZM11.5878 16.4029L11.7625 16.8269L11.7634 16.8265L11.5878 16.4029ZM12.9409 15.6943L13.189 16.0799L13.1901 16.0792L12.9409 15.6943ZM12.9547 15.683L12.707 15.2971L12.6638 15.3248L12.6278 15.3613L12.9547 15.683ZM15.2237 13.5804L14.8586 13.3029L14.8577 13.304L15.2237 13.5804ZM16.8794 9.62653L17.3333 9.69199L17.3336 9.68985L16.8794 9.62653ZM16.0486 5.06161L15.6505 5.2892L15.6509 5.29001L16.0486 5.06161ZM15.1347 3.82628L15.4688 3.51214L15.4681 3.51145L15.1347 3.82628ZM14.2192 2.97596L14.5202 2.62993L14.517 2.62725L14.2192 2.97596ZM14.2191 2.9759L13.9128 3.31738L13.9213 3.32461L14.2191 2.9759ZM14.2191 2.97586L14.5253 2.63445L14.5201 2.62984L14.2191 2.97586ZM15.172 11.4797L14.7629 11.2725L15.5796 11.6901L15.172 11.4797ZM15.8559 9.61722L15.4098 9.51096L15.4097 9.51105L15.8559 9.61722ZM15.1762 11.4716L15.5837 11.682L15.5839 11.6816L15.1762 11.4716ZM16.07 8.0833L16.5283 8.10144L15.6118 8.0646L16.07 8.0833ZM15.9082 9.38253L16.3572 9.47585L16.3572 9.47585L15.9082 9.38253ZM10.0866 1.49585C11.4706 1.64131 12.6636 2.19674 13.583 3.02797L14.1981 2.3476C13.1335 1.38513 11.7584 0.749303 10.1825 0.583669L10.0866 1.49585ZM9.29359 1.45906C9.55718 1.45603 9.82187 1.46806 10.0867 1.49585L10.1824 0.583662C9.88181 0.552108 9.58163 0.538483 9.28305 0.541916L9.29359 1.45906ZM1.64289 7.93194C2.40995 4.23758 5.75613 1.48896 9.2922 1.45907L9.28444 0.541902C5.29986 0.575585 1.59623 3.64499 0.744837 7.74548L1.64289 7.93194ZM1.5073 8.87603C1.53226 8.55904 1.57749 8.24398 1.64271 7.93278L0.745011 7.74464C0.67176 8.09416 0.620961 8.44801 0.592928 8.80403L1.5073 8.87603ZM1.47239 8.68533C1.50008 8.74382 1.51219 8.80848 1.50752 8.87305L0.592703 8.807C0.585981 8.90012 0.603439 8.99337 0.643373 9.07774L1.47239 8.68533ZM1.43176 8.61852C1.44753 8.63923 1.46116 8.66161 1.47239 8.68531L0.643379 9.07775C0.659567 9.11195 0.679231 9.14422 0.701973 9.1741L1.43176 8.61852ZM4.30927 14.7826C2.44845 13.5859 1.34583 11.4044 1.52428 8.92929L0.609454 8.86333C0.408232 11.6544 1.65455 14.1658 3.81314 15.554L4.30927 14.7826ZM3.2396 15.1428C3.42443 15.2907 3.61621 15.4279 3.8139 15.5545L4.3085 14.7821C4.1375 14.6726 3.97192 14.5541 3.81257 14.4266L3.2396 15.1428ZM2.97207 14.9184C3.05621 14.9929 3.14853 15.0723 3.24516 15.1472L3.807 14.4222C3.73351 14.3653 3.65835 14.301 3.58028 14.2318L2.97207 14.9184ZM3.8862 14.5058C3.78556 14.4152 3.68334 14.3231 3.58026 14.2318L2.97208 14.9184C3.07184 15.0068 3.17125 15.0963 3.27236 15.1874L3.8862 14.5058ZM3.90357 14.5223L3.90356 14.5223L3.255 15.1709L3.25501 15.1709L3.90357 14.5223ZM5.29773 15.6353C4.80086 15.328 4.36052 14.9331 3.88621 14.5059L3.27237 15.1874C3.73622 15.6052 4.2366 16.0575 4.81533 16.4154L5.29773 15.6353ZM5.93046 15.9705C5.71248 15.871 5.50024 15.7585 5.2949 15.6336L4.81816 16.4171C5.05441 16.5609 5.29859 16.6903 5.54938 16.8048L5.93046 15.9705ZM7.11314 16.3735C6.70526 16.2815 6.30975 16.1465 5.93296 15.9717L5.54688 16.8037C5.98252 17.0058 6.4398 17.1619 6.91138 17.2682L7.11314 16.3735ZM11.4131 15.9789C10.0518 16.5398 8.53574 16.7002 7.11491 16.3739L6.90961 17.2678C8.53122 17.6402 10.2409 17.4539 11.7625 16.8269L11.4131 15.9789ZM12.6927 15.3086C12.2867 15.5699 11.8581 15.7944 11.4121 15.9793L11.7634 16.8265C12.26 16.6207 12.7371 16.3708 13.189 16.0799L12.6927 15.3086ZM12.6278 15.3613C12.647 15.3418 12.6684 15.3243 12.6916 15.3093L13.1901 16.0792C13.2234 16.0577 13.254 16.0326 13.2815 16.0047L12.6278 15.3613ZM14.8577 13.304C14.2619 14.0932 13.5328 14.767 12.707 15.2971L13.2024 16.0689C14.119 15.4806 14.9283 14.7327 15.5897 13.8567L14.8577 13.304ZM16.4255 9.56108C16.2294 10.9211 15.6902 12.2088 14.8586 13.3029L15.5888 13.8579C16.5146 12.6398 17.115 11.2062 17.3333 9.69199L16.4255 9.56108ZM15.6509 5.29001C16.3835 6.56546 16.6303 8.09179 16.4252 9.56322L17.3336 9.68985C17.5637 8.03932 17.291 6.30396 16.4463 4.8332L15.6509 5.29001ZM14.8006 4.14042C15.128 4.48866 15.4133 4.87425 15.6505 5.2892L16.4467 4.83402C16.1738 4.35654 15.8456 3.91285 15.4688 3.51214L14.8006 4.14042ZM13.9182 3.32198C14.2359 3.59832 14.5341 3.85818 14.8012 4.14111L15.4681 3.51145C15.1649 3.19022 14.832 2.90119 14.5202 2.62994L13.9182 3.32198ZM13.9213 3.32461L13.9213 3.32467L14.517 2.62725L14.517 2.6272L13.9213 3.32461ZM13.9128 3.31723L13.9129 3.31728L14.5254 2.63453L14.5253 2.63449L13.9128 3.31723ZM13.5854 3.03017C13.6964 3.12902 13.8084 3.22646 13.9181 3.32188L14.5201 2.62984C14.4097 2.53382 14.3018 2.43998 14.1956 2.3454L13.5854 3.03017ZM15.5812 11.6869C15.8933 11.0705 16.138 10.4128 16.302 9.72339L15.4097 9.51105C15.2628 10.1284 15.0435 10.7184 14.7629 11.2725L15.5812 11.6869ZM14.7687 11.2613L14.7645 11.2694L15.5796 11.6901L15.5837 11.682L14.7687 11.2613ZM15.6118 8.06517C15.568 9.17188 15.2733 10.2814 14.7685 11.2617L15.5839 11.6816C16.1496 10.5832 16.4791 9.34289 16.5283 8.10144L15.6118 8.06517ZM16.3572 9.47585C16.4535 9.0125 16.5098 8.55336 16.5283 8.102L15.6118 8.0646C15.5955 8.46513 15.5454 8.87435 15.4592 9.2892L16.3572 9.47585ZM16.302 9.72348C16.3216 9.64137 16.34 9.55883 16.3572 9.47585L15.4592 9.2892C15.4438 9.3635 15.4273 9.43743 15.4098 9.51096L16.302 9.72348Z" fill="#4C6042" mask="url(#path-1-outside-1_5957_41852)"/>
<path d="M16.8794 9.62701C17.097 8.06604 16.8372 6.43519 16.0485 5.06209C15.7935 4.61588 15.4867 4.20124 15.1346 3.82676C14.7357 3.40422 14.2774 3.03573 13.8449 2.64746C15.0436 3.7114 15.7967 5.2058 16.0103 6.78786C16.2239 8.36993 15.9094 10.0482 15.1762 11.4721C14.4496 12.892 13.3569 14.0922 12.0111 14.9487C10.6725 15.7944 9.10977 16.2625 7.51931 16.2183C6.07524 16.1728 4.65821 15.6909 3.52603 14.7852C3.44097 14.7193 3.35723 14.6474 3.27612 14.5756C3.84913 15.0832 4.40302 15.6217 5.05648 16.0258C5.65975 16.3929 6.31841 16.66 7.00696 16.8168C8.52818 17.1695 10.1437 16.9962 11.5825 16.4022C13.0253 15.8017 14.2821 14.8279 15.2236 13.5809C16.1023 12.4248 16.6721 11.0641 16.8794 9.62701Z" fill="url(#paint0_linear_5957_41852)"/>
<path opacity="0.5" d="M11.5878 16.4029C12.059 16.2075 12.5119 15.9703 12.9409 15.6943C12.959 15.6825 12.9718 15.664 12.9763 15.6429C12.9809 15.6218 12.9769 15.5997 12.9653 15.5815L12.956 15.5697L12.5202 15.1069C12.507 15.0932 12.4894 15.0846 12.4704 15.0825C12.4515 15.0805 12.4325 15.0851 12.4166 15.0957L12.2742 15.1886C10.9086 16.0509 9.31156 16.5281 7.69209 16.4833C6.54435 16.4512 5.4222 16.137 4.4248 15.5683C5.17979 16.1787 6.06511 16.6072 7.01226 16.8208C8.53348 17.1702 10.1464 16.9968 11.5878 16.4029Z" fill="url(#paint1_linear_5957_41852)" fill-opacity="0.5"/>
<path d="M10.1345 1.03976C14.1924 1.46626 16.7772 5.20125 15.9081 9.38253C15.039 13.5638 11.0464 16.608 6.9885 16.1815C2.9306 15.755 0.346445 12.02 1.21486 7.83869C2.08328 3.65742 6.07722 0.613918 10.1345 1.03976Z" fill="url(#paint2_linear_5957_41852)"/>
<path style="mix-blend-mode:overlay" opacity="0.61" d="M10.0805 1.21552C6.16436 0.802203 2.30955 3.74155 1.47146 7.77714C1.41075 8.06729 1.36672 8.36067 1.33958 8.65585C1.33849 8.67034 1.34135 8.68486 1.34785 8.69786C1.35435 8.71086 1.36426 8.72186 1.37651 8.72968C3.0118 9.89909 4.98207 10.6684 7.19169 10.9004C10.153 11.2115 13.0952 10.5102 15.6622 9.06916C15.6731 9.06322 15.6824 9.05493 15.6896 9.04489C15.6968 9.03484 15.7016 9.02332 15.7038 9.01115C16.3843 5.07972 13.9135 1.61829 10.0805 1.21552Z" fill="url(#paint3_linear_5957_41852)"/>
<path opacity="0.5" d="M7.60645 15.8222C3.98968 15.4418 1.35277 12.2902 2.16778 8.38316C2.98279 4.47611 6.71759 1.62509 10.5104 2.02391C13.0273 2.28759 14.7193 4.01929 15.3899 6.19727C15.3963 6.21713 15.4102 6.23375 15.4285 6.24367C15.4469 6.25359 15.4684 6.25605 15.4885 6.25053C15.5087 6.24501 15.5259 6.23194 15.5366 6.21403C15.5474 6.19613 15.5508 6.17478 15.5462 6.15442C14.96 3.49259 12.8427 1.46161 9.95652 1.15839C6.02391 0.741774 2.15591 3.68969 1.31849 7.73913C0.481057 11.7886 2.97752 15.4062 6.90684 15.8189C7.26048 15.8565 7.61651 15.8669 7.97175 15.8499C7.85043 15.8439 7.72844 15.8354 7.60645 15.8222Z" fill="#94512A"/>
<path d="M9.54708 1.85678C9.77592 1.85677 10.0046 1.86865 10.2322 1.89237C11.9268 2.07036 13.392 2.89962 14.362 4.22988C14.869 4.92725 15.2198 5.72562 15.3906 6.57068C15.5772 7.49339 15.5713 8.44465 15.3735 9.365C14.9978 11.1165 14.0423 12.6902 12.6614 13.8317C11.2852 14.978 9.60973 15.6115 7.94344 15.6115C7.71439 15.6116 7.48549 15.5997 7.25767 15.5759C5.56501 15.398 4.09853 14.568 3.12856 13.2404C2.62125 12.5405 2.27105 11.7393 2.10189 10.8917C1.91595 9.96913 1.92201 9.01816 2.11969 8.09803C2.49433 6.34673 3.44865 4.77285 4.82847 3.63067C6.20462 2.48433 7.88014 1.85084 9.54708 1.85084M9.54708 1.19824C5.80437 1.20088 2.28322 4.08881 1.4781 7.96488C0.620892 12.1007 3.17604 15.4639 7.1891 15.8858C7.43968 15.9121 7.69147 15.9253 7.94344 15.9253C11.6868 15.9253 14.9046 13.1527 15.7098 9.27667C16.567 5.14023 14.3145 1.66166 10.3027 1.23977C10.0521 1.21396 9.80035 1.20098 9.5484 1.20088L9.54708 1.19824Z" fill="#E99855"/>
<path d="M9.37292 1.65919C9.60419 1.65908 9.8353 1.67118 10.0653 1.69545C11.7764 1.87475 13.2594 2.71391 14.2399 4.05603C14.7525 4.76114 15.1073 5.56823 15.2804 6.42253C15.4684 7.35555 15.4624 8.31727 15.2626 9.24784C14.8824 11.0188 13.9163 12.6101 12.5202 13.7646C11.1289 14.9235 9.43491 15.5616 7.75016 15.5616C7.51845 15.5621 7.28688 15.55 7.05648 15.5254C5.34536 15.3454 3.86304 14.5069 2.88253 13.1641C2.36959 12.4592 2.01469 11.652 1.84201 10.7976C1.65335 9.86488 1.65941 8.90324 1.85981 7.97296C2.23967 6.20201 3.20587 4.61088 4.60222 3.45682C5.99222 2.29795 7.68752 1.65919 9.37226 1.65919M9.37226 1C5.58801 1 2.02861 3.91957 1.21492 7.83848C0.346504 12.0198 2.92934 15.7554 6.98856 16.1813C7.24197 16.2082 7.49664 16.2216 7.75148 16.2215C11.5351 16.2215 15.0945 13.3012 15.9082 9.38232C16.7772 5.20105 14.1924 1.46605 10.1345 1.03955C9.88129 1.01319 9.62686 0.999993 9.37226 1Z" fill="url(#paint4_linear_5957_41852)"/>
<path d="M6.71764 4.80879H6.70906C6.69098 4.80625 6.67257 4.80989 6.65682 4.81912C6.64106 4.82834 6.62888 4.84261 6.62225 4.85961C6.61561 4.87662 6.61491 4.89537 6.62025 4.91282C6.6256 4.93027 6.63668 4.94541 6.6517 4.95579L6.66093 4.96106C6.67677 4.96974 6.68929 4.98341 6.69654 4.99995L6.74269 5.10543C6.74979 5.1216 6.75141 5.13966 6.74731 5.15684C6.74229 5.17622 6.74463 5.19677 6.75386 5.21453C6.76309 5.23229 6.77857 5.24602 6.79732 5.25305C6.81606 5.26009 6.83675 5.25995 6.85539 5.25265C6.87404 5.24535 6.88932 5.23142 6.89831 5.21353C6.90674 5.19774 6.9202 5.18522 6.93655 5.17794L7.03876 5.13113C7.05564 5.12402 7.07433 5.1224 7.09217 5.12652H7.10074C7.11109 5.12896 7.12182 5.12932 7.13232 5.12758C7.14281 5.12585 7.15285 5.12205 7.16186 5.11641C7.17088 5.11077 7.17868 5.1034 7.18483 5.09473C7.19098 5.08605 7.19534 5.07625 7.19767 5.06587C7.20156 5.04883 7.19988 5.03099 7.19288 5.01498C7.18587 4.99896 7.17392 4.98561 7.15877 4.97688L7.14954 4.97161C7.1337 4.96293 7.12118 4.94926 7.11393 4.93272L7.06777 4.82725C7.06067 4.81107 7.05905 4.79301 7.06316 4.77583C7.06522 4.75781 7.06117 4.73962 7.05167 4.72417C7.04217 4.70872 7.02777 4.6969 7.01076 4.6906C6.99375 4.6843 6.97511 4.68388 6.95784 4.68941C6.94056 4.69494 6.92564 4.70611 6.91545 4.72112C6.90727 4.73725 6.89376 4.75006 6.87721 4.75737L6.775 4.80417C6.75707 4.81261 6.73669 4.81425 6.71764 4.80879Z" fill="white"/>
<path opacity="0.7" d="M10.1127 1.04021C9.85949 1.01363 9.60506 1.00021 9.35045 1C5.56686 1 2.00746 3.91957 1.19377 7.83849C1.12453 8.16885 1.07652 8.50331 1.05002 8.8398C1.04899 8.85408 1.05167 8.86837 1.05779 8.88131C1.06391 8.89424 1.07327 8.90538 1.08497 8.91363C1.24322 9.02306 1.40411 9.12897 1.56764 9.23136C1.57966 9.23894 1.59347 9.24319 1.60767 9.2437C1.62186 9.2442 1.63594 9.24094 1.64847 9.23424C1.66099 9.22755 1.67152 9.21765 1.67899 9.20557C1.68645 9.19348 1.69058 9.17964 1.69095 9.16544C1.70725 8.7646 1.75643 8.36576 1.83799 7.97296C2.21813 6.20196 3.18455 4.61085 4.58107 3.45682C5.97172 2.29795 7.66636 1.65919 9.35111 1.65919C9.58259 1.65908 9.81392 1.67118 10.0441 1.69545C11.7585 1.87541 13.2382 2.71391 14.2187 4.05669C14.7311 4.76184 15.0858 5.56893 15.2586 6.42319C15.4473 7.35593 15.4412 8.31756 15.2408 9.24784C15.2362 9.27026 15.2316 9.29267 15.2263 9.31376C15.224 9.32451 15.2239 9.33562 15.226 9.34641C15.2281 9.3572 15.2324 9.36745 15.2385 9.37656C15.2447 9.38567 15.2526 9.39344 15.2618 9.39941C15.2711 9.40539 15.2814 9.40944 15.2922 9.41132C15.3106 9.41522 15.3297 9.41266 15.3463 9.40407C15.5375 9.30387 15.7268 9.19994 15.914 9.09227C15.9246 9.08619 15.9337 9.07782 15.9407 9.06779C15.9476 9.05776 15.9523 9.04631 15.9543 9.03426C16.6084 4.99604 14.0585 1.45419 10.1127 1.04021Z" fill="url(#paint5_linear_5957_41852)"/>
<path d="M12.0922 6.82548C12.0922 6.86437 12.0573 6.88415 11.9861 6.88415C11.7223 6.88415 11.3192 6.86108 10.7767 6.81493C10.2343 6.76879 9.8294 6.74682 9.56213 6.74901C9.22188 6.74901 9.02406 6.76154 8.96867 6.78659C8.8368 6.84635 8.77086 7.01643 8.77086 7.2968C8.77086 7.63299 8.85592 7.82416 9.02604 7.8703C9.13282 7.89151 9.24165 7.90058 9.35046 7.89733C9.59532 7.89733 9.96128 7.88393 10.4484 7.85712C10.9354 7.83031 11.3014 7.81713 11.5462 7.81757C11.6627 7.81757 11.7212 8.12937 11.7216 8.75297C11.7216 9.29482 11.7021 9.61014 11.663 9.69891C11.6532 9.72851 11.6338 9.754 11.6079 9.77132C11.5819 9.78864 11.551 9.7968 11.5199 9.79449C11.5638 9.79449 11.4522 9.78219 11.1849 9.75758C10.8046 9.72022 10.2299 9.70155 9.46058 9.70155C9.21265 9.70155 9.07286 9.7033 9.04121 9.70682C8.86009 9.73539 8.76954 9.81163 8.76954 9.93556C8.76954 10.4383 8.79152 11.0175 8.83548 11.6732C8.87108 12.2652 8.88889 12.5288 8.88889 12.4642C8.88889 12.5565 8.77679 12.6099 8.55392 12.6238C8.61414 12.6202 8.45633 12.6185 8.08047 12.6185C7.41756 12.6185 6.9905 12.5954 6.79927 12.5493C6.69641 12.5249 6.64498 12.4695 6.64498 12.3845C6.64498 11.9916 6.65838 11.401 6.6852 10.6126C6.71201 9.82416 6.7252 9.2333 6.72476 8.83998C6.72476 8.37195 6.70278 7.78373 6.65882 7.07532C6.59508 5.98061 6.56123 5.39239 6.55728 5.31065L6.552 5.24473C6.552 5.15574 6.60212 5.11289 6.71158 5.11289C6.97533 5.11289 7.37097 5.11817 7.89848 5.12871C8.42599 5.13926 8.82383 5.14453 9.09198 5.14453C9.37552 5.14453 9.80171 5.12256 10.3705 5.07861C10.9394 5.03467 11.3656 5.0127 11.6491 5.0127C11.8249 5.0127 11.9243 5.08521 11.9471 5.23023C11.9471 5.38316 11.9537 5.61124 11.9682 5.91579C11.9755 5.99424 11.9986 6.14453 12.0375 6.368C12.0685 6.5187 12.0868 6.67173 12.0922 6.82548Z" fill="#E1892B"/>
<path d="M12.0401 6.63461C12.0401 6.6735 12.0052 6.69328 11.934 6.69328C11.6702 6.69328 11.2671 6.67131 10.7246 6.62736C10.1822 6.58341 9.7773 6.56144 9.51003 6.56144C9.16978 6.56144 8.97196 6.57375 8.91657 6.59836C8.7847 6.659 8.71876 6.82929 8.71876 7.10923C8.71876 7.44542 8.80382 7.63659 8.97394 7.68273C9.08072 7.70394 9.18955 7.71301 9.29836 7.70976C9.54278 7.70976 9.90874 7.69635 10.3962 7.66955C10.8838 7.64274 11.2497 7.62956 11.4941 7.62999C11.6111 7.62999 11.6695 7.94179 11.6695 8.56539C11.6695 9.10725 11.65 9.42256 11.6109 9.51134C11.601 9.54088 11.5816 9.5663 11.5557 9.5836C11.5298 9.60091 11.4988 9.60911 11.4678 9.60692C11.5117 9.60692 11.4001 9.5944 11.1328 9.56935C10.753 9.53463 10.1787 9.51705 9.4098 9.51661C9.16187 9.51661 9.02186 9.51837 8.98977 9.52188C8.80909 9.55045 8.71876 9.62648 8.71876 9.74996C8.71876 10.2536 8.74074 10.833 8.7847 11.4883C8.8203 12.0802 8.83811 12.3439 8.83811 12.2793C8.83811 12.3716 8.72601 12.425 8.50314 12.4388C8.56292 12.4353 8.40511 12.4335 8.02969 12.4335C7.36722 12.4335 6.94016 12.4116 6.74849 12.3676C6.64563 12.3432 6.59419 12.2879 6.59419 12.2028C6.59419 11.8099 6.6076 11.2191 6.63442 10.4303C6.66123 9.64142 6.67442 9.05078 6.67398 8.65834C6.67398 8.19031 6.652 7.60209 6.60804 6.89367C6.5443 5.79853 6.51045 5.21031 6.5065 5.12901L6.50122 5.06309C6.50122 4.97476 6.55067 4.93125 6.66079 4.93125C6.92455 4.93125 7.32019 4.93653 7.8477 4.94707C8.37521 4.95762 8.77305 4.96289 9.0412 4.96289C9.32474 4.96289 9.75093 4.94092 10.3198 4.89697C10.8886 4.85303 11.3148 4.83105 11.5983 4.83105C11.7757 4.83105 11.8746 4.90357 11.8964 5.04859C11.8964 5.20152 11.903 5.4296 11.9175 5.73415C11.9247 5.8126 11.9471 5.96289 11.9834 6.18636C12.0145 6.33397 12.0335 6.48389 12.0401 6.63461Z" fill="#FFF27E"/>
<defs>
<linearGradient id="paint0_linear_5957_41852" x1="18.4336" y1="-4.85813" x2="5.17635" y2="22.7857" gradientUnits="userSpaceOnUse">
<stop stop-color="#FFD243"/>
<stop offset="1" stop-color="#CD571B"/>
</linearGradient>
<linearGradient id="paint1_linear_5957_41852" x1="10.5855" y1="11.6811" x2="7.17679" y2="18.7893" gradientUnits="userSpaceOnUse">
<stop stop-color="#E08C3C"/>
<stop offset="1" stop-color="#FFD06F"/>
</linearGradient>
<linearGradient id="paint2_linear_5957_41852" x1="4.43006" y1="29.3073" x2="13.5304" y2="-16.3073" gradientUnits="userSpaceOnUse">
<stop stop-color="#F5942A"/>
<stop offset="1" stop-color="#F5D85D"/>
</linearGradient>
<linearGradient id="paint3_linear_5957_41852" x1="6.33448" y1="19.6796" x2="12.2827" y2="-10.1372" gradientUnits="userSpaceOnUse">
<stop stop-color="#E08C3C"/>
<stop offset="1" stop-color="#FFD06F"/>
</linearGradient>
<linearGradient id="paint4_linear_5957_41852" x1="11.5417" y1="-3.13579" x2="3.75336" y2="27.5831" gradientUnits="userSpaceOnUse">
<stop offset="0.2" stop-color="#FFDE43"/>
<stop offset="0.56" stop-color="#FFD23E"/>
<stop offset="1" stop-color="#FFBD37"/>
</linearGradient>
<linearGradient id="paint5_linear_5957_41852" x1="11.1321" y1="-1.66842" x2="6.07941" y2="18.2598" gradientUnits="userSpaceOnUse">
<stop offset="0.02" stop-color="#FFFFA0"/>
<stop offset="0.98" stop-color="#FFEB6A"/>
</linearGradient>
</defs>
</svg>
