<svg width="20" height="19" viewBox="0 0 20 19" fill="none" xmlns="http://www.w3.org/2000/svg">
<path d="M14.6356 15.6631C14.4832 15.8679 14.2854 16.0345 14.0577 16.1499C13.83 16.2653 13.5787 16.3263 13.3234 16.3281H6.00842C5.75318 16.3263 5.50184 16.2653 5.27415 16.1499C5.04647 16.0345 4.84865 15.8679 4.69624 15.6631C4.52493 15.4377 4.40795 15.1757 4.3544 14.8977C4.30085 14.6196 4.31217 14.333 4.38749 14.06C4.67943 12.8696 5.3539 11.8079 6.30741 11.0378C7.26091 10.2677 8.44077 9.83178 9.66592 9.79688C10.8911 9.83178 12.0709 10.2677 13.0244 11.0378C13.9779 11.8079 14.6524 12.8696 14.9444 14.06C15.0197 14.333 15.031 14.6196 14.9774 14.8977C14.9239 15.1757 14.8069 15.4377 14.6356 15.6631ZM3.24155 13.7453C3.50162 12.7832 3.95854 11.8855 4.58342 11.1091C3.80791 11.3246 3.10427 11.7439 2.54565 12.3234C1.98703 12.9029 1.59381 13.6215 1.40686 14.4044C1.34531 14.6397 1.33791 14.8859 1.38522 15.1245C1.43252 15.3631 1.53331 15.5878 1.67999 15.7819C1.80721 15.95 1.97134 16.0867 2.15972 16.1814C2.3481 16.2761 2.55571 16.3263 2.76655 16.3281H3.72842C3.45843 15.9619 3.27445 15.5394 3.19016 15.0923C3.10587 14.6451 3.12343 14.1847 3.24155 13.7453ZM17.6519 15.7819C17.5246 15.95 17.3605 16.0867 17.1721 16.1814C16.9837 16.2761 16.7761 16.3263 16.5653 16.3281H15.6034C15.8714 15.9609 16.0533 15.538 16.1355 15.0909C16.2177 14.6438 16.1982 14.1839 16.0784 13.7453C15.8184 12.7832 15.3614 11.8855 14.7365 11.1091C15.5121 11.3246 16.2157 11.7439 16.7743 12.3234C17.3329 12.9029 17.7262 13.6215 17.9131 14.4044C17.9763 14.6388 17.9857 14.8845 17.9404 15.1231C17.8952 15.3616 17.7965 15.5869 17.6519 15.7819ZM9.66592 2.67188C9.07876 2.67188 8.50478 2.84599 8.01657 3.1722C7.52837 3.49841 7.14785 3.96207 6.92316 4.50453C6.69846 5.047 6.63967 5.64392 6.75422 6.2198C6.86877 6.79568 7.15151 7.32466 7.5667 7.73985C7.98189 8.15504 8.51087 8.43778 9.08675 8.55233C9.66263 8.66688 10.2595 8.60809 10.802 8.38339C11.3445 8.15869 11.8081 7.77818 12.1343 7.28997C12.4606 6.80177 12.6347 6.22779 12.6347 5.64062C12.6347 4.85326 12.3219 4.09815 11.7651 3.5414C11.2084 2.98465 10.4533 2.67188 9.66592 2.67188ZM14.4159 6.82812C14.0636 6.82812 13.7192 6.93259 13.4263 7.12832C13.1334 7.32405 12.9051 7.60224 12.7703 7.92772C12.6354 8.2532 12.6002 8.61135 12.6689 8.95688C12.7376 9.30241 12.9073 9.6198 13.1564 9.86891C13.4055 10.118 13.7229 10.2877 14.0684 10.3564C14.4139 10.4251 14.7721 10.3899 15.0976 10.255C15.4231 10.1202 15.7013 9.89191 15.897 9.59898C16.0927 9.30606 16.1972 8.96167 16.1972 8.60938C16.1972 8.13696 16.0095 7.68389 15.6755 7.34984C15.3414 7.01579 14.8883 6.82812 14.4159 6.82812ZM4.91592 6.82812C4.56363 6.82812 4.21924 6.93259 3.92631 7.12832C3.63339 7.32405 3.40508 7.60224 3.27026 7.92772C3.13545 8.2532 3.10017 8.61135 3.1689 8.95688C3.23763 9.30241 3.40728 9.6198 3.65639 9.86891C3.9055 10.118 4.22289 10.2877 4.56842 10.3564C4.91395 10.4251 5.2721 10.3899 5.59758 10.255C5.92306 10.1202 6.20125 9.89191 6.39698 9.59898C6.59271 9.30606 6.69717 8.96167 6.69717 8.60938C6.69717 8.13696 6.50951 7.68389 6.17546 7.34984C5.84141 7.01579 5.38834 6.82812 4.91592 6.82812Z" fill="#C5C9D1"/>
</svg>
