<svg width="18" height="19" viewBox="0 0 18 19" fill="none" xmlns="http://www.w3.org/2000/svg">
<g clip-path="url(#clip0_5957_45900)">
<path d="M12.3835 3.08386L10.3807 2.76612L9.50727 0.810092C9.35522 0.491436 8.80626 0.314283 8.56175 0.797717L7.64044 2.73057L5.62993 2.99632C5.19856 3.05327 5.01715 3.58294 5.32607 3.89189L6.75978 5.32612L6.39106 7.32015C6.31175 7.74811 6.75907 8.08336 7.14913 7.88613L8.9562 6.96585L10.7391 7.93247C11.1202 8.13922 11.5797 7.82014 11.511 7.3866L11.1943 5.38332L12.6641 3.98667C12.9811 3.68647 12.8146 3.15217 12.3835 3.08386ZM11.1089 8.97169H6.89014C6.5989 8.97169 6.36279 9.20772 6.36279 9.49903V17.9717C6.36279 18.2629 6.5989 18.499 6.89014 18.499H11.1089C11.4001 18.499 11.6362 18.2629 11.6362 17.9717V9.49903C11.6362 9.20772 11.4001 8.97169 11.1089 8.97169ZM9.52686 14.7725C9.52686 15.0639 9.29099 15.2998 8.99951 15.2998C8.70803 15.2998 8.47217 15.0639 8.47217 14.7725V12.8814L8.31766 13.036C8.11168 13.2419 7.77794 13.2419 7.57196 13.036C7.36598 12.83 7.36598 12.4962 7.57196 12.2903L8.62664 11.2356C8.77806 11.0847 9.00464 11.0383 9.20138 11.1212C9.29776 11.1611 9.38015 11.2287 9.43809 11.3154C9.49603 11.4021 9.52693 11.5041 9.52686 11.6084V14.7725ZM17.4722 13.1904H13.2183C12.927 13.1904 12.6909 13.4265 12.6909 13.7178V17.9717C12.6909 18.2629 12.927 18.499 13.2183 18.499H17.4722C17.7634 18.499 17.9995 18.2629 17.9995 17.9717V13.7178C17.9995 13.4265 17.7634 13.1904 17.4722 13.1904ZM4.78076 12.1357H0.526855C0.235621 12.1357 -0.000488281 12.3718 -0.000488281 12.6631V17.9717C-0.000488281 18.2629 0.235621 18.499 0.526855 18.499H4.78076C5.072 18.499 5.30811 18.2629 5.30811 17.9717V12.6631C5.30811 12.3718 5.072 12.1357 4.78076 12.1357Z" fill="#C5C9D1"/>
</g>
<defs>
<clipPath id="clip0_5957_45900">
<rect width="18" height="18" fill="white" transform="translate(0 0.5)"/>
</clipPath>
</defs>
</svg>
