<svg width="16" height="15" viewBox="0 0 16 15" fill="none" xmlns="http://www.w3.org/2000/svg">
<g clip-path="url(#clip0_5963_63497)">
<path d="M15.6699 7.5C15.6699 3.35786 12.3121 -5.08894e-07 8.16992 -3.27835e-07C4.02779 -1.46777e-07 0.669921 3.35786 0.669922 7.5C0.669922 11.6421 4.02779 15 8.16992 15C12.3121 15 15.6699 11.6421 15.6699 7.5Z" fill="#0088CC"/>
<path fill-rule="evenodd" clip-rule="evenodd" d="M5.62598 9.58929L5.62598 5.38394C5.62598 5.22322 5.65276 5.08929 5.73312 4.92858C5.81348 4.74108 5.9474 4.63394 6.05455 4.58036C6.05455 4.58036 6.08133 4.58037 6.08133 4.55358C6.21526 4.47322 6.37598 4.41965 6.56348 4.41965C6.72419 4.41965 6.8849 4.44644 7.04562 4.55358L11.5992 7.20536C11.7063 7.25894 11.7599 7.36608 11.7599 7.50001C11.7599 7.60715 11.7063 7.71429 11.5992 7.79465L7.04562 10.3929C6.93848 10.4464 6.80455 10.5536 6.59026 10.5536C6.40276 10.5804 6.24205 10.5268 6.08133 10.4464C5.92062 10.3661 5.78669 10.2322 5.73312 10.0447C5.62598 9.88394 5.62598 9.69644 5.62598 9.58929ZM6.26883 7.82144L6.26883 9.58929C6.26883 9.69644 6.26883 9.75001 6.29562 9.77679C6.32241 9.83036 6.34919 9.85715 6.40276 9.88394C6.42955 9.91072 6.48312 9.91072 6.53669 9.91072C6.56348 9.91072 6.59026 9.88394 6.69741 9.83037L10.1795 7.82144L6.26883 7.82144ZM6.26883 7.17858L10.2063 7.17858L6.6974 5.14287C6.64383 5.11608 6.59026 5.11608 6.53669 5.11608C6.48312 5.11608 6.42955 5.11608 6.40276 5.14287C6.37598 5.16965 6.34919 5.16965 6.34919 5.19644L6.32241 5.22322C6.29562 5.27679 6.29562 5.33037 6.29562 5.41072L6.29562 7.17858L6.26883 7.17858Z" fill="white"/>
</g>
<defs>
<clipPath id="clip0_5963_63497">
<rect width="15" height="15" fill="white" transform="translate(0.670166 15) rotate(-90)"/>
</clipPath>
</defs>
</svg>
