<svg width="17" height="17" viewBox="0 0 17 17" fill="none" xmlns="http://www.w3.org/2000/svg">
<path fill-rule="evenodd" clip-rule="evenodd" d="M4.84208 0.5H11.8247C12.7522 0.5 13.216 0.5 13.5886 0.730322C13.9612 0.960576 14.1685 1.37517 14.5831 2.20424L14.5835 2.20497L15.6658 4.94088C15.9158 5.57298 16.1346 6.318 15.7137 6.85178C15.4312 7.20987 14.9935 7.43973 14.5021 7.43973C13.6503 7.43973 12.9599 6.74931 12.9599 5.89757C12.9599 6.74931 12.2695 7.43973 11.4177 7.43973C10.566 7.43973 9.87556 6.74931 9.87556 5.89757C9.87556 6.74931 9.18513 7.43973 8.33339 7.43973C7.48165 7.43973 6.7912 6.74931 6.7912 5.89757C6.7912 6.74931 6.10075 7.43973 5.24903 7.43973C4.39732 7.43973 3.70686 6.74931 3.70686 5.89757C3.70686 6.74931 3.01641 7.43973 2.16469 7.43973C1.67325 7.43973 1.23552 7.20987 0.953132 6.85178C0.532212 6.318 0.750992 5.57298 1.00105 4.94088L2.08336 2.20497C2.49813 1.37542 2.70552 0.960644 3.0782 0.730322C3.45086 0.5 3.9146 0.5 4.84208 0.5ZM16.0442 15.3432H14.502V8.5962C13.9287 8.5962 13.397 8.41739 12.9599 8.1125C12.5227 8.41739 11.9911 8.5962 11.4177 8.5962C10.8443 8.5962 10.3127 8.41739 9.87552 8.1125C9.43839 8.41739 8.90673 8.5962 8.33335 8.5962C7.75997 8.5962 7.22831 8.41739 6.79118 8.1125C6.35405 8.41739 5.82241 8.5962 5.24901 8.5962C4.67562 8.5962 4.14399 8.41739 3.70684 8.1125C3.26971 8.41739 2.73808 8.5962 2.16467 8.5962V15.3432H0.622503C0.303112 15.3432 0.0441895 15.6021 0.0441895 15.9215C0.0441895 16.2409 0.303112 16.4998 0.622503 16.4998H16.0442C16.3636 16.4998 16.6225 16.2409 16.6225 15.9215C16.6225 15.6021 16.3636 15.3432 16.0442 15.3432ZM10.2611 13.2227V15.3432H6.40564V13.2227C6.40564 12.502 6.40564 12.1417 6.5606 11.8733C6.66211 11.6975 6.80815 11.5514 6.98395 11.4499C7.25237 11.295 7.61269 11.295 8.33334 11.295H8.33335H8.33337C9.05401 11.295 9.41434 11.295 9.68275 11.4499C9.85856 11.5514 10.0046 11.6975 10.1061 11.8733C10.2611 12.1417 10.2611 12.502 10.2611 13.2227Z" fill="#C5C9D1"/>
</svg>
