<svg width="40" height="40" viewBox="0 0 40 40" fill="none" xmlns="http://www.w3.org/2000/svg">
<g clip-path="url(#clip0_5957_41802)">
<path d="M26.5618 35.4579L22.8761 35.7228L19.2782 39.4168H5.4209L17.7763 29.9168L21.4141 23.8532C22.0239 22.8368 23.4338 22.6799 24.2521 23.5374L31.0782 28.7668C32.1099 29.5572 32.1738 31.0892 31.2115 31.9628L28.3424 34.5674C27.8425 35.027 27.2242 35.3363 26.5618 35.4579Z" fill="#FED9A8"/>
<path d="M31.0782 28.7668L29.4093 27.4883C29.5887 28.203 29.3872 28.9988 28.7898 29.5411L25.9207 32.1457C25.4208 32.6055 24.8026 32.9148 24.1401 33.0363L20.4544 33.3012L14.4978 39.4168H19.2782L22.8761 35.7228L26.5619 35.458C27.2243 35.3363 27.8426 35.027 28.3424 34.5673L31.2116 31.9627C32.1738 31.0891 32.1099 29.5572 31.0782 28.7668Z" fill="#F4C28C"/>
<path d="M25.8829 25.791L26.5717 26.532C26.1839 26.5734 25.7866 26.4417 25.5054 26.1392L24.8787 25.4651C25.2388 25.3988 25.6198 25.508 25.8829 25.791Z" fill="#E8D06B"/>
<path d="M34.7565 32.1313L30.3802 35.8119L18.843 20.0322L21.1141 18.1221L34.7565 32.1313Z" fill="#F7BC14"/>
<path d="M4.95557 13.5754L8.72596 18.0584C11.3997 21.2375 15.6119 22.7996 20.0735 22.2666L22.7189 21.9506L23.4837 19.3985C24.7735 15.0943 23.9565 10.6767 21.2828 7.49762L17.5124 3.01465L4.95557 13.5754Z" fill="#FED130"/>
<path d="M21.2828 7.49762L17.5124 3.01465L14.8188 5.28004L18.7942 9.98613C21.468 13.1652 22.2849 17.5828 20.9952 21.887L20.9114 22.1665L22.719 21.9506L23.4838 19.3985C24.7735 15.0943 23.9565 10.6767 21.2828 7.49762Z" fill="#F7BC14"/>
<path d="M18.6991 3.48946L5.21956 14.8264C5.17288 14.8657 5.11893 14.8954 5.06077 14.9138C5.00262 14.9322 4.94141 14.939 4.88064 14.9337C4.81986 14.9285 4.76072 14.9113 4.70658 14.8832C4.65244 14.8551 4.60437 14.8166 4.56511 14.7699L3.71206 13.7557C3.67279 13.709 3.64311 13.6551 3.62469 13.5969C3.60628 13.5388 3.5995 13.4776 3.60475 13.4168C3.60999 13.356 3.62716 13.2969 3.65526 13.2427C3.68337 13.1886 3.72186 13.1405 3.76855 13.1013L17.2482 1.76431C17.2948 1.72504 17.3488 1.69535 17.4069 1.67694C17.4651 1.65853 17.5263 1.65175 17.5871 1.65699C17.6479 1.66224 17.707 1.6794 17.7611 1.70751C17.8153 1.73561 17.8633 1.77411 17.9026 1.82079L18.7556 2.83501C18.7948 2.88169 18.8245 2.93565 18.8429 2.9938C18.8614 3.05195 18.8681 3.11316 18.8629 3.17394C18.8576 3.23471 18.8405 3.29385 18.8124 3.34799C18.7843 3.40213 18.7458 3.4502 18.6991 3.48946Z" fill="#FFB125"/>
<path d="M18.7559 2.83501L17.903 1.82079C17.8637 1.77411 17.8156 1.73561 17.7615 1.70751C17.7074 1.6794 17.6482 1.66224 17.5874 1.65699C17.5267 1.65175 17.4655 1.65853 17.4073 1.67694C17.3492 1.69535 17.2952 1.72504 17.2485 1.76431L14.8672 3.76712L16.3182 5.49235L18.6995 3.48954C18.7938 3.4102 18.8527 3.29669 18.8632 3.17395C18.8738 3.05122 18.8352 2.9293 18.7559 2.83501Z" fill="#FF901D"/>
<path d="M14.5206 12.06L16.933 13.1174C16.964 13.1309 16.9996 13.1284 17.0283 13.1106L19.267 11.7227C19.3393 11.6778 19.4316 11.7354 19.4232 11.82L19.1631 14.4411C19.1597 14.4747 19.1732 14.5078 19.199 14.5296L21.2108 16.2299C21.2758 16.2848 21.2495 16.3903 21.1665 16.4085L18.5933 16.9711C18.577 16.9747 18.5619 16.9821 18.5491 16.9928C18.5364 17.0035 18.5264 17.0172 18.5201 17.0326L17.5248 19.4713C17.4927 19.55 17.3842 19.5577 17.3412 19.4843L16.011 17.2109C16.0026 17.1965 15.9908 17.1844 15.9767 17.1756C15.9626 17.1668 15.9465 17.1615 15.9299 17.1603L13.303 16.9673C13.2182 16.961 13.1773 16.8602 13.2339 16.7967L14.985 14.8291C15.0074 14.8038 15.0161 14.7691 15.008 14.7363L14.3797 12.1784C14.3594 12.0959 14.4427 12.0259 14.5206 12.06Z" fill="white"/>
<path d="M38.0327 31.8153L29.8126 38.7289C29.4557 39.029 28.9155 38.9418 28.6713 38.5446L27.3127 36.3349C27.217 36.1791 27.1803 35.994 27.2095 35.8135C27.2386 35.6329 27.3317 35.4689 27.4716 35.3511L35.1063 28.93C35.2463 28.8123 35.4239 28.7488 35.6068 28.751C35.7897 28.7533 35.9657 28.8211 36.1027 28.9421L38.0469 30.6594C38.3962 30.9681 38.3896 31.5153 38.0327 31.8153Z" fill="#FFB125"/>
<path d="M38.0468 30.6594L36.1026 28.9421C35.9656 28.8211 35.7896 28.7533 35.6067 28.751C35.4238 28.7488 35.2462 28.8123 35.1062 28.93L32.8787 30.8036L35.9793 33.5424L38.0327 31.8153C38.3897 31.5153 38.3963 30.9681 38.0468 30.6594Z" fill="#FF901D"/>
<path d="M29.7173 31.841C30.2741 32.4407 31.2116 32.4754 31.8112 31.9184L33.6656 30.1956C34.2648 29.6388 34.2995 28.7019 33.743 28.1024C33.1862 27.5027 32.2487 27.468 31.6491 28.025L29.7947 29.7478C29.1954 30.3045 29.1608 31.2415 29.7173 31.841Z" fill="#F4C28C"/>
<path d="M29.7947 29.7478L31.6491 28.025C32.2487 27.468 33.1863 27.5026 33.7431 28.1024C34.0659 28.4501 34.1894 28.9115 34.1195 29.3463C33.5553 28.8657 32.7083 28.8728 32.152 29.3895L30.2975 31.1123C30.0555 31.3366 29.8957 31.6357 29.8437 31.9615C29.7992 31.9238 29.757 31.8835 29.7172 31.8408C29.1608 31.2415 29.1954 30.3045 29.7947 29.7478Z" fill="#FED9A8"/>
<path d="M28.2312 29.1674C28.7964 29.7762 29.7482 29.8114 30.3568 29.246L32.1784 27.5537C32.7867 26.9886 32.8219 26.0374 32.257 25.4289C31.6919 24.8201 30.7401 24.7849 30.1315 25.3503L28.3098 27.0427C27.7016 27.6078 27.6664 28.5589 28.2312 29.1674Z" fill="#F4C28C"/>
<path d="M28.3098 27.0427L30.1315 25.3503C30.7401 24.7849 31.6918 24.8201 32.257 25.4289C32.5808 25.7777 32.707 26.239 32.6416 26.6756C32.0691 26.1773 31.201 26.1812 30.6323 26.7094L28.8107 28.4017C28.561 28.6332 28.3976 28.9429 28.3475 29.2797C28.3068 29.2443 28.268 29.2068 28.2312 29.1673C27.6664 28.5589 27.7016 27.6078 28.3098 27.0427Z" fill="#FED9A8"/>
<path d="M26.1752 26.9828C26.7403 27.5917 27.6921 27.6268 28.3007 27.0614L30.1223 25.3691C30.7306 24.804 30.7658 23.8528 30.2009 23.2443C29.6358 22.6355 28.684 22.6003 28.0754 23.1657L26.2537 24.8581C25.6454 25.4232 25.6102 26.3743 26.1752 26.9828Z" fill="#F4C28C"/>
<path d="M26.2537 24.8581L28.0753 23.1657C28.6839 22.6003 29.6356 22.6355 30.2009 23.2443C30.2399 23.2864 30.2757 23.3301 30.309 23.3751C29.9667 23.3987 29.6428 23.5392 29.3917 23.7732L27.5701 25.4655C27.0038 25.9916 26.9345 26.8521 27.3834 27.4595C26.9451 27.4903 26.4973 27.33 26.1751 26.9828C25.6103 26.3743 25.6454 25.4232 26.2537 24.8581Z" fill="#FED9A8"/>
<path d="M24.1949 24.7162C24.76 25.3251 25.7118 25.3602 26.3204 24.7948L28.1421 23.1025C28.7503 22.5374 28.7855 21.5862 28.2207 20.9777C27.6555 20.3689 26.7037 20.3337 26.0951 20.8991L24.2735 22.5915C23.6652 23.1566 23.63 24.1077 24.1949 24.7162Z" fill="#F4C28C"/>
<path d="M24.2735 22.5915L26.0951 20.8991C26.7037 20.3337 27.6555 20.369 28.2207 20.9777C28.5441 21.3261 28.6704 21.7868 28.6055 22.2231C28.0329 21.7239 27.1642 21.7274 26.5952 22.256L24.7735 23.9483C24.5234 24.1801 24.3599 24.4904 24.3101 24.8277C24.2703 24.7929 24.2317 24.7558 24.1949 24.7162C23.63 24.1077 23.6652 23.1566 24.2735 22.5915Z" fill="#FED9A8"/>
<path d="M27.6756 25.867L27.3378 26.1808C26.8063 26.6746 25.9861 26.6558 25.5054 26.1387L24.6549 25.2239C24.2386 24.7761 23.5274 24.7621 23.0698 25.1927C23.3259 29.1546 17.7764 29.9165 17.7764 29.9165L20.1351 24.1146C20.2815 23.6802 20.5328 23.2887 20.8668 22.9748L22.5421 21.3982C23.3565 20.6316 24.6223 20.6561 25.3639 21.4526L27.7672 24.0339C28.2489 24.5514 28.2079 25.3725 27.6756 25.867Z" fill="#FED9A8"/>
<path d="M20.0037 11.8773C20.0168 11.7499 19.9937 11.6214 19.9372 11.5065C19.8806 11.3916 19.7928 11.2949 19.6839 11.2276C19.5754 11.1594 19.45 11.1232 19.3219 11.123C19.1938 11.1229 19.0683 11.1588 18.9597 11.2267L16.9358 12.4814L14.7548 11.5256C14.6377 11.4737 14.5084 11.4558 14.3816 11.4741C14.2548 11.4923 14.1357 11.5459 14.038 11.6288C13.9397 11.7108 13.8664 11.819 13.8267 11.9408C13.787 12.0626 13.7824 12.1931 13.8134 12.3174L14.3813 14.6299L12.7983 16.4086C12.7128 16.504 12.6558 16.6215 12.634 16.7477C12.6122 16.874 12.6263 17.0038 12.6749 17.1224C12.7225 17.2413 12.8027 17.3443 12.9063 17.4198C13.0098 17.4952 13.1325 17.5399 13.2603 17.5488L15.6352 17.7233L16.8379 19.7788C16.8979 19.8822 16.984 19.968 17.0877 20.0276C17.1914 20.0872 17.309 20.1184 17.4286 20.1181C17.5652 20.119 17.6989 20.0787 17.8123 20.0026C17.9258 19.9265 18.0137 19.8181 18.0648 19.6914L18.9647 17.4867L21.2914 16.978C21.4166 16.951 21.5316 16.8893 21.6234 16.8C21.7151 16.7107 21.7799 16.5973 21.8102 16.4729C21.8415 16.3487 21.8371 16.2183 21.7977 16.0964C21.7582 15.9746 21.6853 15.8664 21.5872 15.7841L19.7684 14.2471L20.0037 11.8773ZM20.0905 16.0464L18.4687 16.401C18.3601 16.4248 18.2589 16.4746 18.1738 16.5462C18.0887 16.6178 18.0222 16.7089 17.9802 16.8119L17.3529 18.3489L16.5142 16.9156C16.458 16.8198 16.3794 16.739 16.285 16.6803C16.1907 16.6216 16.0835 16.5866 15.9727 16.5785L14.3171 16.4568L15.4209 15.2164C15.4948 15.1334 15.5473 15.0336 15.5741 14.9257C15.6008 14.8178 15.6009 14.7051 15.5744 14.5971L15.1785 12.9849L16.6986 13.6511C16.8005 13.6959 16.9117 13.7151 17.0227 13.7073C17.1337 13.6994 17.2411 13.6647 17.3357 13.606L18.7467 12.7313L18.5828 14.3832C18.5718 14.4939 18.5879 14.6056 18.6296 14.7087C18.6714 14.8118 18.7376 14.9031 18.8226 14.9749L20.0905 16.0464Z" fill="black"/>
<path d="M38.433 30.2221L36.4888 28.5048C35.993 28.0669 35.2373 28.0578 34.7309 28.4835L34.6437 28.5568C34.5578 28.2471 34.4008 27.954 34.1704 27.7059C33.8889 27.4027 33.5315 27.1953 33.1377 27.102C33.3648 26.4045 33.218 25.6072 32.6847 25.0326C32.3053 24.6239 31.7895 24.3875 31.2323 24.367C31.2155 24.3664 31.1989 24.3666 31.1822 24.3664C31.2077 23.8254 31.0251 23.2751 30.6285 22.8478C30.2538 22.4442 29.7459 22.209 29.1966 22.1834C29.2461 21.6159 29.0653 21.0304 28.6482 20.5811C28.2688 20.1724 27.753 19.936 27.1959 19.9155C26.6385 19.8945 26.1068 20.0925 25.6983 20.472L25.4214 20.7292C25.0192 20.4389 24.538 20.274 24.027 20.2572C23.963 20.2553 23.8989 20.2557 23.8349 20.2585L24.0424 19.566C24.4145 18.3242 24.6461 16.0728 24.6392 16.1936C24.6593 16.2033 24.679 16.2134 24.6995 16.2225C24.9826 16.3484 25.2891 16.4134 25.5989 16.4131C25.9501 16.4131 26.2996 16.3299 26.6119 16.1646C27.2622 15.8203 27.7237 15.1008 27.7604 14.374C27.7953 13.6824 27.4696 13.0717 26.8434 12.6542C26.5752 12.4757 26.2131 12.5481 26.0345 12.8161C25.8559 13.0842 25.9284 13.4463 26.1965 13.6249C26.475 13.8105 26.6092 14.0427 26.5954 14.3151C26.5792 14.6356 26.3566 14.9798 26.0662 15.1335C25.7998 15.2746 25.4583 15.2836 25.1747 15.1571C24.9936 15.0763 24.7588 14.9046 24.669 14.5449C24.4014 13.4739 25.015 12.4109 25.7254 11.1801C27.0122 8.95065 28.6136 6.17619 25.2614 2.21401L23.8731 0.573068C23.5935 0.242521 23.2019 0.0410369 22.7705 0.00556815C22.3391 -0.0299006 21.9199 0.104943 21.5901 0.385412C21.1494 0.76026 20.806 1.23628 20.5894 1.77275C20.3727 2.30923 20.2893 2.89019 20.3461 3.46596L20.4154 4.1669C20.4326 4.34375 20.4082 4.52219 20.3441 4.68791C20.28 4.85363 20.1779 5.00202 20.0461 5.12119L20.7977 6.01494C21.0745 5.77347 21.2895 5.46934 21.4249 5.12792C21.5603 4.7865 21.6122 4.41765 21.5762 4.05213L21.5069 3.35119C21.4685 2.96297 21.5248 2.57124 21.6709 2.20952C21.8169 1.84779 22.0485 1.52682 22.3456 1.27408C22.3907 1.23543 22.4431 1.20615 22.4996 1.18796C22.5561 1.16977 22.6157 1.16303 22.6749 1.16815C22.7341 1.17284 22.7918 1.18925 22.8446 1.21642C22.8974 1.2436 22.9443 1.28099 22.9825 1.32643L24.3708 2.96736C27.1931 6.30338 25.9894 8.38901 24.715 10.5969C24.5156 10.9423 24.3147 11.2909 24.1329 11.6443C23.6509 9.98807 22.8443 8.44823 21.729 7.12221L19.0594 3.94822L19.0744 3.93565C19.18 3.84735 19.2671 3.73897 19.3305 3.61681C19.3939 3.49464 19.4325 3.3611 19.444 3.22393C19.4562 3.08682 19.4411 2.94865 19.3996 2.81741C19.358 2.68618 19.2908 2.56449 19.2019 2.4594L18.349 1.44526C18.2607 1.33966 18.1523 1.25262 18.0301 1.18919C17.908 1.12576 17.7744 1.08719 17.6373 1.07572C17.5001 1.06352 17.362 1.07862 17.2307 1.12015C17.0995 1.16168 16.9778 1.22882 16.8726 1.31768L3.39327 12.6546C2.95117 13.0264 2.89398 13.6886 3.26577 14.1309L4.11874 15.145C4.20705 15.2506 4.31544 15.3377 4.43762 15.4011C4.5598 15.4645 4.69335 15.5031 4.83054 15.5146C4.96764 15.5268 5.10582 15.5118 5.23705 15.4702C5.36828 15.4287 5.48995 15.3615 5.59499 15.2725L5.61007 15.2598L6.61265 16.4519C6.4733 16.5596 6.31086 16.6336 6.1381 16.6679C5.96533 16.7022 5.78697 16.6959 5.61702 16.6496L4.93788 16.4632C4.37993 16.3101 3.7932 16.2945 3.22788 16.4176C2.66256 16.5407 2.13548 16.7989 1.69171 17.1702C1.52807 17.3064 1.39312 17.4737 1.29469 17.6624C1.19626 17.8512 1.13632 18.0577 1.11835 18.2698C1.09917 18.4818 1.12231 18.6955 1.18643 18.8985C1.25055 19.1015 1.35438 19.2897 1.49187 19.4522L2.87538 21.0971C6.21593 25.0691 9.2207 23.9583 11.6351 23.0656C12.7247 22.6628 13.6928 22.305 14.562 22.4305C14.7236 22.4761 14.8861 22.5187 15.0493 22.5583C15.0762 22.5688 15.1031 22.5797 15.1299 22.5914C15.4692 22.7405 15.599 23.0009 15.6481 23.193C15.725 23.4938 15.6585 23.8289 15.4746 24.0678C15.2741 24.3281 14.8973 24.4892 14.5787 24.4514C14.3078 24.4191 14.1016 24.2477 13.9655 23.9419C13.9013 23.8027 13.7848 23.6945 13.6413 23.6405C13.4979 23.5865 13.3389 23.5912 13.1989 23.6535C13.0588 23.7158 12.9489 23.8307 12.8929 23.9734C12.8369 24.116 12.8393 24.275 12.8996 24.416C13.2055 25.1036 13.7527 25.5276 14.4402 25.6097C14.5163 25.6187 14.5928 25.6233 14.6694 25.6232C15.3243 25.6231 15.997 25.3011 16.3987 24.7795C16.8024 24.2553 16.9443 23.5542 16.7781 22.9042C16.7743 22.8893 16.7697 22.8749 16.7655 22.8602C17.3009 22.9207 17.8393 22.9512 18.3781 22.9514C18.9608 22.9513 19.5501 22.9165 20.1425 22.8458L20.1941 22.8396C19.9281 23.1566 19.7226 23.5197 19.588 23.911L17.2953 29.5506L5.06538 38.9544C4.96878 39.0286 4.89786 39.1313 4.86256 39.2479C4.82727 39.3645 4.82938 39.4892 4.8686 39.6046C4.90783 39.7199 4.98219 39.8201 5.08125 39.891C5.18031 39.9619 5.2991 40.0001 5.42093 40H19.2781C19.356 40 19.4331 39.9844 19.5048 39.9542C19.5766 39.9239 19.6416 39.8795 19.6959 39.8238L20.4677 39.0313C20.5748 38.9204 20.6336 38.7715 20.6313 38.6173C20.6289 38.4631 20.5655 38.3161 20.4551 38.2085C20.3446 38.1008 20.196 38.0413 20.0417 38.043C19.8875 38.0447 19.7402 38.1074 19.6321 38.2174L19.032 38.8335H7.1364L18.1319 30.3791C18.14 30.3728 18.1473 30.366 18.1549 30.3595C18.1601 30.355 18.1655 30.3507 18.1706 30.346C18.1892 30.329 18.2065 30.311 18.2224 30.2921C18.2255 30.2884 18.2284 30.2844 18.2315 30.2805C18.246 30.2624 18.2593 30.2435 18.2714 30.224C18.2737 30.2203 18.2762 30.2168 18.2784 30.2131C18.2921 30.1898 18.304 30.1658 18.3143 30.1411C18.315 30.1395 18.316 30.138 18.3166 30.1363L20.6754 24.3345C20.6799 24.3233 20.6841 24.312 20.688 24.3006C20.804 23.9574 21.0027 23.648 21.2665 23.3998L22.9417 21.8231C23.2294 21.5523 23.6003 21.4101 23.9885 21.4231C24.355 21.4352 24.6919 21.5868 24.937 21.8502L27.3403 24.4314C27.3402 24.4313 27.3405 24.4316 27.3403 24.4314C27.4627 24.5628 27.5262 24.7364 27.5196 24.9202C27.5125 25.1175 27.4269 25.3021 27.2787 25.4399L26.9409 25.7537C26.7073 25.9707 26.3752 26.0117 26.1174 25.8803C26.1107 25.8767 26.1037 25.8736 26.0967 25.8702C26.0356 25.8363 25.9802 25.7929 25.9326 25.7417L25.082 24.8267C24.778 24.4998 24.3627 24.3114 23.9127 24.2964C23.4515 24.2813 23.0096 24.4485 22.6701 24.7681C22.6072 24.8272 22.5583 24.8996 22.5268 24.98C22.4952 25.0604 22.482 25.1467 22.4879 25.2328C22.4907 25.2771 22.4926 25.321 22.4938 25.3646C22.4944 25.3891 22.4944 25.4134 22.4945 25.4378C22.4947 25.4565 22.495 25.4753 22.4948 25.4939C22.4944 25.525 22.4934 25.5558 22.4922 25.5865C22.4918 25.5977 22.4915 25.6089 22.4909 25.62C22.4892 25.6547 22.4868 25.6892 22.484 25.7233L22.4829 25.7367C22.4812 25.7513 22.48 25.766 22.4794 25.7806C22.4249 26.3206 22.2298 26.8039 21.8887 27.2465C21.7943 27.369 21.7525 27.524 21.7724 27.6774C21.7923 27.8308 21.8723 27.97 21.9948 28.0644C22.1173 28.1588 22.2723 28.2007 22.4257 28.1808C22.5791 28.1609 22.7183 28.0809 22.8127 27.9584C23.0104 27.703 23.1775 27.4254 23.3106 27.1311L28.2715 33.9162L28.1531 34.0157C28.0769 34.0418 28.0069 34.0834 27.9476 34.138C27.5353 34.5173 27.0307 34.7729 26.4867 34.8785L22.8343 35.141C22.6918 35.1513 22.558 35.2135 22.4583 35.3158L21.5259 36.2731C21.4199 36.3843 21.362 36.5328 21.3648 36.6864C21.3677 36.84 21.431 36.9862 21.541 37.0934C21.651 37.2006 21.7989 37.2601 21.9525 37.2589C22.1061 37.2577 22.253 37.196 22.3614 37.0871L23.1391 36.2886L26.6037 36.0397C26.6103 36.0392 26.6168 36.0379 26.6234 36.0372C26.6381 36.2508 26.7042 36.4577 26.8159 36.6403L28.1745 38.8499C28.2758 39.0148 28.4116 39.156 28.5725 39.2637C28.7333 39.3714 28.9156 39.4431 29.1067 39.4739C29.2978 39.5048 29.4934 39.4942 29.68 39.4426C29.8666 39.3911 30.0399 39.2999 30.188 39.1752L38.4082 32.2617C38.5564 32.1372 38.676 31.9821 38.7588 31.8071C38.8415 31.6321 38.8856 31.4413 38.8879 31.2477C38.8903 31.0541 38.851 30.8622 38.7724 30.6852C38.6939 30.5082 38.5781 30.3502 38.433 30.2221ZM11.2306 21.9716C8.83929 22.8556 6.5807 23.6906 3.7682 20.3464L2.38468 18.7015C2.30702 18.6091 2.26999 18.492 2.28054 18.3717C2.29109 18.2513 2.34788 18.1424 2.44054 18.0649C2.73976 17.8146 3.09515 17.6406 3.47631 17.5575C3.85748 17.4745 4.25308 17.485 4.62929 17.5882L5.30843 17.7746C5.66062 17.8711 6.03069 17.8826 6.38817 17.8081C6.74565 17.7335 7.08031 17.5751 7.3646 17.346L8.2796 18.4339C9.39757 19.7632 10.7802 20.8238 12.3339 21.5829C11.9641 21.7006 11.5958 21.8366 11.2306 21.9716ZM22.9249 19.2312L22.4845 20.7008C22.3632 20.7823 22.2487 20.8735 22.1422 20.9735L21.5841 21.4988L20.0043 21.6875C15.7575 22.1949 11.7079 20.6978 9.17234 17.6831L6.50288 14.5091L7.54499 13.6326C7.60362 13.5833 7.65196 13.5229 7.68725 13.455C7.72254 13.387 7.7441 13.3127 7.75069 13.2364C7.75727 13.1601 7.74876 13.0832 7.72564 13.0102C7.70252 12.9372 7.66524 12.8694 7.61593 12.8108C7.56665 12.7522 7.50629 12.7038 7.43831 12.6685C7.37033 12.6332 7.29606 12.6116 7.21975 12.605C7.14343 12.5984 7.06656 12.6069 6.99353 12.6301C6.92051 12.6532 6.85275 12.6905 6.79413 12.7398L5.30585 13.9914L5.30562 13.9916L5.30538 13.9918L4.93507 14.3033L4.23492 13.4709L17.5328 2.28682L18.233 3.11932L17.8632 3.43033L17.8624 3.43088L17.8617 3.43151L8.89773 10.9706C8.77933 11.0701 8.70534 11.2127 8.69203 11.3668C8.67872 11.5209 8.72718 11.674 8.82675 11.7924C8.92632 11.9108 9.06885 11.9848 9.22297 11.9981C9.37709 12.0114 9.53019 11.963 9.64859 11.8634L18.1669 4.69901L20.8363 7.87299C23.3719 10.8879 24.1527 15.134 22.9249 19.2312ZM32.6905 28.2131C32.8084 28.2171 32.9244 28.2445 33.0317 28.2937C33.1389 28.3429 33.2354 28.4128 33.3155 28.4996C33.45 28.6448 33.5327 28.8305 33.5508 29.0276C33.569 29.2248 33.5214 29.4224 33.4156 29.5897L30.8743 31.7271C30.7391 31.7389 30.6031 31.7196 30.4766 31.6706C30.3501 31.6216 30.2365 31.5442 30.1446 31.4444C29.8078 31.0816 29.8289 30.5124 30.1915 30.1754L30.5597 29.8333C30.6275 29.784 30.6924 29.7308 30.754 29.6739L32.1763 28.3525C32.3297 28.2551 32.5089 28.2065 32.6905 28.2131ZM30.5974 25.7203C30.7667 25.5905 30.976 25.5241 31.1891 25.5326C31.31 25.5368 31.4289 25.5648 31.5389 25.6152C31.6488 25.6656 31.7477 25.7373 31.8298 25.8262C32.175 26.198 32.1534 26.7815 31.7817 27.1268L31.4458 27.4389C31.3781 27.488 31.3134 27.5411 31.252 27.5978L29.828 28.9208C29.6708 29.0219 29.4863 29.0721 29.2995 29.0646C29.1786 29.0605 29.0598 29.0324 28.9498 28.982C28.8398 28.9316 28.741 28.8599 28.6589 28.771C28.3363 28.4235 28.3342 27.8913 28.6387 27.5413C28.6586 27.5242 28.6784 27.507 28.6977 27.4891L30.5194 25.7967C30.5462 25.7717 30.5722 25.7463 30.5974 25.7203ZM27.5059 22.8977L26.2515 21.5503L26.4922 21.3266C26.6723 21.1592 26.9069 21.0737 27.1526 21.0811C27.2735 21.0853 27.3924 21.1134 27.5024 21.1637C27.6123 21.2141 27.7112 21.2858 27.7933 21.3747C28.1385 21.7465 28.1169 22.33 27.7452 22.6754L27.5059 22.8977ZM27.7348 26.6084L28.0726 26.2945C28.4492 25.9446 28.6668 25.4715 28.6852 24.9625C28.7012 24.5205 28.5637 24.0982 28.2962 23.7569L28.4724 23.5932C28.5607 23.5105 28.6646 23.4463 28.778 23.4041C28.8914 23.362 29.012 23.3428 29.1329 23.3478C29.2538 23.3519 29.3726 23.38 29.4826 23.4304C29.5925 23.4808 29.6914 23.5525 29.7734 23.6413C30.0962 23.989 30.0981 24.5214 29.7934 24.8715C29.7735 24.8884 29.7539 24.9057 29.7347 24.9234L27.913 26.6157C27.8861 26.6408 27.86 26.6664 27.8347 26.6925C27.6985 26.7968 27.5355 26.8603 27.3646 26.8757C27.4982 26.8017 27.6225 26.7119 27.7348 26.6084ZM23.6578 25.6296C23.6595 25.5856 23.6611 25.5417 23.6615 25.4974C23.7292 25.4718 23.8014 25.4599 23.8737 25.4625C24.0111 25.4671 24.1367 25.5235 24.2277 25.6213L25.0782 26.5362C25.1636 26.6281 25.2582 26.7109 25.3605 26.7835C25.454 27.0033 25.585 27.2051 25.7477 27.38C26.1271 27.7887 26.6429 28.0251 27.2001 28.0457C27.2169 28.0463 27.2336 28.0464 27.2503 28.0467C27.2248 28.5874 27.4075 29.1377 27.804 29.5648C28.0882 29.871 28.449 30.0804 28.8464 30.1749C28.6142 30.8687 28.7579 31.6653 29.2896 32.2381C29.4363 32.396 29.6071 32.5297 29.7956 32.6343L29.1662 33.1637L23.6578 25.6296ZM37.6573 31.3688L29.4372 38.2823C29.4175 38.2991 29.3943 38.3113 29.3694 38.3182C29.3444 38.3251 29.3183 38.3265 29.2927 38.3222C29.2672 38.3182 29.2428 38.3087 29.2213 38.2943C29.1997 38.2799 29.1816 38.261 29.1682 38.2388L27.8096 36.0292C27.7868 35.9925 27.778 35.9489 27.7849 35.9063C27.7918 35.8636 27.8138 35.825 27.847 35.7974L35.4816 29.3763C35.5141 29.3491 35.5551 29.3342 35.5974 29.3343C35.6402 29.3343 35.6828 29.3493 35.7165 29.3791L37.6606 31.0963C37.7144 31.1438 37.7218 31.2026 37.7214 31.2335C37.7212 31.2593 37.7154 31.2849 37.7044 31.3083C37.6933 31.3316 37.6772 31.3523 37.6573 31.3688Z" fill="black"/>
</g>
<defs>
<clipPath id="clip0_5957_41802">
<rect width="40" height="40" fill="white"/>
</clipPath>
</defs>
</svg>
