<svg width="72" height="70" viewBox="0 0 72 70" fill="none" xmlns="http://www.w3.org/2000/svg">
<g opacity="0.7" clip-path="url(#clip0_5957_45842)" filter="url(#filter0_f_5957_45842)">
<path d="M42.8901 51.1237L39.0201 51.4018L35.2423 55.2805H20.6921L33.6653 45.3055L37.485 38.9387C38.1253 37.8716 39.6057 37.7068 40.4649 38.6072L47.6323 44.0981C48.7156 44.928 48.7827 46.5366 47.7723 47.4538L44.7597 50.1887C44.2349 50.6713 43.5856 50.996 42.8901 51.1237Z" fill="#FED9A8"/>
<path d="M47.6323 44.0973L45.88 42.7549C46.0684 43.5054 45.8567 44.341 45.2295 44.9103L42.2169 47.6452C41.6921 48.1279 41.0429 48.4527 40.3474 48.5803L36.4773 48.8584L30.2229 55.2798H35.2423L39.0201 51.4011L42.8902 51.1231C43.5857 50.9953 44.2349 50.6706 44.7597 50.1879L47.7723 47.4531C48.7827 46.5357 48.7156 44.9272 47.6323 44.0973Z" fill="#F4C28C"/>
<path d="M42.1772 40.9733L42.9005 41.7513C42.4933 41.7948 42.0761 41.6565 41.7809 41.3389L41.1228 40.6311C41.501 40.5614 41.901 40.6761 42.1772 40.9733Z" fill="#E8D06B"/>
<path d="M51.4943 47.6306L46.8992 51.4952L34.7852 34.9266L37.1698 32.9209L51.4943 47.6306Z" fill="#F7BC14"/>
<path d="M20.2034 28.1464L24.1623 32.8536C26.9697 36.1916 31.3925 37.8318 36.0772 37.2722L38.8549 36.9404L39.6579 34.2606C41.0122 29.7412 40.1544 25.1028 37.3469 21.7647L33.388 17.0576L20.2034 28.1464Z" fill="#FED130"/>
<path d="M37.3469 21.7647L33.388 17.0576L30.5598 19.4363L34.734 24.3777C37.5414 27.7157 38.3992 32.3541 37.045 36.8736L36.957 37.1671L38.855 36.9404L39.658 34.2606C41.0122 29.7413 40.1544 25.1027 37.3469 21.7647Z" fill="#F7BC14"/>
<path d="M34.6341 17.5568L20.4806 29.4606C20.4316 29.5018 20.3749 29.533 20.3138 29.5523C20.2528 29.5716 20.1885 29.5787 20.1247 29.5732C20.0609 29.5677 19.9988 29.5497 19.9419 29.5202C19.8851 29.4907 19.8346 29.4503 19.7934 29.4013L18.8977 28.3363C18.8565 28.2873 18.8253 28.2307 18.806 28.1696C18.7866 28.1085 18.7795 28.0443 18.785 27.9804C18.7905 27.9166 18.8085 27.8545 18.8381 27.7977C18.8676 27.7408 18.908 27.6904 18.957 27.6491L33.1106 15.7453C33.1596 15.7041 33.2163 15.6729 33.2773 15.6536C33.3384 15.6343 33.4026 15.6272 33.4665 15.6327C33.5303 15.6382 33.5924 15.6562 33.6492 15.6857C33.7061 15.7152 33.7565 15.7556 33.7978 15.8047L34.6934 16.8696C34.7346 16.9186 34.7658 16.9753 34.7851 17.0363C34.8045 17.0974 34.8116 17.1616 34.8061 17.2255C34.8006 17.2893 34.7825 17.3514 34.753 17.4082C34.7235 17.4651 34.6831 17.5155 34.6341 17.5568Z" fill="#FFB125"/>
<path d="M34.6938 16.8696L33.7982 15.8047C33.7569 15.7556 33.7065 15.7152 33.6496 15.6857C33.5928 15.6562 33.5307 15.6382 33.4669 15.6327C33.403 15.6272 33.3388 15.6343 33.2777 15.6536C33.2167 15.6729 33.16 15.7041 33.111 15.7453L30.6106 17.8483L32.1342 19.6598L34.6346 17.5568C34.7335 17.4735 34.7953 17.3543 34.8064 17.2255C34.8175 17.0966 34.777 16.9686 34.6938 16.8696Z" fill="#FF901D"/>
<path d="M30.2466 26.5552L32.7797 27.6654C32.8122 27.6797 32.8496 27.677 32.8798 27.6583L35.2304 26.201C35.3063 26.1539 35.4032 26.2144 35.3944 26.3032L35.1213 29.0553C35.1177 29.0906 35.1319 29.1254 35.1589 29.1483L37.2713 30.9335C37.3396 30.9912 37.312 31.102 37.2248 31.1211L34.5229 31.7118C34.5059 31.7156 34.49 31.7234 34.4766 31.7347C34.4632 31.7459 34.4528 31.7602 34.4462 31.7764L33.4011 34.337C33.3674 34.4197 33.2534 34.4278 33.2083 34.3507L31.8116 31.9636C31.8027 31.9485 31.7904 31.9358 31.7755 31.9265C31.7607 31.9173 31.7438 31.9118 31.7264 31.9105L28.9682 31.7078C28.8791 31.7013 28.8362 31.5954 28.8956 31.5287L30.7342 29.4627C30.7578 29.4362 30.7669 29.3998 30.7584 29.3653L30.0987 26.6795C30.0774 26.5928 30.1649 26.5193 30.2466 26.5552Z" fill="white"/>
<path d="M54.9345 47.2986L46.3033 54.5578C45.9286 54.873 45.3614 54.7814 45.105 54.3643L43.6785 52.0442C43.5779 51.8806 43.5394 51.6863 43.5701 51.4967C43.6007 51.3071 43.6984 51.1348 43.8453 51.0112L51.8618 44.2691C52.0087 44.1455 52.1952 44.0788 52.3872 44.0811C52.5793 44.0834 52.7641 44.1547 52.908 44.2818L54.9493 46.0849C55.3162 46.409 55.3092 46.9836 54.9345 47.2986Z" fill="#FFB125"/>
<path d="M54.9492 46.0849L52.9079 44.2818C52.764 44.1547 52.5792 44.0834 52.3871 44.0811C52.1951 44.0788 52.0086 44.1455 51.8617 44.2691L49.5227 46.2363L52.7784 49.112L54.9345 47.2986C55.3093 46.9836 55.3162 46.409 54.9492 46.0849Z" fill="#FF901D"/>
<path d="M46.2031 47.326C46.7877 47.9557 47.7722 47.9921 48.4017 47.4073L50.3489 45.5983C50.9781 45.0138 51.0145 44.03 50.4302 43.4005C49.8455 42.7708 48.8611 42.7343 48.2316 43.3192L46.2844 45.1282C45.6551 45.7127 45.6188 46.6965 46.2031 47.326Z" fill="#F4C28C"/>
<path d="M46.2844 45.1282L48.2316 43.3192C48.8611 42.7344 49.8456 42.7707 50.4302 43.4005C50.7691 43.7656 50.8988 44.25 50.8254 44.7066C50.2331 44.2019 49.3437 44.2094 48.7595 44.752L46.8124 46.5609C46.5582 46.7964 46.3904 47.1104 46.3358 47.4526C46.2891 47.413 46.2448 47.3707 46.203 47.3259C45.6188 46.6966 45.6552 45.7127 46.2844 45.1282Z" fill="#FED9A8"/>
<path d="M44.6429 44.518C45.2363 45.1573 46.2357 45.1942 46.8748 44.6006L48.7875 42.8236C49.4262 42.2303 49.4631 41.2315 48.87 40.5926C48.2766 39.9533 47.2772 39.9164 46.6382 40.5101L44.7255 42.287C44.0868 42.8804 44.0498 43.8791 44.6429 44.518Z" fill="#F4C28C"/>
<path d="M44.7255 42.287L46.6382 40.5101C47.2772 39.9164 48.2765 39.9533 48.87 40.5926C49.2099 40.9588 49.3425 41.4432 49.2738 41.9016C48.6726 41.3784 47.7612 41.3825 47.1641 41.9371L45.2514 43.714C44.9891 43.9571 44.8176 44.2823 44.765 44.6359C44.7223 44.5988 44.6815 44.5594 44.6429 44.5179C44.0498 43.8791 44.0868 42.8804 44.7255 42.287Z" fill="#FED9A8"/>
<path d="M42.4841 42.2251C43.0775 42.8643 44.0769 42.9012 44.7159 42.3076L46.6286 40.5306C47.2673 39.9373 47.3042 38.9386 46.7111 38.2996C46.1177 37.6603 45.1183 37.6234 44.4793 38.2171L42.5666 39.9941C41.9278 40.5874 41.8909 41.5861 42.4841 42.2251Z" fill="#F4C28C"/>
<path d="M42.5665 39.9941L44.4792 38.2171C45.1183 37.6234 46.1176 37.6603 46.7111 38.2996C46.752 38.3437 46.7897 38.3897 46.8246 38.4369C46.4651 38.4617 46.1251 38.6093 45.8615 38.8549L43.9487 40.6318C43.3541 41.1842 43.2814 42.0878 43.7527 42.7255C43.2925 42.7578 42.8223 42.5895 42.484 42.2251C41.8909 41.5861 41.9278 40.5874 42.5665 39.9941Z" fill="#FED9A8"/>
<path d="M40.4047 39.8452C40.9981 40.4844 41.9975 40.5214 42.6365 39.9277L44.5492 38.1507C45.1879 37.5574 45.2248 36.5587 44.6317 35.9197C44.0383 35.2805 43.0389 35.2435 42.3999 35.8372L40.4872 37.6142C39.8485 38.2076 39.8116 39.2062 40.4047 39.8452Z" fill="#F4C28C"/>
<path d="M40.4872 37.6141L42.3999 35.8372C43.0389 35.2435 44.0383 35.2805 44.6317 35.9197C44.9713 36.2855 45.104 36.7692 45.0358 37.2274C44.4346 36.7032 43.5224 36.7069 42.925 37.2619L41.0123 39.0389C40.7496 39.2822 40.578 39.608 40.5256 39.9622C40.4838 39.9257 40.4434 39.8867 40.4047 39.8451C39.8116 39.2062 39.8485 38.2076 40.4872 37.6141Z" fill="#FED9A8"/>
<path d="M44.0595 41.053L43.7048 41.3825C43.1467 41.9009 42.2855 41.8812 41.7808 41.3383L40.8877 40.3777C40.4506 39.9075 39.7039 39.8928 39.2234 40.345C39.4923 44.5049 33.6653 45.3049 33.6653 45.3049L36.142 39.2129C36.2957 38.7569 36.5596 38.3458 36.9103 38.0162L38.6693 36.3607C39.5244 35.5558 40.8535 35.5815 41.6322 36.4179L44.1557 39.1282C44.6614 39.6716 44.6183 40.5337 44.0595 41.053Z" fill="#FED9A8"/>
<path d="M36.004 26.3642C36.0178 26.2305 35.9936 26.0955 35.9342 25.9749C35.8748 25.8542 35.7826 25.7527 35.6682 25.682C35.5544 25.6105 35.4226 25.5724 35.2881 25.5723C35.1537 25.5721 35.0218 25.6098 34.9078 25.6811L32.7827 26.9986L30.4927 25.9949C30.3698 25.9404 30.2339 25.9217 30.1008 25.9408C29.9677 25.96 29.8427 26.0163 29.7401 26.1033C29.6368 26.1895 29.5599 26.303 29.5182 26.4309C29.4765 26.5588 29.4716 26.6958 29.5042 26.8263L30.1005 29.2545L28.4384 31.1221C28.3486 31.2222 28.2888 31.3456 28.2658 31.4782C28.2429 31.6107 28.2578 31.7471 28.3088 31.8716C28.3588 31.9964 28.443 32.1046 28.5517 32.1838C28.6604 32.263 28.7893 32.31 28.9235 32.3193L31.4171 32.5025L32.6799 34.6608C32.7429 34.7694 32.8334 34.8595 32.9423 34.9221C33.0512 34.9846 33.1746 35.0174 33.3002 35.0171C33.4436 35.018 33.584 34.9757 33.7031 34.8958C33.8222 34.8159 33.9146 34.7021 33.9682 34.5691L34.913 32.2541L37.3561 31.72C37.4875 31.6916 37.6084 31.6269 37.7047 31.5331C37.8011 31.4393 37.869 31.3203 37.9009 31.1896C37.9337 31.0592 37.9291 30.9222 37.8877 30.7943C37.8463 30.6664 37.7697 30.5528 37.6667 30.4664L35.757 28.8525L36.004 26.3642ZM36.0952 30.7418L34.3923 31.1142C34.2783 31.1391 34.172 31.1914 34.0826 31.2666C33.9932 31.3417 33.9235 31.4375 33.8794 31.5456L33.2207 33.1594L32.3401 31.6545C32.281 31.5538 32.1985 31.469 32.0994 31.4074C32.0004 31.3457 31.8879 31.309 31.7715 31.3004L30.0331 31.1727L31.1921 29.8703C31.2697 29.7831 31.3248 29.6783 31.3529 29.5651C31.381 29.4518 31.3811 29.3334 31.3533 29.2201L30.9376 27.5273L32.5336 28.2267C32.6406 28.2737 32.7574 28.294 32.874 28.2857C32.9905 28.2775 33.1033 28.241 33.2026 28.1794L34.6842 27.2609L34.5121 28.9955C34.5005 29.1117 34.5174 29.2289 34.5613 29.3372C34.6051 29.4454 34.6746 29.5414 34.7638 29.6168L36.0952 30.7418Z" fill="black"/>
<path d="M55.3547 45.6257L53.3133 43.8226C52.7927 43.3628 51.9992 43.3532 51.4676 43.8002L51.376 43.8772C51.2858 43.5521 51.1209 43.2443 50.879 42.9838C50.5834 42.6654 50.2081 42.4476 49.7947 42.3497C50.0332 41.6173 49.879 40.7801 49.319 40.1768C48.9206 39.7477 48.3791 39.4995 47.794 39.4779C47.7764 39.4772 47.7589 39.4775 47.7414 39.4772C47.7682 38.9093 47.5764 38.3314 47.16 37.8828C46.7666 37.4589 46.2333 37.212 45.6565 37.1851C45.7085 36.5893 45.5186 35.9745 45.0807 35.5027C44.6823 35.0736 44.1408 34.8254 43.5557 34.8038C42.9705 34.7818 42.4122 34.9897 41.9833 35.3881L41.6925 35.6582C41.2702 35.3534 40.765 35.1803 40.2284 35.1626C40.1612 35.1606 40.0939 35.1611 40.0267 35.164L40.2446 34.4369C40.6353 33.1329 40.8785 30.7691 40.8712 30.8959C40.8923 30.906 40.913 30.9166 40.9346 30.9262C41.2318 31.0584 41.5536 31.1266 41.8789 31.1264C42.2476 31.1264 42.6147 31.039 42.9426 30.8654C43.6254 30.5039 44.1099 29.7484 44.1485 28.9853C44.1851 28.2591 43.8432 27.6178 43.1856 27.1795C42.9041 26.9921 42.5238 27.0681 42.3363 27.3495C42.1488 27.6309 42.2249 28.0112 42.5064 28.1988C42.7988 28.3936 42.9397 28.6374 42.9252 28.9234C42.9082 29.2599 42.6745 29.6214 42.3695 29.7828C42.0899 29.9309 41.7313 29.9404 41.4335 29.8075C41.2433 29.7227 40.9968 29.5424 40.9025 29.1648C40.6215 28.0402 41.2658 26.924 42.0117 25.6317C43.3629 23.2908 45.0443 20.3776 41.5245 16.2173L40.0668 14.4943C39.7733 14.1472 39.3621 13.9357 38.9091 13.8984C38.4562 13.8612 38.016 14.0028 37.6696 14.2973C37.2069 14.6909 36.8464 15.1907 36.6189 15.754C36.3914 16.3173 36.3038 16.9273 36.3635 17.5318L36.4362 18.2678C36.4543 18.4535 36.4287 18.6409 36.3614 18.8149C36.294 18.9889 36.1869 19.1447 36.0485 19.2698L36.8377 20.2083C37.1283 19.9547 37.3541 19.6354 37.4963 19.2769C37.6384 18.9184 37.6929 18.5311 37.655 18.1473L37.5823 17.4113C37.542 17.0037 37.6011 16.5924 37.7545 16.2126C37.9079 15.8328 38.1509 15.4957 38.463 15.2304C38.5103 15.1898 38.5653 15.159 38.6247 15.1399C38.684 15.1208 38.7466 15.1138 38.8087 15.1191C38.8709 15.1241 38.9314 15.1413 38.9869 15.1698C39.0423 15.1984 39.0916 15.2376 39.1317 15.2853L40.5894 17.0083C43.5528 20.5111 42.2889 22.701 40.9508 25.0193C40.7415 25.382 40.5305 25.748 40.3396 26.1191C39.8336 24.38 38.9866 22.7632 37.8155 21.3709L35.0125 18.0382L35.0282 18.025C35.1391 17.9323 35.2305 17.8185 35.2971 17.6902C35.3637 17.5619 35.4042 17.4217 35.4162 17.2777C35.4291 17.1337 35.4132 16.9887 35.3696 16.8509C35.326 16.7131 35.2555 16.5853 35.1621 16.4749L34.2665 15.4101C34.1738 15.2992 34.06 15.2078 33.9317 15.1412C33.8034 15.0746 33.6632 15.0341 33.5192 15.0221C33.3752 15.0093 33.2301 15.0251 33.0923 15.0687C32.9545 15.1123 32.8267 15.1828 32.7164 15.2761L18.563 27.1799C18.0988 27.5703 18.0387 28.2656 18.4291 28.73L19.3248 29.7949C19.4175 29.9057 19.5313 29.9971 19.6596 30.0637C19.7879 30.1303 19.9281 30.1708 20.0721 30.1829C20.2161 30.1958 20.3612 30.1799 20.499 30.1363C20.6368 30.0927 20.7645 30.0221 20.8748 29.9287L20.8906 29.9154L21.9434 31.1671C21.797 31.2802 21.6265 31.3578 21.4451 31.3938C21.2637 31.4299 21.0764 31.4233 20.8979 31.3747L20.1849 31.179C19.599 31.0182 18.9829 31.0018 18.3893 31.1311C17.7958 31.2603 17.2423 31.5315 16.7764 31.9213C16.6045 32.0642 16.4628 32.2399 16.3595 32.4381C16.2562 32.6364 16.1932 32.8531 16.1743 33.0759C16.1542 33.2985 16.1785 33.5229 16.2458 33.736C16.3132 33.9491 16.4222 34.1468 16.5665 34.3174L18.0192 36.0446C21.5268 40.2151 24.6818 39.0488 27.2169 38.1115C28.361 37.6886 29.3775 37.3128 30.2902 37.4446C30.4599 37.4925 30.6305 37.5372 30.8018 37.5788C30.8301 37.5899 30.8583 37.6013 30.8865 37.6136C31.2427 37.7701 31.379 38.0435 31.4306 38.2452C31.5113 38.561 31.4415 38.913 31.2484 39.1637C31.0379 39.4371 30.6423 39.6062 30.3077 39.5666C30.0233 39.5326 29.8067 39.3526 29.6639 39.0316C29.5964 38.8855 29.4741 38.7718 29.3235 38.7151C29.1728 38.6584 29.006 38.6633 28.8589 38.7287C28.7118 38.7941 28.5964 38.9148 28.5376 39.0646C28.4788 39.2144 28.4813 39.3814 28.5447 39.5293C28.8658 40.2514 29.4404 40.6966 30.1623 40.7828C30.2422 40.7923 30.3226 40.797 30.403 40.797C31.0906 40.7969 31.7969 40.4587 32.2187 39.911C32.6426 39.3606 32.7916 38.6244 32.6171 37.9419C32.6131 37.9264 32.6082 37.9112 32.6039 37.8958C33.1661 37.9593 33.7313 37.9913 34.2971 37.9915C34.9089 37.9915 35.5277 37.9549 36.1497 37.8807L36.2039 37.8742C35.9246 38.207 35.7088 38.5883 35.5675 38.9992L33.1601 44.9207L20.3187 54.7947C20.2173 54.8726 20.1428 54.9804 20.1058 55.1028C20.0687 55.2253 20.0709 55.3563 20.1121 55.4774C20.1533 55.5985 20.2314 55.7037 20.3354 55.7781C20.4394 55.8526 20.5641 55.8926 20.6921 55.8926H35.2421C35.3239 55.8926 35.4048 55.8762 35.4802 55.8444C35.5555 55.8127 35.6237 55.7661 35.6808 55.7075L36.4912 54.8755C36.6037 54.759 36.6654 54.6026 36.6629 54.4407C36.6604 54.2788 36.5939 54.1245 36.4779 54.0114C36.3619 53.8984 36.2058 53.836 36.0439 53.8377C35.882 53.8395 35.7273 53.9053 35.6138 54.0208L34.9837 54.6678H22.4933L34.0385 45.7906C34.0471 45.7841 34.0547 45.7769 34.0627 45.77C34.0682 45.7654 34.0739 45.7608 34.0792 45.7559C34.0987 45.738 34.1169 45.7192 34.1336 45.6993C34.1369 45.6954 34.1399 45.6912 34.1431 45.6871C34.1584 45.6681 34.1723 45.6483 34.185 45.6278C34.1874 45.6239 34.19 45.6202 34.1923 45.6163C34.2068 45.5919 34.2192 45.5667 34.2301 45.5407C34.2308 45.539 34.2319 45.5375 34.2325 45.5357L36.7092 39.4438C36.714 39.432 36.7184 39.4202 36.7224 39.4082C36.8442 39.0478 37.0529 38.723 37.3299 38.4624L39.0889 36.8068C39.3909 36.5225 39.7804 36.3732 40.188 36.3868C40.5728 36.3995 40.9265 36.5587 41.184 36.8353L43.7074 39.5456C43.7072 39.5454 43.7076 39.5457 43.7074 39.5456C43.8359 39.6836 43.9026 39.8658 43.8957 40.0588C43.8882 40.266 43.7983 40.4598 43.6427 40.6044L43.2881 40.934C43.0427 41.1618 42.6941 41.2049 42.4234 41.0669C42.4163 41.0631 42.4089 41.0599 42.4016 41.0563C42.3374 41.0207 42.2793 40.9751 42.2293 40.9214L41.3362 39.9607C41.017 39.6174 40.5809 39.4196 40.1084 39.4038C39.6241 39.388 39.1602 39.5635 38.8036 39.899C38.7376 39.9612 38.6862 40.0372 38.6532 40.1216C38.6201 40.2059 38.6061 40.2966 38.6124 40.3871C38.6153 40.4336 38.6174 40.4796 38.6186 40.5254C38.6192 40.5511 38.6192 40.5766 38.6193 40.6022C38.6195 40.6219 38.6198 40.6417 38.6196 40.6612C38.6192 40.6938 38.6181 40.7262 38.6169 40.7584C38.6165 40.7701 38.6161 40.7819 38.6156 40.7936C38.6137 40.83 38.6112 40.8662 38.6083 40.902L38.6071 40.9162C38.6053 40.9315 38.6041 40.9468 38.6034 40.9623C38.5462 41.5293 38.3413 42.0367 37.9833 42.5014C37.8841 42.6301 37.8402 42.7928 37.8611 42.9539C37.8819 43.1149 37.966 43.2611 38.0946 43.3602C38.2233 43.4594 38.386 43.5033 38.5471 43.4824C38.7082 43.4615 38.8543 43.3775 38.9534 43.2489C39.161 42.9807 39.3365 42.6892 39.4762 42.3803L44.6851 49.5046L44.5608 49.6091C44.4808 49.6364 44.4073 49.6802 44.345 49.7375C43.9121 50.1357 43.3823 50.4041 42.8111 50.515L38.9761 50.7907C38.8264 50.8014 38.686 50.8667 38.5813 50.9742L37.6022 51.9794C37.4909 52.0961 37.4302 52.252 37.4332 52.4133C37.4361 52.5746 37.5026 52.7281 37.6181 52.8407C37.7337 52.9532 37.8889 53.0156 38.0502 53.0144C38.2115 53.0132 38.3658 52.9484 38.4795 52.8341L39.2961 51.9956L42.9339 51.7343C42.9409 51.7338 42.9477 51.7324 42.9546 51.7316C42.9701 51.9559 43.0394 52.1731 43.1568 52.3648L44.5833 54.6849C44.6897 54.8582 44.8322 55.0064 45.0012 55.1194C45.1701 55.2325 45.3614 55.3078 45.5621 55.3401C45.7628 55.3726 45.9681 55.3615 46.1641 55.3073C46.36 55.2532 46.542 55.1574 46.6975 55.0265L55.3287 47.7674C55.4843 47.6366 55.6099 47.4738 55.6968 47.29C55.7837 47.1063 55.8299 46.9059 55.8324 46.7026C55.8349 46.4993 55.7936 46.2979 55.7111 46.112C55.6287 45.9262 55.5071 45.7603 55.3547 45.6257ZM26.7922 36.9627C24.2813 37.891 21.9098 38.7677 18.9567 35.2563L17.504 33.5292C17.4224 33.4321 17.3836 33.3092 17.3946 33.1828C17.4057 33.0565 17.4654 32.9421 17.5626 32.8608C17.8768 32.598 18.25 32.4152 18.6502 32.328C19.0504 32.2408 19.4658 32.2519 19.8608 32.3602L20.5739 32.5559C20.9437 32.6573 21.3323 32.6693 21.7077 32.591C22.083 32.5128 22.4344 32.3465 22.7329 32.1058L23.6937 33.2482C24.8675 34.644 26.3193 35.7576 27.9507 36.5546C27.5623 36.6782 27.1756 36.821 26.7922 36.9627ZM39.0712 34.0853L38.6088 35.6284C38.4814 35.714 38.3612 35.8098 38.2494 35.9148L37.6634 36.4663L36.0046 36.6645C31.5454 37.1973 27.2934 35.6253 24.631 32.4598L21.8281 29.1271L22.9223 28.2068C22.9839 28.155 23.0346 28.0917 23.0717 28.0203C23.1087 27.9489 23.1314 27.8709 23.1383 27.7908C23.1452 27.7107 23.1363 27.63 23.112 27.5533C23.0877 27.4766 23.0486 27.4055 22.9968 27.3439C22.9451 27.2824 22.8817 27.2316 22.8103 27.1945C22.7389 27.1574 22.6609 27.1348 22.5808 27.1279C22.5007 27.1209 22.42 27.1299 22.3433 27.1542C22.2666 27.1784 22.1955 27.2176 22.1339 27.2694L20.5712 28.5836L20.571 28.5837L20.5707 28.584L20.1819 28.911L19.4467 28.037L33.4095 16.2937L34.1447 17.1679L33.7564 17.4944L33.7556 17.495L33.7549 17.4957L24.3427 25.4117C24.2184 25.5162 24.1407 25.6659 24.1267 25.8277C24.1127 25.9895 24.1636 26.1503 24.2682 26.2746C24.3727 26.3989 24.5224 26.4766 24.6842 26.4906C24.846 26.5046 25.0068 26.4537 25.1311 26.3491L34.0753 18.8265L36.8782 22.1592C39.5406 25.3249 40.3604 29.7833 39.0712 34.0853ZM49.3251 43.5163C49.4489 43.5206 49.5707 43.5493 49.6833 43.601C49.796 43.6526 49.8972 43.7261 49.9813 43.8171C50.1226 43.9696 50.2094 44.1646 50.2285 44.3716C50.2475 44.5786 50.1976 44.7861 50.0865 44.9618L47.4181 47.2061C47.2762 47.2185 47.1333 47.1982 47.0005 47.1467C46.8677 47.0952 46.7484 47.014 46.6519 46.9092C46.2983 46.5282 46.3204 45.9306 46.7011 45.5768L47.0877 45.2175C47.159 45.1658 47.2271 45.1099 47.2918 45.0501L48.7852 43.6627C48.9462 43.5604 49.1344 43.5094 49.3251 43.5163ZM47.1274 40.8988C47.3051 40.7626 47.5249 40.6929 47.7487 40.7018C47.8756 40.7062 48.0004 40.7357 48.1159 40.7886C48.2313 40.8415 48.3351 40.9168 48.4213 41.0101C48.7838 41.4005 48.7612 42.0132 48.3709 42.3757L48.0181 42.7035C47.9471 42.755 47.8791 42.8107 47.8147 42.8703L46.3194 44.2594C46.1544 44.3656 45.9607 44.4183 45.7646 44.4104C45.6376 44.4061 45.5128 44.3766 45.3974 44.3237C45.2819 44.2708 45.1781 44.1955 45.0919 44.1022C44.7532 43.7373 44.751 43.1785 45.0708 42.811C45.0916 42.793 45.1124 42.7749 45.1327 42.7561L47.0454 40.9792C47.0736 40.9529 47.1009 40.9262 47.1274 40.8988ZM43.8813 37.9351L42.5641 36.5203L42.8169 36.2855C43.006 36.1098 43.2523 36.02 43.5104 36.0278C43.6373 36.0321 43.7621 36.0616 43.8776 36.1145C43.993 36.1674 44.0968 36.2427 44.183 36.336C44.5455 36.7264 44.5228 37.3391 44.1325 37.7018L43.8813 37.9351ZM44.1216 41.8314L44.4763 41.5018C44.8717 41.1344 45.1002 40.6377 45.1196 40.1032C45.1364 39.6391 44.992 39.1957 44.7111 38.8373L44.8961 38.6655C44.9888 38.5787 45.0979 38.5112 45.217 38.4669C45.336 38.4227 45.4627 38.4025 45.5896 38.4077C45.7165 38.4121 45.8413 38.4416 45.9568 38.4945C46.0722 38.5474 46.176 38.6227 46.2622 38.716C46.601 39.081 46.6031 39.6401 46.2831 40.0077C46.2622 40.0254 46.2417 40.0436 46.2215 40.0621L44.3088 41.8391C44.2805 41.8654 44.2531 41.8923 44.2265 41.9197C44.0835 42.0292 43.9123 42.0959 43.7329 42.1121C43.8732 42.0344 44.0037 41.9401 44.1216 41.8314ZM39.8408 40.8037C39.8426 40.7575 39.8442 40.7114 39.8446 40.6648C39.9158 40.6379 39.9915 40.6255 40.0675 40.6282C40.2117 40.633 40.3436 40.6923 40.4391 40.7949L41.3322 41.7556C41.4218 41.8521 41.5212 41.9391 41.6286 42.0152C41.7268 42.246 41.8643 42.458 42.0352 42.6416C42.4335 43.0707 42.9751 43.3189 43.5602 43.3406C43.5779 43.3412 43.5953 43.3413 43.6129 43.3416C43.5862 43.9094 43.7779 44.4871 44.1943 44.9356C44.4927 45.2571 44.8715 45.477 45.2888 45.5763C45.045 46.3047 45.1959 47.1412 45.7542 47.7425C45.9082 47.9084 46.0876 48.0488 46.2855 48.1586L45.6245 48.7145L39.8408 40.8037ZM54.5403 46.8299L45.9091 54.089C45.8884 54.1066 45.8641 54.1195 45.8379 54.1267C45.8117 54.1339 45.7842 54.1354 45.7574 54.1309C45.7306 54.1267 45.705 54.1167 45.6824 54.1016C45.6598 54.0865 45.6408 54.0666 45.6267 54.0434L44.2002 51.7232C44.1762 51.6847 44.167 51.6389 44.1742 51.5941C44.1814 51.5494 44.2046 51.5088 44.2394 51.4798L52.2558 44.7377C52.2899 44.7091 52.3329 44.6935 52.3774 44.6936C52.4222 44.6936 52.467 44.7094 52.5024 44.7406L54.5437 46.5437C54.6002 46.5936 54.608 46.6553 54.6075 46.6877C54.6074 46.7149 54.6013 46.7417 54.5897 46.7662C54.578 46.7908 54.5612 46.8125 54.5403 46.8299Z" fill="black"/>
</g>
<defs>
<filter id="filter0_f_5957_45842" x="-1.1" y="-2.20742" width="74.2" height="74.2" filterUnits="userSpaceOnUse" color-interpolation-filters="sRGB">
<feFlood flood-opacity="0" result="BackgroundImageFix"/>
<feBlend mode="normal" in="SourceGraphic" in2="BackgroundImageFix" result="shape"/>
<feGaussianBlur stdDeviation="8.05" result="effect1_foregroundBlur_5957_45842"/>
</filter>
<clipPath id="clip0_5957_45842">
<rect width="42" height="42" fill="white" transform="translate(15 13.8926)"/>
</clipPath>
</defs>
</svg>
