<svg width="73" height="70" viewBox="0 0 73 70" fill="none" xmlns="http://www.w3.org/2000/svg">
<g opacity="0.7" clip-path="url(#clip0_5957_45783)" filter="url(#filter0_f_5957_45783)">
<path d="M22.6834 17.6472L12.6445 13.5371L16.7547 23.576C17.6038 25.65 18.9461 27.4856 20.6651 28.9235L41.8834 46.6729L44.8061 45.6987L45.7803 42.776L34.0999 28.8126L32.4114 28.4929L31.8275 26.096L28.031 21.5575C26.593 19.8386 24.7574 18.4964 22.6834 17.6472Z" fill="#FFE09C"/>
<path d="M13.743 16.22L21.9002 19.5594C23.6567 20.2786 25.2285 21.4283 26.4458 22.8834L41.3017 40.6424L39.9349 40.8274L39.4224 44.6142L41.8834 46.6728L45.7803 42.7758L28.031 21.5577C26.593 19.8387 24.7574 18.4964 22.6834 17.6472L12.6445 13.5371L13.743 16.22Z" fill="#FFD18D"/>
<path d="M41.3018 40.6423L41.3009 40.6425L42.1725 41.6844C42.634 42.236 42.5983 43.0352 42.0904 43.5431L40.2917 45.3412L41.8834 46.6727L45.7803 42.7757L43.7215 40.3145L41.3018 40.6423Z" fill="#FBBD80"/>
<path d="M52.5997 56.2483C54.1216 56.2483 55.3552 55.0146 55.3552 53.4928C55.3552 51.971 54.1216 50.7373 52.5997 50.7373C51.0779 50.7373 49.8442 51.971 49.8442 53.4928C49.8442 55.0146 51.0779 56.2483 52.5997 56.2483Z" fill="#FFE077"/>
<path d="M50.6514 51.5445C50.3965 51.7993 50.2067 52.0935 50.0725 52.4057C51.0782 51.9735 52.2869 52.1634 53.1082 52.9845C53.9293 53.8056 54.1191 55.0145 53.687 56.0202C53.9993 55.886 54.2934 55.6963 54.5483 55.4413C55.6244 54.3653 55.6244 52.6205 54.5483 51.5445C53.4722 50.4683 51.7275 50.4683 50.6514 51.5445Z" fill="#FFD05B"/>
<path d="M43.8313 47.6465L46.754 44.7237L53.0866 51.0561L50.1639 53.9789L43.8313 47.6465Z" fill="#D48C64"/>
<path d="M45.2927 46.1846L46.754 44.7232L53.0866 51.0556L51.6253 52.5169L45.2927 46.1846Z" fill="#C6805D"/>
<path d="M49.6773 42.7758L41.8835 50.5697C41.3454 51.1077 40.4731 51.1077 39.935 50.5697C39.397 50.0316 39.397 49.1593 39.935 48.6212L47.7289 40.8274C48.2669 40.2893 49.1393 40.2893 49.6773 40.8274C50.2154 41.3654 50.2154 42.2378 49.6773 42.7758Z" fill="#FFE077"/>
<path d="M47.7289 40.8274L45.7277 42.8285C46.2659 42.2904 47.1381 42.2905 47.6762 42.8286C48.2142 43.3666 48.2142 44.239 47.6762 44.7771L41.8833 50.5698L41.8835 50.5697L49.6773 42.7758C50.2154 42.2378 50.2154 41.3654 49.6773 40.8274C49.1393 40.2893 48.2669 40.2893 47.7289 40.8274Z" fill="#FFD05B"/>
<path d="M51.2454 23.576L55.3555 13.5371L45.3166 17.6472C43.2426 18.4964 41.407 19.8387 39.9691 21.5577L22.2197 42.776L23.194 45.6986L26.1167 46.6729L47.335 28.9235C49.054 27.4856 50.3962 25.65 51.2454 23.576Z" fill="#ECEAEC"/>
<path d="M52.6725 14.6356L49.3331 22.7928C48.614 24.5493 47.4642 26.1211 46.0091 27.3384L28.2501 42.1943L28.0651 40.8275L24.2784 40.315L22.2197 42.776L26.1167 46.6729L47.335 28.9235C49.054 27.4856 50.3963 25.65 51.2455 23.576L55.3554 13.5371L52.6725 14.6356Z" fill="#DBD8DB"/>
<path d="M28.2501 42.1946L28.25 42.1937L27.2081 43.0653C26.6564 43.5268 25.8572 43.4911 25.3493 42.9832L23.5512 41.1846L22.2197 42.7762L26.1167 46.6731L28.578 44.6143L28.2501 42.1946Z" fill="#C9C5C9"/>
<path d="M15.4 56.2483C16.9219 56.2483 18.1555 55.0146 18.1555 53.4928C18.1555 51.971 16.9219 50.7373 15.4 50.7373C13.8782 50.7373 12.6445 51.971 12.6445 53.4928C12.6445 55.0146 13.8782 56.2483 15.4 56.2483Z" fill="#FFE077"/>
<path d="M17.3488 51.5437C17.094 51.2888 16.7997 51.099 16.4875 50.9648C16.9198 51.9705 16.7298 53.1793 15.9087 54.0005C15.0876 54.8216 13.8787 55.0115 12.873 54.5794C13.0072 54.8916 13.1969 55.1858 13.4519 55.4406C14.5279 56.5167 16.2727 56.5167 17.3488 55.4406C18.4249 54.3645 18.4249 52.6198 17.3488 51.5437Z" fill="#FFD05B"/>
<path d="M21.2458 44.7236L24.1685 47.6464L17.8359 53.9788L14.9132 51.056L21.2458 44.7236Z" fill="#D48C64"/>
<path d="M16.3748 52.5176L22.7071 46.185L24.1685 47.6463L17.8361 53.9789L16.3748 52.5176Z" fill="#C6805D"/>
<path d="M26.1168 50.5697L18.323 42.7758C17.7849 42.2378 17.7849 41.3654 18.323 40.8274C18.861 40.2893 19.7334 40.2893 20.2714 40.8274L28.0653 48.6212C28.6033 49.1593 28.6033 50.0316 28.0653 50.5697C27.5272 51.1077 26.6548 51.1077 26.1168 50.5697Z" fill="#FFE077"/>
<path d="M28.0652 48.6219L26.0641 46.6208C26.6022 47.1589 26.6021 48.0312 26.064 48.5692C25.5259 49.1073 24.6536 49.1073 24.1155 48.5692L18.3228 42.7764L18.3229 42.7765L26.1168 50.5704C26.6548 51.1084 27.5272 51.1084 28.0652 50.5704C28.6033 50.0323 28.6033 49.16 28.0652 48.6219Z" fill="#FFD05B"/>
<path d="M26.1166 46.6729L47.335 28.9235C49.054 27.4856 50.3963 25.65 51.2455 23.576L55.3555 13.5371L45.3166 17.6472C43.2426 18.4963 41.407 19.8386 39.9691 21.5576L22.2197 42.776" stroke="black" stroke-width="1.17188" stroke-miterlimit="10" stroke-linecap="round" stroke-linejoin="round"/>
<path d="M26.1166 50.5697L18.3227 42.7758C17.7847 42.2378 17.7847 41.3654 18.3227 40.8274C18.8608 40.2893 19.7331 40.2893 20.2712 40.8274L28.065 48.6212C28.6031 49.1593 28.6031 50.0316 28.065 50.5697C27.527 51.1077 26.6546 51.1077 26.1166 50.5697Z" stroke="black" stroke-width="1.17188" stroke-miterlimit="10" stroke-linecap="round" stroke-linejoin="round"/>
<path d="M20.7585 45.2109L23.6812 48.1337L17.8357 53.979L14.913 51.0563L20.7585 45.2109Z" stroke="black" stroke-width="1.17188" stroke-miterlimit="10" stroke-linecap="round" stroke-linejoin="round"/>
<path d="M15.2152 50.7547C14.5731 50.7977 13.9424 51.0532 13.4516 51.544C12.3755 52.6201 12.3755 54.3648 13.4516 55.4409C14.5277 56.517 16.2724 56.517 17.3485 55.4409C17.8393 54.9501 18.0948 54.3194 18.1379 53.6773M46.0555 22.8371L28.0651 40.8275M28.0651 40.8275L24.2539 40.3117M28.0651 40.8275L28.5809 44.6388M18.8099 47.16L21.7326 50.0827M16.8614 49.1084L19.7842 52.0312M39.7285 35.5413L45.7804 42.776M28.2788 35.2925L20.665 28.9235C18.946 27.4856 17.6038 25.65 16.7546 23.576L12.6446 13.5371L22.6834 17.6472C24.7575 18.4963 26.5931 19.8386 28.031 21.5576L32.175 26.5115M41.8834 46.6729L34.1418 40.1969M42.8269 45.7294L39.935 48.6213C39.3969 49.1593 39.3969 50.0317 39.935 50.5697C40.473 51.1078 41.3454 51.1078 41.8834 50.5697L49.6773 42.7759C50.2153 42.2378 50.2153 41.3655 49.6773 40.8274C49.1392 40.2894 48.2669 40.2894 47.7288 40.8274L44.7206 43.8357" stroke="black" stroke-width="1.17188" stroke-miterlimit="10" stroke-linecap="round" stroke-linejoin="round"/>
<path d="M53.0872 51.0566L50.1645 53.9794L44.319 48.1341L47.2416 45.2113L53.0872 51.0566Z" stroke="black" stroke-width="1.17188" stroke-miterlimit="10" stroke-linecap="round" stroke-linejoin="round"/>
<path d="M52.7849 50.7545C53.427 50.7975 54.0577 51.053 54.5485 51.5438C55.6246 52.6199 55.6246 54.3646 54.5485 55.4407C53.4724 56.5169 51.7277 56.5169 50.6516 55.4407C50.1608 54.95 49.9053 54.3193 49.8622 53.6771M37.0223 37.9146L39.935 40.8273M39.935 40.8273L43.7462 40.3115M39.935 40.8273L39.4192 44.6386M21.9446 22.8369L31.0748 31.9672M49.1902 47.1598L46.2675 50.0825M51.1387 49.1083L48.2159 52.031" stroke="black" stroke-width="1.17188" stroke-miterlimit="10" stroke-linecap="round" stroke-linejoin="round"/>
</g>
<defs>
<filter id="filter0_f_5957_45783" x="-4.1" y="-3.20742" width="76.2" height="76.2" filterUnits="userSpaceOnUse" color-interpolation-filters="sRGB">
<feFlood flood-opacity="0" result="BackgroundImageFix"/>
<feBlend mode="normal" in="SourceGraphic" in2="BackgroundImageFix" result="shape"/>
<feGaussianBlur stdDeviation="8.05" result="effect1_foregroundBlur_5957_45783"/>
</filter>
<clipPath id="clip0_5957_45783">
<rect width="44" height="44" fill="white" transform="translate(12 12.8926)"/>
</clipPath>
</defs>
</svg>
