<svg width="15" height="16" viewBox="0 0 15 16" fill="none" xmlns="http://www.w3.org/2000/svg">
<path d="M4.58688 7.14299L7.49988 4.23007L10.4144 7.14449L12.1094 5.44949L7.49988 0.839844L2.89196 5.44799L4.58688 7.14299ZM0 8.33961L1.69505 6.64456L3.38999 8.33951L1.69496 10.0345L0 8.33961ZM4.58688 9.53669L7.49988 12.4496L10.4143 9.53527L12.1102 11.2294L12.1094 11.2303L7.49988 15.8398L2.8918 11.2318L2.88941 11.2294L4.58688 9.53669ZM11.6101 8.34054L13.3051 6.6455L15 8.34044L13.305 10.0355L11.6101 8.34054Z" fill="#F3BA2F"/>
<path d="M9.21908 8.33912H9.21983L7.49985 6.61914L6.22875 7.89024H6.22868L6.08265 8.03634L5.78145 8.33762L5.77905 8.33994L5.78145 8.34242L7.49985 10.0609L9.21983 8.34092L9.22065 8.33994L9.21908 8.33912Z" fill="#F3BA2F"/>
</svg>
