<svg width="13" height="14" viewBox="0 0 13 14" fill="none" xmlns="http://www.w3.org/2000/svg">
<mask id="path-1-outside-1_8012_70821" maskUnits="userSpaceOnUse" x="-0.469727" y="-0.298828" width="14" height="14" fill="black">
<rect fill="white" x="-0.469727" y="-0.298828" width="14" height="14"/>
<path fill-rule="evenodd" clip-rule="evenodd" d="M2.66276 11.2422C1.23393 10.2569 0.406891 8.5415 0.54529 6.62326C0.542665 6.61982 0.540396 6.6161 0.538529 6.61215C0.533937 6.60245 0.53193 6.59173 0.532702 6.58102C0.552575 6.32865 0.588586 6.07781 0.640513 5.83004C1.25078 2.89085 3.92033 0.701172 6.75802 0.701172L6.76464 0.701181C6.95785 0.700823 7.15185 0.710608 7.34605 0.730991C8.48819 0.851033 9.47473 1.32054 10.2272 2.02605C10.2041 2.00436 10.1807 1.98288 10.1572 1.96162C10.2405 2.03595 10.3249 2.10941 10.4095 2.18293L10.4095 2.18297C10.6456 2.38832 10.8822 2.59416 11.0961 2.82071C11.3602 3.10157 11.5903 3.41255 11.7816 3.74721C12.373 4.77704 12.5679 6.00017 12.4047 7.1709C12.2493 8.24872 11.8219 9.26923 11.1629 10.1363C10.6915 10.7606 10.1148 11.2936 9.46157 11.713C9.45835 11.7163 9.45472 11.7193 9.45076 11.7219C9.12902 11.9289 8.7894 12.1068 8.43595 12.2534C7.35488 12.6988 6.14522 12.8288 5.00431 12.5668C4.66632 12.4906 4.33882 12.3779 4.02736 12.2313C3.85953 12.1536 3.69598 12.0664 3.53752 11.97C3.13416 11.7206 2.78139 11.4028 2.42958 11.086L2.42941 11.0858C2.35381 11.0177 2.27825 10.9497 2.20225 10.8823C2.26308 10.9362 2.32588 10.9901 2.38968 11.0396C2.47845 11.1106 2.56955 11.1781 2.66276 11.2422ZM11.6763 6.98807C11.686 6.94142 11.6951 6.89485 11.7036 6.84836C11.7551 6.56878 11.786 6.29214 11.7974 6.01997C11.7618 6.89429 11.5299 7.76896 11.1329 8.54386C11.3751 8.06202 11.5591 7.54549 11.6731 7.00335L11.6762 6.98825L11.6763 6.98807Z"/>
</mask>
<path fill-rule="evenodd" clip-rule="evenodd" d="M2.66276 11.2422C1.23393 10.2569 0.406891 8.5415 0.54529 6.62326C0.542665 6.61982 0.540396 6.6161 0.538529 6.61215C0.533937 6.60245 0.53193 6.59173 0.532702 6.58102C0.552575 6.32865 0.588586 6.07781 0.640513 5.83004C1.25078 2.89085 3.92033 0.701172 6.75802 0.701172L6.76464 0.701181C6.95785 0.700823 7.15185 0.710608 7.34605 0.730991C8.48819 0.851033 9.47473 1.32054 10.2272 2.02605C10.2041 2.00436 10.1807 1.98288 10.1572 1.96162C10.2405 2.03595 10.3249 2.10941 10.4095 2.18293L10.4095 2.18297C10.6456 2.38832 10.8822 2.59416 11.0961 2.82071C11.3602 3.10157 11.5903 3.41255 11.7816 3.74721C12.373 4.77704 12.5679 6.00017 12.4047 7.1709C12.2493 8.24872 11.8219 9.26923 11.1629 10.1363C10.6915 10.7606 10.1148 11.2936 9.46157 11.713C9.45835 11.7163 9.45472 11.7193 9.45076 11.7219C9.12902 11.9289 8.7894 12.1068 8.43595 12.2534C7.35488 12.6988 6.14522 12.8288 5.00431 12.5668C4.66632 12.4906 4.33882 12.3779 4.02736 12.2313C3.85953 12.1536 3.69598 12.0664 3.53752 11.97C3.13416 11.7206 2.78139 11.4028 2.42958 11.086L2.42941 11.0858C2.35381 11.0177 2.27825 10.9497 2.20225 10.8823C2.26308 10.9362 2.32588 10.9901 2.38968 11.0396C2.47845 11.1106 2.56955 11.1781 2.66276 11.2422ZM11.6763 6.98807C11.686 6.94142 11.6951 6.89485 11.7036 6.84836C11.7551 6.56878 11.786 6.29214 11.7974 6.01997C11.7618 6.89429 11.5299 7.76896 11.1329 8.54386C11.3751 8.06202 11.5591 7.54549 11.6731 7.00335L11.6762 6.98825L11.6763 6.98807Z" fill="#E99855"/>
<path d="M0.54529 6.62326L0.888349 6.64801L0.897713 6.51824L0.818835 6.41476L0.54529 6.62326ZM2.66276 11.2422L2.46797 11.5256L2.85801 10.959L2.66276 11.2422ZM0.538529 6.61215L0.84941 6.465L0.849408 6.46499L0.538529 6.61215ZM0.532702 6.58102L0.189806 6.55402L0.189644 6.55626L0.532702 6.58102ZM0.640513 5.83004L0.977151 5.90059L0.977281 5.89996L0.640513 5.83004ZM6.75802 0.701172L6.75852 0.357221H6.75802V0.701172ZM6.76464 0.701181L6.76414 1.04513L6.76527 1.04513L6.76464 0.701181ZM7.34605 0.730991L7.382 0.388924L7.38195 0.388919L7.34605 0.730991ZM10.2272 2.02605L9.99189 2.27696L10.4627 1.7754L10.2272 2.02605ZM10.1572 1.96162L10.3861 1.70496L9.92677 2.217L10.1572 1.96162ZM10.4095 2.18293L10.1837 2.44246L10.1861 2.44446L10.4095 2.18293ZM10.4095 2.18297L10.6353 1.92345L10.6329 1.92144L10.4095 2.18297ZM11.0961 2.82071L11.3467 2.58511L11.3462 2.58459L11.0961 2.82071ZM11.7816 3.74721L11.483 3.9179L11.4833 3.91851L11.7816 3.74721ZM12.4047 7.1709L12.7451 7.22L12.7453 7.21839L12.4047 7.1709ZM11.1629 10.1363L10.8891 9.92816L10.8884 9.92904L11.1629 10.1363ZM9.46157 11.713L9.27576 11.4235L9.24191 11.4453L9.21399 11.4742L9.46157 11.713ZM9.45076 11.7219L9.6369 12.0111L9.63768 12.0106L9.45076 11.7219ZM8.43595 12.2534L8.56699 12.5714L8.56769 12.5711L8.43595 12.2534ZM5.00431 12.5668L5.0813 12.2316L5.07997 12.2313L5.00431 12.5668ZM4.02736 12.2313L4.17379 11.9201L4.17186 11.9192L4.02736 12.2313ZM3.53752 11.97L3.35661 12.2625L3.35874 12.2638L3.53752 11.97ZM2.42958 11.086L2.65977 10.8304L2.6597 10.8303L2.42958 11.086ZM2.42941 11.0858L2.19922 11.3414L2.19929 11.3414L2.42941 11.0858ZM2.20225 10.8823L2.43031 10.6249L1.97417 11.1398L2.20225 10.8823ZM2.38968 11.0396L2.60457 10.7709L2.60037 10.7677L2.38968 11.0396ZM11.7036 6.84836L11.3654 6.78612L11.3654 6.78612L11.7036 6.84836ZM11.6763 6.98807L12.0118 7.06419L12.013 7.05806L11.6763 6.98807ZM11.7974 6.01997L12.1411 6.03395L11.4537 6.00557L11.7974 6.01997ZM11.1329 8.54386L10.8256 8.38938L11.439 8.7007L11.1329 8.54386ZM11.6731 7.00335L12.0097 7.07411L12.0098 7.0737L11.6731 7.00335ZM11.6762 6.98825L11.3408 6.91212L11.3396 6.91789L11.6762 6.98825ZM0.202231 6.59851C0.0555374 8.63171 0.932992 10.4672 2.46751 11.5253L2.85801 10.959C1.53488 10.0467 0.758244 8.45129 0.888349 6.64801L0.202231 6.59851ZM0.227648 6.75931C0.239824 6.78503 0.254623 6.80931 0.271745 6.83177L0.818835 6.41476C0.830707 6.43033 0.840968 6.44716 0.84941 6.465L0.227648 6.75931ZM0.189644 6.55626C0.184603 6.62609 0.197696 6.69603 0.227649 6.75931L0.849408 6.46499C0.870178 6.50887 0.879256 6.55737 0.87576 6.60579L0.189644 6.55626ZM0.303876 5.75948C0.248937 6.02163 0.210838 6.28701 0.189813 6.55402L0.875592 6.60802C0.894312 6.37029 0.928234 6.13399 0.97715 5.90059L0.303876 5.75948ZM6.75802 0.357221C3.75061 0.357221 0.945767 2.66799 0.303745 5.76011L0.977281 5.89996C1.55579 3.11371 4.09005 1.04512 6.75802 1.04512V0.357221ZM6.76513 0.357231L6.75852 0.357221L6.75753 1.04512L6.76414 1.04513L6.76513 0.357231ZM7.38195 0.388919C7.17546 0.367246 6.96926 0.356851 6.764 0.357231L6.76527 1.04513C6.94644 1.0448 7.12824 1.05397 7.31015 1.07306L7.38195 0.388919ZM10.4624 1.77515C9.65494 1.01801 8.59828 0.516759 7.382 0.388924L7.3101 1.07306C8.37809 1.18531 9.29452 1.62307 9.99189 2.27696L10.4624 1.77515ZM9.92677 2.217C9.94862 2.23671 9.97023 2.25661 9.99162 2.27671L10.4627 1.7754C10.4379 1.7521 10.4128 1.72905 10.3876 1.70624L9.92677 2.217ZM10.6352 1.92342C10.5504 1.84966 10.4676 1.77761 10.3861 1.70496L9.92819 2.21828C10.0134 2.29428 10.0995 2.36916 10.1837 2.44244L10.6352 1.92342ZM10.6329 1.92144L10.6329 1.9214L10.1861 2.44446L10.1861 2.44451L10.6329 1.92144ZM11.3462 2.58459C11.1188 2.34367 10.8691 2.1269 10.6352 1.92346L10.1838 2.44249C10.4221 2.64975 10.6457 2.84464 10.846 3.05683L11.3462 2.58459ZM12.0802 3.57652C11.8755 3.21841 11.6293 2.88564 11.3467 2.58511L10.8455 3.05632C11.0911 3.3175 11.3051 3.60669 11.483 3.9179L12.0802 3.57652ZM12.7453 7.21839C12.9179 5.9805 12.7134 4.67897 12.0798 3.57591L11.4833 3.91851C12.0327 4.8751 12.2179 6.01985 12.064 7.12341L12.7453 7.21839ZM11.4367 10.3444C12.1311 9.43087 12.5814 8.35562 12.7451 7.22L12.0643 7.12181C11.9172 8.14181 11.5127 9.1076 10.8891 9.92816L11.4367 10.3444ZM9.64739 12.0024C10.3347 11.5612 10.9414 11.0004 11.4374 10.3435L10.8884 9.92904C10.4416 10.5208 9.89495 11.026 9.27576 11.4235L9.64739 12.0024ZM9.63768 12.0106C9.66385 11.9937 9.6878 11.9739 9.70915 11.9517L9.21399 11.4742C9.22889 11.4588 9.24559 11.445 9.26383 11.4332L9.63768 12.0106ZM8.56769 12.5711C8.94008 12.4167 9.29792 12.2293 9.6369 12.0111L9.26461 11.4326C8.96013 11.6286 8.63872 11.7969 8.30422 11.9356L8.56769 12.5711ZM4.92732 12.902C6.14353 13.1813 7.4258 13.0416 8.56699 12.5714L8.30492 11.9353C7.28396 12.356 6.14692 12.4763 5.0813 12.2316L4.92732 12.902ZM3.88094 12.5426C4.21496 12.6997 4.56618 12.8206 4.92865 12.9023L5.07997 12.2313C4.76646 12.1606 4.46269 12.056 4.17379 11.9201L3.88094 12.5426ZM3.35874 12.2638C3.52829 12.367 3.70329 12.4603 3.88287 12.5435L4.17186 11.9192C4.01577 11.8469 3.86366 11.7658 3.71629 11.6762L3.35874 12.2638ZM2.19939 11.3415C2.54728 11.6549 2.92257 11.9941 3.35662 12.2625L3.71842 11.6775C3.34576 11.447 3.0155 11.1508 2.65977 10.8304L2.19939 11.3415ZM2.19929 11.3414L2.19946 11.3416L2.6597 10.8303L2.65953 10.8302L2.19929 11.3414ZM1.97418 11.1398C2.04894 11.206 2.12345 11.2731 2.19922 11.3414L2.6596 10.8302C2.58418 10.7623 2.50756 10.6933 2.43031 10.6249L1.97418 11.1398ZM2.60037 10.7677C2.54525 10.725 2.48888 10.6768 2.43033 10.6249L1.97417 11.1398C2.03727 11.1957 2.10652 11.2553 2.17899 11.3114L2.60037 10.7677ZM2.85756 10.9587C2.77114 10.8993 2.68674 10.8367 2.60454 10.771L2.17482 11.3081C2.27015 11.3844 2.36795 11.4569 2.46797 11.5256L2.85756 10.9587ZM11.3654 6.78612C11.3573 6.83001 11.3487 6.874 11.3395 6.91807L12.013 7.05806C12.0233 7.00884 12.0329 6.95969 12.0419 6.9106L11.3654 6.78612ZM11.4537 6.00557C11.443 6.26151 11.4139 6.52217 11.3654 6.78612L12.0419 6.9106C12.0962 6.6154 12.1289 6.32277 12.141 6.03437L11.4537 6.00557ZM11.439 8.7007C11.8585 7.88181 12.1034 6.95843 12.1411 6.03395L11.4537 6.00599C11.4202 6.83014 11.2012 7.65612 10.8267 8.38702L11.439 8.7007ZM11.3365 6.9326C11.2288 7.44476 11.0549 7.93322 10.8256 8.38938L11.4402 8.69834C11.6953 8.19082 11.8894 7.64622 12.0097 7.07411L11.3365 6.9326ZM11.3396 6.91789L11.3364 6.933L12.0098 7.0737L12.0129 7.0586L11.3396 6.91789ZM11.3409 6.91195L11.3408 6.91213L12.0117 7.06436L12.0117 7.06418L11.3409 6.91195Z" fill="#4C6042" mask="url(#path-1-outside-1_8012_70821)"/>
<path d="M12.4046 7.17119C12.5678 6.00046 12.3729 4.77732 11.7815 3.7475C11.5902 3.41283 11.3601 3.10186 11.096 2.821C10.7968 2.50409 10.4531 2.22772 10.1287 1.93652C11.0278 2.73448 11.5926 3.85527 11.7528 5.04182C11.913 6.22837 11.6771 7.48711 11.1272 8.555C10.5823 9.61994 9.76276 10.5201 8.75337 11.1624C7.74945 11.7968 6.57738 12.1478 5.38454 12.1147C4.30149 12.0805 3.23871 11.7191 2.38958 11.0398C2.32578 10.9904 2.26298 10.9365 2.20215 10.8826C2.63191 11.2633 3.04732 11.6672 3.53742 11.9703C3.98987 12.2456 4.48386 12.4459 5.00028 12.5636C6.14119 12.8281 7.35283 12.698 8.43192 12.2526C9.51404 11.8022 10.4566 11.0719 11.1628 10.1366C11.8218 9.26952 12.2492 8.249 12.4046 7.17119Z" fill="url(#paint0_linear_8012_70821)"/>
<path opacity="0.5" d="M8.43595 12.2533C8.7894 12.1068 9.12903 11.9289 9.45076 11.7219C9.46437 11.713 9.47394 11.6992 9.47737 11.6834C9.48079 11.6675 9.47781 11.651 9.46906 11.6373L9.46213 11.6284L9.13524 11.2814C9.12534 11.2711 9.11214 11.2646 9.09795 11.263C9.08375 11.2615 9.06947 11.265 9.0576 11.2729L8.95078 11.3427C7.92657 11.9893 6.72879 12.3473 5.51419 12.3137C4.65338 12.2896 3.81176 12.0539 3.06372 11.6274C3.62996 12.0852 4.29395 12.4066 5.00431 12.5668C6.14523 12.8288 7.35488 12.6988 8.43595 12.2533Z" fill="url(#paint1_linear_8012_70821)" fill-opacity="0.5"/>
<path d="M7.34597 0.730991C10.3894 1.05086 12.328 3.85211 11.6762 6.98807C11.0244 10.124 8.02992 12.4071 4.98649 12.0873C1.94307 11.7674 0.00495094 8.96614 0.656266 5.83019C1.30758 2.69424 4.30304 0.411611 7.34597 0.730991Z" fill="url(#paint2_linear_8012_70821)"/>
<path style="mix-blend-mode:overlay" opacity="0.61" d="M7.30536 0.863055C4.36826 0.553069 1.47716 2.75758 0.848591 5.78427C0.803061 6.00188 0.770037 6.22192 0.749683 6.4433C0.748863 6.45417 0.751005 6.46506 0.755881 6.47481C0.760758 6.48456 0.768186 6.49281 0.777377 6.49867C2.00385 7.37573 3.48154 7.95269 5.13876 8.12672C7.35976 8.36007 9.56641 7.83404 11.4917 6.75329C11.4998 6.74883 11.5068 6.74261 11.5122 6.73508C11.5176 6.72755 11.5212 6.7189 11.5228 6.70978C12.0332 3.7612 10.1801 1.16513 7.30536 0.863055Z" fill="url(#paint3_linear_8012_70821)"/>
<path opacity="0.5" d="M5.44983 11.8173C2.73726 11.532 0.759576 9.16834 1.37083 6.23805C1.98209 3.30777 4.78319 1.1695 7.6278 1.46861C9.51548 1.66637 10.7845 2.96515 11.2874 4.59864C11.2922 4.61353 11.3026 4.626 11.3164 4.63344C11.3302 4.64088 11.3463 4.64272 11.3614 4.63858C11.3765 4.63444 11.3894 4.62463 11.3975 4.61121C11.4055 4.59778 11.4081 4.58177 11.4046 4.5665C10.965 2.57013 9.37701 1.04689 7.21239 0.819472C4.26293 0.507014 1.36193 2.71795 0.733859 5.75503C0.105788 8.7921 1.97813 11.5053 4.92512 11.8148C5.19036 11.8431 5.45738 11.8509 5.72381 11.8381C5.63281 11.8336 5.54132 11.8272 5.44983 11.8173Z" fill="#94512A"/>
<path d="M6.90543 1.34449C7.07705 1.34448 7.24856 1.35339 7.41926 1.37118C8.69024 1.50467 9.78911 2.12662 10.5166 3.12431C10.8969 3.64734 11.16 4.24612 11.2881 4.87991C11.428 5.57195 11.4236 6.28539 11.2752 6.97566C10.9934 8.28928 10.2768 9.46953 9.24116 10.3257C8.20905 11.1854 6.95241 11.6606 5.7027 11.6606C5.53091 11.6606 5.35924 11.6517 5.18837 11.6339C3.91888 11.5004 2.81901 10.8779 2.09154 9.88221C1.71105 9.35727 1.4484 8.75641 1.32153 8.12068C1.18208 7.42875 1.18662 6.71553 1.33488 6.02543C1.61586 4.71195 2.33161 3.53154 3.36647 2.67491C4.39859 1.81515 5.65522 1.34004 6.90543 1.34004M6.90543 0.850586C4.0984 0.852564 1.45753 3.01851 0.853693 5.92556C0.210786 9.0274 2.12714 11.5498 5.13694 11.8662C5.32488 11.886 5.51372 11.8959 5.7027 11.8959C8.51022 11.8959 10.9236 9.81646 11.5274 6.90941C12.1703 3.80707 10.481 1.19815 7.47218 0.881733C7.28421 0.862375 7.09538 0.85264 6.90642 0.852564L6.90543 0.850586Z" fill="#E99855"/>
<path d="M6.77481 1.19557C6.94826 1.19548 7.12159 1.20455 7.29408 1.22276C8.57742 1.35724 9.68965 1.9866 10.425 2.99319C10.8095 3.52203 11.0756 4.12735 11.2054 4.76807C11.3464 5.46784 11.3419 6.18912 11.1921 6.88705C10.9069 8.2153 10.1823 9.40872 9.13527 10.2747C8.09178 11.1438 6.8213 11.6224 5.55774 11.6224C5.38395 11.6227 5.21028 11.6137 5.03748 11.5952C3.75413 11.4602 2.6424 10.8313 1.90701 9.82426C1.52231 9.29558 1.25613 8.6902 1.12662 8.04938C0.985128 7.34983 0.989674 6.6286 1.13997 5.93089C1.42487 4.60268 2.14952 3.40933 3.19678 2.54379C4.23928 1.67464 5.51076 1.19557 6.77432 1.19557M6.77432 0.701172C3.93613 0.701172 1.26658 2.89085 0.65631 5.83004C0.00499505 8.96599 1.94212 11.7677 4.98654 12.0871C5.1766 12.1073 5.3676 12.1174 5.55873 12.1173C8.39642 12.1173 11.066 9.92709 11.6762 6.98791C12.328 3.85196 10.3894 1.05071 7.34601 0.730836C7.15609 0.711068 6.96526 0.701166 6.77432 0.701172Z" fill="url(#paint4_linear_8012_70821)"/>
<path d="M4.78322 3.55727H4.77679C4.76323 3.55537 4.74943 3.5581 4.73761 3.56502C4.72579 3.57194 4.71666 3.58264 4.71168 3.59539C4.7067 3.60815 4.70618 3.62221 4.71018 3.6353C4.71419 3.64839 4.7225 3.65974 4.73377 3.66752L4.74069 3.67148C4.75257 3.67799 4.76196 3.68824 4.7674 3.70065L4.80201 3.77975C4.80734 3.79189 4.80856 3.80543 4.80548 3.81832C4.80172 3.83285 4.80347 3.84826 4.81039 3.86158C4.81731 3.8749 4.82892 3.8852 4.84298 3.89047C4.85704 3.89575 4.87255 3.89564 4.88654 3.89017C4.90052 3.8847 4.91199 3.87425 4.91873 3.86083C4.92505 3.84899 4.93514 3.8396 4.94741 3.83414L5.02407 3.79903C5.03672 3.7937 5.05074 3.79249 5.06412 3.79557H5.07055C5.07832 3.7974 5.08636 3.79767 5.09423 3.79637C5.1021 3.79507 5.10963 3.79222 5.11639 3.78799C5.12315 3.78376 5.12901 3.77823 5.13362 3.77173C5.13823 3.76522 5.1415 3.75787 5.14325 3.75009C5.14616 3.73731 5.1449 3.72393 5.13965 3.71192C5.1344 3.6999 5.12544 3.68989 5.11407 3.68335L5.10715 3.67939C5.09527 3.67288 5.08588 3.66263 5.08044 3.65022L5.04583 3.57112C5.0405 3.55898 5.03928 3.54544 5.04236 3.53255C5.04391 3.51904 5.04087 3.5054 5.03375 3.49381C5.02663 3.48222 5.01582 3.47336 5.00306 3.46863C4.9903 3.46391 4.97633 3.46359 4.96337 3.46774C4.95041 3.47189 4.93922 3.48026 4.93159 3.49152C4.92545 3.50362 4.91531 3.51323 4.9029 3.51871L4.82625 3.55381C4.8128 3.56014 4.79751 3.56137 4.78322 3.55727Z" fill="white"/>
<path opacity="0.7" d="M7.32965 0.73133C7.13973 0.711398 6.94891 0.701332 6.75795 0.701172C3.92026 0.701172 1.25071 2.89085 0.640443 5.83004C0.588516 6.07781 0.552505 6.32865 0.532632 6.58102C0.53186 6.59173 0.533867 6.60245 0.538459 6.61215C0.543051 6.62185 0.550073 6.63021 0.558843 6.6364C0.677534 6.71847 0.798203 6.7979 0.92085 6.87469C0.929863 6.88037 0.94022 6.88356 0.950867 6.88394C0.961515 6.88432 0.972072 6.88188 0.981468 6.87685C0.990863 6.87183 0.99876 6.86441 1.00436 6.85535C1.00995 6.84628 1.01305 6.8359 1.01333 6.82525C1.02555 6.52462 1.06244 6.2255 1.12361 5.93089C1.40871 4.60264 2.13353 3.40931 3.18092 2.54379C4.22391 1.67464 5.49489 1.19557 6.75845 1.19557C6.93206 1.19548 7.10556 1.20455 7.27821 1.22276C8.56403 1.35773 9.67379 1.9866 10.4092 2.99369C10.7935 3.52255 11.0594 4.12787 11.1891 4.76857C11.3306 5.46812 11.326 6.18934 11.1757 6.88705C11.1723 6.90386 11.1688 6.92067 11.1648 6.93649C11.1631 6.94456 11.163 6.95288 11.1646 6.96098C11.1662 6.96907 11.1694 6.97676 11.174 6.98359C11.1786 6.99042 11.1846 6.99625 11.1915 7.00073C11.1984 7.00521 11.2062 7.00825 11.2143 7.00966C11.228 7.01259 11.2424 7.01067 11.2548 7.00423C11.3983 6.92908 11.5402 6.85113 11.6806 6.77038C11.6886 6.76581 11.6954 6.75954 11.7006 6.75202C11.7058 6.74449 11.7093 6.7359 11.7108 6.72687C12.2014 3.6982 10.289 1.04181 7.32965 0.73133Z" fill="url(#paint5_linear_8012_70821)"/>
<path d="M8.81434 5.07053C8.81434 5.0997 8.78813 5.11453 8.73472 5.11453C8.5369 5.11453 8.23457 5.09722 7.82772 5.06262C7.42088 5.02801 7.11723 5.01153 6.91677 5.01318C6.66159 5.01318 6.51323 5.02257 6.47168 5.04136C6.37278 5.08618 6.32332 5.21374 6.32332 5.42402C6.32332 5.67616 6.38712 5.81954 6.51471 5.85414C6.59479 5.87005 6.67641 5.87685 6.75802 5.87441C6.94167 5.87441 7.21614 5.86436 7.58144 5.84426C7.94674 5.82415 8.22122 5.81426 8.40486 5.81459C8.49223 5.81459 8.53608 6.04844 8.53641 6.51614C8.53641 6.92253 8.52173 7.15902 8.49239 7.2256C8.48506 7.2478 8.47052 7.26692 8.45108 7.27991C8.43163 7.2929 8.4084 7.29901 8.38508 7.29729C8.41804 7.29729 8.3343 7.28806 8.13385 7.2696C7.84866 7.24158 7.41758 7.22758 6.84061 7.22758C6.65467 7.22758 6.54982 7.22889 6.52608 7.23153C6.39025 7.25296 6.32233 7.31014 6.32233 7.40309C6.32233 7.78015 6.33882 8.21456 6.37179 8.70631C6.39849 9.15028 6.41184 9.34804 6.41184 9.29959C6.41184 9.3688 6.32777 9.40885 6.16062 9.41923C6.20578 9.4166 6.08742 9.41528 5.80553 9.41528C5.30835 9.41528 4.98805 9.39797 4.84463 9.36337C4.76748 9.34507 4.72891 9.30354 4.72891 9.23977C4.72891 8.94511 4.73897 8.50213 4.75908 7.91083C4.77919 7.31953 4.78908 6.87639 4.78875 6.5814C4.78875 6.23038 4.77227 5.78921 4.7393 5.2579C4.69149 4.43688 4.6661 3.99571 4.66314 3.9344L4.65918 3.88496C4.65918 3.81822 4.69677 3.78609 4.77886 3.78609C4.97668 3.78609 5.2734 3.79004 5.66904 3.79795C6.06467 3.80586 6.36305 3.80982 6.56416 3.80982C6.77682 3.80982 7.09646 3.79334 7.52308 3.76038C7.94971 3.72742 8.26935 3.71094 8.48201 3.71094C8.61388 3.71094 8.6884 3.76532 8.70554 3.87409C8.70554 3.98879 8.71049 4.15985 8.72137 4.38826C8.72681 4.44709 8.74411 4.55982 8.77329 4.72742C8.79653 4.84044 8.81026 4.95521 8.81434 5.07053Z" fill="#E1892B"/>
<path d="M8.77526 4.92689C8.77526 4.95606 8.74905 4.97089 8.69564 4.97089C8.49782 4.97089 8.19549 4.95441 7.78865 4.92145C7.3818 4.88849 7.07815 4.87201 6.8777 4.87201C6.62251 4.87201 6.47415 4.88124 6.43261 4.89969C6.3337 4.94518 6.28425 5.0729 6.28425 5.28285C6.28425 5.53499 6.34804 5.67837 6.47563 5.71298C6.55572 5.72888 6.63734 5.73568 6.71895 5.73325C6.90226 5.73325 7.17673 5.72319 7.54237 5.70309C7.908 5.68298 8.18247 5.67309 8.36578 5.67342C8.45348 5.67342 8.49733 5.90727 8.49733 6.37497C8.49733 6.78137 8.48266 7.01785 8.45332 7.08443C8.44591 7.10659 8.43135 7.12565 8.41193 7.13863C8.3925 7.15161 8.36931 7.15776 8.346 7.15612C8.37897 7.15612 8.29523 7.14672 8.09477 7.12794C7.80991 7.1019 7.37917 7.08871 6.80253 7.08838C6.61658 7.08838 6.51157 7.0897 6.4875 7.09234C6.352 7.11376 6.28425 7.17078 6.28425 7.2634C6.28425 7.64112 6.30073 8.07569 6.3337 8.56712C6.36041 9.01109 6.37376 9.20885 6.37376 9.1604C6.37376 9.22961 6.28969 9.26966 6.12253 9.28004C6.16737 9.27741 6.04901 9.27609 5.76745 9.27609C5.2706 9.27609 4.9503 9.25961 4.80655 9.22665C4.7294 9.20835 4.69082 9.16683 4.69082 9.10305C4.69082 8.80839 4.70088 8.36524 4.72099 7.77362C4.7411 7.18199 4.75099 6.73901 4.75066 6.44468C4.75066 6.09366 4.73418 5.65249 4.70121 5.12118C4.6534 4.29983 4.62802 3.85866 4.62505 3.79769L4.62109 3.74825C4.62109 3.682 4.65818 3.64937 4.74077 3.64937C4.93859 3.64937 5.23532 3.65332 5.63095 3.66123C6.02659 3.66914 6.32496 3.6731 6.52608 3.6731C6.73873 3.6731 7.05837 3.65662 7.485 3.62366C7.91163 3.5907 8.23127 3.57422 8.44392 3.57422C8.57695 3.57422 8.65113 3.6286 8.66745 3.73737C8.66745 3.85207 8.6724 4.02313 8.68328 4.25154C8.68872 4.31037 8.70553 4.4231 8.73273 4.5907C8.75609 4.70141 8.77031 4.81385 8.77526 4.92689Z" fill="#FFF27E"/>
<defs>
<linearGradient id="paint0_linear_8012_70821" x1="13.5702" y1="-3.69267" x2="3.62732" y2="17.0402" gradientUnits="userSpaceOnUse">
<stop stop-color="#FFD243"/>
<stop offset="1" stop-color="#CD571B"/>
</linearGradient>
<linearGradient id="paint1_linear_8012_70821" x1="7.68425" y1="8.71198" x2="5.12771" y2="14.0432" gradientUnits="userSpaceOnUse">
<stop stop-color="#E08C3C"/>
<stop offset="1" stop-color="#FFD06F"/>
</linearGradient>
<linearGradient id="paint2_linear_8012_70821" x1="3.06766" y1="21.9317" x2="9.89289" y2="-12.2793" gradientUnits="userSpaceOnUse">
<stop stop-color="#F5942A"/>
<stop offset="1" stop-color="#F5D85D"/>
</linearGradient>
<linearGradient id="paint3_linear_8012_70821" x1="4.49585" y1="14.7111" x2="8.95704" y2="-7.65145" gradientUnits="userSpaceOnUse">
<stop stop-color="#E08C3C"/>
<stop offset="1" stop-color="#FFD06F"/>
</linearGradient>
<linearGradient id="paint4_linear_8012_70821" x1="8.40136" y1="-2.40067" x2="2.56013" y2="20.6385" gradientUnits="userSpaceOnUse">
<stop offset="0.2" stop-color="#FFDE43"/>
<stop offset="0.56" stop-color="#FFD23E"/>
<stop offset="1" stop-color="#FFBD37"/>
</linearGradient>
<linearGradient id="paint5_linear_8012_70821" x1="8.09421" y1="-1.30014" x2="4.30468" y2="13.646" gradientUnits="userSpaceOnUse">
<stop offset="0.02" stop-color="#FFFFA0"/>
<stop offset="0.98" stop-color="#FFEB6A"/>
</linearGradient>
</defs>
</svg>
