<svg width="7" height="9" viewBox="0 0 7 9" fill="none" xmlns="http://www.w3.org/2000/svg">
<path d="M5.97789 2.18639H1.26361C0.89694 2.18639 0.530273 1.87211 0.530273 1.45306C0.530273 1.08639 0.844559 0.719727 1.26361 0.719727H5.97789C6.34456 0.719727 6.71123 1.03401 6.71123 1.45306C6.65884 1.87211 6.34456 2.18639 5.97789 2.18639Z" fill="white"/>
<path d="M5.97789 5.43346H1.26361C0.89694 5.43346 0.530273 5.11918 0.530273 4.70013C0.530273 4.33346 0.844559 3.9668 1.26361 3.9668H5.97789C6.34456 3.9668 6.71123 4.28108 6.71123 4.70013C6.65884 5.0668 6.34456 5.43346 5.97789 5.43346Z" fill="white"/>
<path d="M5.97789 8.68151H1.26361C0.89694 8.68151 0.530273 8.36723 0.530273 7.94818C0.530273 7.58151 0.844559 7.21484 1.26361 7.21484H5.97789C6.34456 7.21484 6.71123 7.52913 6.71123 7.94818C6.65884 8.31484 6.34456 8.68151 5.97789 8.68151Z" fill="white"/>
</svg>
