<svg width="15" height="16" viewBox="0 0 15 16" fill="none" xmlns="http://www.w3.org/2000/svg">
<g clip-path="url(#clip0_8045_30256)">
<path d="M3.05653 11.0299C3.13597 10.9512 3.24519 10.9053 3.36104 10.9053H13.8664C14.0584 10.9053 14.1543 11.1348 14.0186 11.2692L11.9434 13.3247C11.864 13.4034 11.7547 13.4493 11.6389 13.4493H1.13353C0.941561 13.4493 0.845576 13.2198 0.981278 13.0854L3.05653 11.0299Z" fill="url(#paint0_linear_8045_30256)"/>
<path d="M3.05653 3.35505C3.13928 3.27637 3.2485 3.23047 3.36104 3.23047H13.8664C14.0584 3.23047 14.1543 3.45996 14.0186 3.59437L11.9434 5.64992C11.864 5.7286 11.7547 5.7745 11.6389 5.7745H1.13353C0.941561 5.7745 0.845576 5.54501 0.981278 5.4106L3.05653 3.35505Z" fill="url(#paint1_linear_8045_30256)"/>
<path d="M11.9434 7.16755C11.864 7.08887 11.7547 7.04297 11.6389 7.04297H1.13353C0.941561 7.04297 0.845576 7.27246 0.981278 7.40687L3.05653 9.46242C3.13597 9.5411 3.24519 9.587 3.36104 9.587H13.8664C14.0584 9.587 14.1543 9.35751 14.0186 9.2231L11.9434 7.16755Z" fill="url(#paint2_linear_8045_30256)"/>
</g>
<defs>
<linearGradient id="paint0_linear_8045_30256" x1="12.8628" y1="2.00262" x2="5.70068" y2="15.8525" gradientUnits="userSpaceOnUse">
<stop stop-color="#00FFA3"/>
<stop offset="1" stop-color="#DC1FFF"/>
</linearGradient>
<linearGradient id="paint1_linear_8045_30256" x1="9.68374" y1="0.358551" x2="2.52161" y2="14.2084" gradientUnits="userSpaceOnUse">
<stop stop-color="#00FFA3"/>
<stop offset="1" stop-color="#DC1FFF"/>
</linearGradient>
<linearGradient id="paint2_linear_8045_30256" x1="11.2632" y1="1.17504" x2="4.10102" y2="15.0249" gradientUnits="userSpaceOnUse">
<stop stop-color="#00FFA3"/>
<stop offset="1" stop-color="#DC1FFF"/>
</linearGradient>
<clipPath id="clip0_8045_30256">
<rect width="13.1631" height="10.2188" fill="white" transform="translate(0.918457 3.23047)"/>
</clipPath>
</defs>
</svg>
