<svg width="15" height="16" viewBox="0 0 15 16" fill="none" xmlns="http://www.w3.org/2000/svg">
<g clip-path="url(#clip0_8045_22027)">
<path d="M7.49976 15.8398C11.6419 15.8398 14.9998 12.482 14.9998 8.33984C14.9998 4.19771 11.6419 0.839844 7.49976 0.839844C3.35762 0.839844 -0.000244141 4.19771 -0.000244141 8.33984C-0.000244141 12.482 3.35762 15.8398 7.49976 15.8398Z" fill="#0088CC"/>
<path fill-rule="evenodd" clip-rule="evenodd" d="M5.41046 5.7959H9.61582C9.77653 5.7959 9.91046 5.82268 10.0712 5.90304C10.2587 5.9834 10.3658 6.11733 10.4194 6.22447C10.4194 6.22447 10.4194 6.25126 10.4462 6.25126C10.5265 6.38518 10.5801 6.5459 10.5801 6.7334C10.5801 6.89411 10.5533 7.05483 10.4462 7.21554L7.79439 11.7691C7.74082 11.8763 7.63368 11.9298 7.49975 11.9298C7.39261 11.9298 7.28546 11.8763 7.20511 11.7691L4.60689 7.21554C4.55332 7.1084 4.44618 6.97447 4.44618 6.76018C4.41939 6.57268 4.47296 6.41197 4.55332 6.25126C4.63368 6.09054 4.76761 5.95661 4.95511 5.90304C5.11582 5.7959 5.30332 5.7959 5.41046 5.7959ZM7.17832 6.43876H5.41046C5.30332 6.43876 5.24975 6.43876 5.22296 6.46554C5.16939 6.49233 5.14261 6.51911 5.11582 6.57268C5.08903 6.59947 5.08903 6.65304 5.08903 6.70661C5.08903 6.7334 5.11582 6.76018 5.16939 6.86733L7.17832 10.3495V6.43876ZM7.82118 6.43876V10.3763L9.85689 6.86733C9.88368 6.81376 9.88368 6.76018 9.88368 6.70661C9.88368 6.65304 9.88368 6.59947 9.85689 6.57268C9.8301 6.5459 9.8301 6.51911 9.80332 6.51911L9.77653 6.49233C9.72296 6.46554 9.66939 6.46554 9.58903 6.46554H7.82118V6.43876Z" fill="white"/>
</g>
<defs>
<clipPath id="clip0_8045_22027">
<rect width="15" height="15" fill="white" transform="translate(0 0.839844)"/>
</clipPath>
</defs>
</svg>
