<svg width="14" height="25" viewBox="0 0 14 25" fill="none" xmlns="http://www.w3.org/2000/svg">
<path fill-rule="evenodd" clip-rule="evenodd" d="M6.98156 24.8C3.63506 24.8 0.916016 22.0809 0.916016 18.7344C0.916016 18.6526 0.916016 18.5707 0.916016 18.4707V18.4434C0.916016 18.401 0.916016 18.3585 0.916016 18.3161C0.934203 15.9699 2.29827 13.8601 4.37165 12.8689C4.32315 12.7719 4.28677 12.6658 4.26252 12.5506L4.09884 11.6776C4.04427 11.3866 4.11703 11.0774 4.28981 10.8228C4.3565 10.7319 4.43228 10.65 4.51715 10.5773C4.49897 10.5288 4.47775 10.4773 4.4535 10.4227C4.32618 10.1408 4.18068 9.79522 4.08065 9.5406C4.01699 9.3951 3.97153 9.28597 3.95334 9.2496C3.68962 8.6585 3.45318 8.12197 3.24402 7.62181C2.78024 6.52146 2.31646 5.33927 2.00727 4.1207C1.92542 3.76604 1.87086 3.46595 1.85267 3.21132C1.8072 2.74754 1.9618 2.32013 2.28008 1.98366C3.26221 0.928777 5.72662 0.79237 7.09978 0.810558C8.10919 0.819652 9.18226 0.846933 10.2371 1.11065C11.7922 1.4835 12.2469 2.28375 12.356 2.88394C12.4924 3.64782 12.2014 4.38442 11.9468 5.03008C11.8831 5.20286 11.8104 5.36655 11.7558 5.52114C11.1374 7.31262 10.3644 9.04953 9.66423 10.55C10.028 10.8046 10.2008 11.2411 10.128 11.6776C10.1098 11.7504 10.1007 11.8413 10.0825 11.9414C10.0462 12.2687 9.9916 12.6598 9.79154 12.969C10.419 13.2963 10.9919 13.7328 11.4648 14.2603C12.4833 15.3697 13.0562 16.8702 13.0835 18.4707C13.1017 19.6074 12.8289 20.7169 12.3014 21.6626C11.2465 23.5723 9.16407 24.8 6.98156 24.8ZM5.39015 10.5045C5.43562 10.5591 5.4629 10.6228 5.48109 10.6955C5.51747 10.9229 5.37196 11.132 5.14462 11.1684C5.04459 11.1866 4.99003 11.2502 4.96274 11.2957C4.90818 11.3594 4.89 11.4503 4.90818 11.523L5.07187 12.4051C5.08097 12.4779 5.12643 12.5506 5.181 12.5961C5.19918 12.6082 5.21737 12.6173 5.23556 12.6234C5.24162 12.6295 5.24768 12.6325 5.25375 12.6325C5.40834 12.6961 5.50837 12.8507 5.50837 13.0235C5.49928 13.1872 5.39925 13.3418 5.23556 13.3964C3.15308 14.133 1.74355 16.1063 1.73446 18.3161C1.73446 18.3434 1.73446 18.3798 1.73446 18.407V18.4616C1.73446 18.4737 1.73446 18.4828 1.73446 18.4889C1.73446 18.5677 1.73446 18.6495 1.73446 18.7344C1.73446 21.6262 4.08974 23.9815 6.98156 23.9815C8.87307 23.9815 10.6736 22.9176 11.5921 21.2716C12.0468 20.4441 12.2741 19.4801 12.265 18.4798C12.2378 17.0975 11.7285 15.7608 10.8646 14.815C10.3099 14.2057 9.60966 13.7237 8.84579 13.4327C8.67301 13.3691 8.56388 13.1963 8.58207 13.0144C8.59116 12.8326 8.72757 12.687 8.90944 12.6507H8.92763C8.97007 12.6385 9.00644 12.6204 9.03675 12.5961C9.03675 12.5961 9.03979 12.5961 9.04585 12.5961C9.19135 12.4779 9.23682 12.1232 9.2732 11.8322C9.29138 11.7231 9.30048 11.6231 9.31866 11.523C9.34595 11.4048 9.29138 11.2866 9.19135 11.2139L9.17316 11.2048C9.14285 11.1866 9.10951 11.1744 9.07313 11.1684L9.04585 11.1593C8.91854 11.1411 8.80941 11.0593 8.75485 10.9501C8.70029 10.8319 8.6912 10.7046 8.74576 10.5864C9.48235 9.02225 10.3281 7.15802 10.9828 5.25742C11.0465 5.07555 11.1192 4.90276 11.1829 4.72089C11.4102 4.15707 11.6467 3.56598 11.5557 3.02035C11.4557 2.502 10.9465 2.12006 10.0462 1.90181C9.07313 1.66537 8.05463 1.63809 7.09069 1.629C5.00822 1.60172 3.43499 1.94728 2.88027 2.53838C2.71659 2.72025 2.64383 2.91122 2.66202 3.14766C2.68021 3.34773 2.72568 3.61145 2.80752 3.92063C3.08033 5.02098 3.48046 6.07586 3.99881 7.30353C4.20796 7.79459 4.43531 8.32203 4.69903 8.91313C4.71722 8.9495 4.76269 9.06772 4.83544 9.23141C4.96275 9.5315 5.29012 10.3136 5.39015 10.5045ZM5.08096 10.359C5.05671 10.359 5.03246 10.359 5.00821 10.359C5.03246 10.359 5.05368 10.359 5.07187 10.359C5.07793 10.359 5.08096 10.359 5.08096 10.359Z" fill="#474747"/>
<path d="M12.6652 18.7335C12.6652 21.8618 10.128 24.3899 6.99977 24.3899C3.87151 24.3899 1.33435 21.8618 1.33435 18.7335C1.33435 15.6053 3.87151 13.0681 6.99977 13.0681C10.128 13.0681 12.6652 15.6053 12.6652 18.7335Z" fill="#C24402"/>
<path d="M12.6652 18.7335C12.6652 21.8618 10.128 24.3899 6.99977 24.3899C3.87151 24.3899 1.33435 21.8618 1.33435 18.7335C1.33435 15.6053 3.87151 13.0681 6.99977 13.0681C10.128 13.0681 12.6652 15.6053 12.6652 18.7335Z" fill="#C24402"/>
<path d="M9.57305 12.4762C9.5003 12.8581 9.13655 13.1127 8.75461 13.0582C8.29992 12.9854 7.69973 12.9218 7.12682 12.9218C6.55392 12.9218 5.94463 12.9854 5.48995 13.0582C5.10801 13.1127 4.74426 12.8581 4.6806 12.4762L4.51692 11.5941C4.44417 11.203 4.69879 10.8302 5.08982 10.7665C5.63545 10.6665 6.40842 10.5938 7.12682 10.5938C7.84523 10.5938 8.60911 10.6665 9.15474 10.7665C9.54577 10.8302 9.80039 11.203 9.73674 11.5941L9.57305 12.4762Z" fill="url(#paint0_linear_6162_111743)"/>
<path fill-rule="evenodd" clip-rule="evenodd" d="M11.9557 3.18396C11.7829 5.29372 8.89112 11.2683 8.89112 11.2683H5.33546C5.33546 11.2683 2.43455 5.30281 2.27086 3.18396C2.11626 1.32883 5.78105 1.20151 7.10874 1.2197C8.43643 1.20151 12.1012 1.32883 11.9557 3.18396ZM7.23605 6.00303C7.49977 5.11184 7.69984 4.41162 7.74531 4.18428C7.8999 3.33855 7.50887 2.77474 7.15421 2.44736C6.87231 2.78383 6.5813 3.39312 6.81774 4.38434C6.86321 4.5935 7.0178 5.21187 7.23605 6.00303Z" fill="url(#paint1_linear_6162_111743)"/>
<path opacity="0.7" d="M6.0996 3.85596C5.85407 3.57405 3.31691 3.09208 2.41663 4.01965C3.05319 6.55682 5.33573 11.2674 5.33573 11.2674H8.35486C8.21845 10.8946 6.38151 5.54741 6.11779 3.96509C6.11173 3.92871 6.10567 3.89234 6.0996 3.85596Z" fill="url(#paint2_linear_6162_111743)"/>
<path style="mix-blend-mode:screen" fill-rule="evenodd" clip-rule="evenodd" d="M11.9557 3.18268C11.783 5.29244 8.89113 11.2671 8.89113 11.2671H8.3546C8.21819 10.8942 6.38125 5.54707 6.11753 3.96475C5.82653 2.24602 6.5995 1.2457 9.43676 1.36392C10.7554 1.58217 12.0376 2.07324 11.9557 3.18268ZM10.819 2.24602C10.0915 1.80952 7.94538 1.38211 7.15423 2.44608C6.87232 2.78255 6.58132 3.39184 6.81776 4.38306C6.86322 4.59222 7.01782 5.2106 7.23607 6.00176L8.60013 10.5032C10.1824 7.29308 10.9736 5.04691 11.2373 4.14662C11.6193 2.74618 11.0555 2.38243 10.819 2.24602Z" fill="url(#paint3_linear_6162_111743)"/>
<g style="mix-blend-mode:multiply" opacity="0.5">
<path d="M10.8191 2.24681C10.0916 1.8103 7.94552 1.3829 7.15436 2.44687C7.50902 2.77425 7.90005 3.33806 7.74545 4.18378C7.69998 4.41113 7.49992 5.11135 7.2362 6.00254L8.60026 10.504C10.1826 7.29386 10.9737 5.04769 11.2375 4.14741C11.6194 2.74696 11.0556 2.38321 10.8191 2.24681Z" fill="#392C82"/>
</g>
<path d="M9.57305 12.4762C9.5003 12.8581 9.13655 13.1127 8.75461 13.0582C8.29992 12.9854 7.69973 12.9218 7.12682 12.9218C6.55392 12.9218 5.94463 12.9854 5.48995 13.0582C5.10801 13.1127 4.74426 12.8581 4.6806 12.4762L4.51692 11.5941C4.44417 11.203 4.69879 10.8302 5.08982 10.7665C5.63545 10.6665 6.40842 10.5938 7.12682 10.5938C7.84523 10.5938 8.60911 10.6665 9.15474 10.7665C9.54577 10.8302 9.80039 11.203 9.73674 11.5941L9.57305 12.4762Z" fill="url(#paint4_linear_6162_111743)"/>
<g style="mix-blend-mode:screen" opacity="0.7">
<path d="M9.15485 10.7665C8.60923 10.6665 7.84534 10.5938 7.12694 10.5938C6.62678 10.5938 6.09934 10.6301 5.64465 10.6847C7.75441 10.6847 9.02754 11.1667 9.20941 11.4213C9.39129 11.6759 9.20941 12.5398 9.05482 12.6489C8.94569 12.7126 8.98207 12.9127 9.00935 13.0491C9.29125 12.9945 9.5186 12.7672 9.57316 12.4762L9.73685 11.5941C9.80051 11.203 9.54588 10.8302 9.15485 10.7665Z" fill="#FEDF12"/>
</g>
<path d="M8.90922 12.5043C8.42725 12.3406 7.75431 12.2314 7.11775 12.2314C6.48119 12.2314 5.79915 12.3406 5.31718 12.5043C5.17168 12.5588 5.03527 12.7134 4.94434 12.9135C5.09893 13.0317 5.2899 13.0863 5.48996 13.059C5.94465 12.9862 6.55393 12.9226 7.12684 12.9226C7.69975 12.9226 8.29994 12.9862 8.75463 13.059C8.9456 13.0863 9.13656 13.0317 9.28206 12.9317C9.19113 12.7134 9.06382 12.5588 8.90922 12.5043Z" fill="#C24402"/>
<path d="M6.99977 12.6855C3.8806 12.6855 1.35254 15.1954 1.33435 18.3055C1.35254 21.4156 3.8806 23.9255 6.99977 23.9255C10.1098 23.9255 12.6379 21.4156 12.6561 18.3055C12.6379 15.1954 10.1098 12.6855 6.99977 12.6855Z" fill="url(#paint5_linear_6162_111743)"/>
<g style="mix-blend-mode:screen" opacity="0.7">
<path d="M7.39052 12.7039C6.19014 14.8227 6.19924 17.1325 7.56331 18.2783C8.81825 19.3423 10.8462 19.115 12.6376 17.8782C12.4103 15.1046 10.1823 12.8948 7.39052 12.7039Z" fill="#FEDF12"/>
</g>
<g style="mix-blend-mode:screen" opacity="0.7">
<path d="M10.2552 18.6966C10.2552 20.7063 8.69107 22.3341 6.7541 22.3341C4.82622 22.3341 3.26208 20.7063 3.26208 18.6966C3.26208 16.6869 4.82622 15.0591 6.7541 15.0591C8.69107 15.0591 10.2552 16.6869 10.2552 18.6966Z" fill="#FEDF12"/>
</g>
<path d="M10.6371 18.3509C10.6371 20.3606 9.00929 21.9884 6.99957 21.9884C4.98985 21.9884 3.36206 20.3606 3.36206 18.3509C3.36206 16.3412 4.98985 14.7134 6.99957 14.7134C9.00929 14.7134 10.6371 16.3412 10.6371 18.3509Z" fill="url(#paint6_radial_6162_111743)"/>
<g style="mix-blend-mode:multiply" opacity="0.3">
<path d="M10.6371 18.3509C10.6371 20.3606 9.00929 21.9884 6.99957 21.9884C4.98985 21.9884 3.36206 20.3606 3.36206 18.3509C3.36206 16.3412 4.98985 14.7134 6.99957 14.7134C9.00929 14.7134 10.6371 16.3412 10.6371 18.3509Z" fill="#AE21C4"/>
</g>
<path d="M6.99957 15.1681C8.92745 15.1681 10.5098 16.6776 10.628 18.5782C10.628 18.5055 10.631 18.4297 10.6371 18.3509C10.6371 16.3412 9.00929 14.7134 6.99957 14.7134C4.98985 14.7134 3.36206 16.3412 3.36206 18.3509C3.36206 18.4297 3.36509 18.5055 3.37115 18.5782C3.48937 16.6776 5.0626 15.1681 6.99957 15.1681Z" fill="#C24402"/>
<path d="M9.4732 13.8682C9.60051 13.6681 9.90969 13.7591 10.2189 13.9591C10.5281 14.1592 10.719 14.4047 10.5917 14.6048C10.4644 14.8048 10.1552 14.7321 9.84604 14.5229C9.53685 14.3229 9.34588 14.0682 9.4732 13.8682Z" fill="white"/>
<path d="M3.75338 20.6067C3.88979 20.4612 4.11714 20.5612 4.33539 20.7613C4.54455 20.9613 4.66276 21.1887 4.52636 21.3342C4.38085 21.4888 4.14442 21.3887 3.93526 21.1887C3.71701 20.9886 3.60788 20.7613 3.75338 20.6067Z" fill="white"/>
<path d="M4.68999 21.4341C4.8173 21.2795 4.9719 21.2977 5.09921 21.3977C5.23562 21.5069 5.29018 21.6524 5.16287 21.807C5.03555 21.9615 4.88096 21.9525 4.74456 21.8524C4.61724 21.7433 4.57177 21.5887 4.68999 21.4341Z" fill="white"/>
<path d="M8.77297 11.0853C8.84572 10.9761 9.0094 11.0216 9.17309 11.1307C9.33678 11.2399 9.44591 11.3672 9.37316 11.4763C9.3004 11.5854 9.13672 11.54 8.97303 11.4308C8.80934 11.3217 8.70022 11.1853 8.77297 11.0853Z" fill="white"/>
<path d="M7.56396 1.52856C7.24567 1.63769 6.95467 1.7741 6.71823 1.99235C6.49089 2.2015 6.3272 2.48341 6.24536 2.78351C6.16352 3.0836 6.14533 3.41098 6.15442 3.72926C6.17261 4.05664 6.21807 4.38401 6.26354 4.71139C6.13623 4.4022 6.04529 4.08392 5.99983 3.74745C5.94526 3.41098 5.95436 3.06542 6.04529 2.72895C6.06955 2.64407 6.09986 2.56223 6.13623 2.48341L6.19079 2.36519C6.20898 2.31972 6.22717 2.28335 6.25445 2.24697C6.30901 2.17422 6.35448 2.10147 6.41814 2.03782C6.44542 2.01054 6.48179 1.97416 6.50908 1.94688L6.60911 1.86504C6.89102 1.64678 7.22749 1.54675 7.56396 1.52856Z" fill="white"/>
<path d="M7.62734 20.7067H6.43606V17.8604L5.81769 17.9695V17.2056C5.93894 17.1692 6.07534 17.1147 6.22691 17.0419C6.37241 16.9752 6.54822 16.8813 6.75435 16.76H7.62734V20.7067Z" fill="#C24402"/>
<path d="M7.62728 20.3432H6.436V17.4968L5.81763 17.606V16.8421C5.93888 16.8057 6.07528 16.7511 6.22685 16.6784C6.37235 16.6117 6.54816 16.5177 6.75428 16.3965H7.62728V20.3432Z" fill="url(#paint7_linear_6162_111743)"/>
<defs>
<linearGradient id="paint0_linear_6162_111743" x1="5.0399" y1="12.6725" x2="7.19291" y2="9.70135" gradientUnits="userSpaceOnUse">
<stop stop-color="#F6A000"/>
<stop offset="1" stop-color="#FFE815"/>
</linearGradient>
<linearGradient id="paint1_linear_6162_111743" x1="1.89356" y1="10.844" x2="1.89356" y2="2.30132" gradientUnits="userSpaceOnUse">
<stop stop-color="#4681E8"/>
<stop offset="1" stop-color="#57BBF9"/>
</linearGradient>
<linearGradient id="paint2_linear_6162_111743" x1="10.1952" y1="2.03211" x2="11.9236" y2="10.1141" gradientUnits="userSpaceOnUse">
<stop stop-color="#4681E8"/>
<stop offset="1" stop-color="#57BBF9"/>
</linearGradient>
<linearGradient id="paint3_linear_6162_111743" x1="6.05988" y1="1.35792" x2="11.9556" y2="1.35792" gradientUnits="userSpaceOnUse">
<stop stop-color="#4681E8"/>
<stop offset="1" stop-color="#57BBF9"/>
</linearGradient>
<linearGradient id="paint4_linear_6162_111743" x1="5.03744" y1="12.6704" x2="7.19563" y2="9.69989" gradientUnits="userSpaceOnUse">
<stop stop-color="#F6A000"/>
<stop offset="1" stop-color="#FFE815"/>
</linearGradient>
<linearGradient id="paint5_linear_6162_111743" x1="16.0896" y1="16.5173" x2="11.0792" y2="27.0881" gradientUnits="userSpaceOnUse">
<stop stop-color="#FFE815"/>
<stop offset="1" stop-color="#F6A000"/>
</linearGradient>
<radialGradient id="paint6_radial_6162_111743" cx="0" cy="0" r="1" gradientUnits="userSpaceOnUse" gradientTransform="translate(6.99657 18.3514) scale(6.26161 6.26162)">
<stop offset="0.066" stop-color="#FFE815"/>
<stop offset="0.784" stop-color="#F6A000"/>
</radialGradient>
<linearGradient id="paint7_linear_6162_111743" x1="11.8946" y1="18.0328" x2="10.3413" y2="22.0793" gradientUnits="userSpaceOnUse">
<stop stop-color="#FFE815"/>
<stop offset="1" stop-color="#F6A000"/>
</linearGradient>
</defs>
</svg>
