<svg width="14" height="25" viewBox="0 0 14 25" fill="none" xmlns="http://www.w3.org/2000/svg">
<path fill-rule="evenodd" clip-rule="evenodd" d="M6.98577 24.8C3.63926 24.8 0.911133 22.0809 0.911133 18.7344C0.911133 18.6435 0.914162 18.5556 0.920224 18.4707V18.4434C0.920224 18.401 0.920224 18.3585 0.920224 18.3161C0.929318 15.9699 2.30248 13.8601 4.37586 12.8689C4.32129 12.7719 4.28492 12.6658 4.26673 12.5506L4.10304 11.6776C4.04848 11.3775 4.12123 11.0774 4.29401 10.8228C4.3607 10.7319 4.43648 10.65 4.52136 10.5773C4.50317 10.5288 4.48195 10.4803 4.4577 10.4318C4.33039 10.1408 4.18489 9.79522 4.08486 9.5406C4.0212 9.3951 3.97573 9.28597 3.95755 9.2496C3.68473 8.6585 3.45738 8.12197 3.24823 7.62181C2.78445 6.52146 2.32067 5.33927 2.01148 4.1207C1.92963 3.76604 1.87507 3.46594 1.84779 3.21132C1.81142 2.74753 1.96601 2.32013 2.28429 1.98366C3.26642 0.928777 5.73083 0.79237 7.10399 0.810558C8.1134 0.819652 9.18646 0.846933 10.2413 1.11065C11.7964 1.4835 12.2511 2.28375 12.3602 2.88394C12.4966 3.64782 12.2056 4.38442 11.951 5.03008C11.8782 5.20286 11.8146 5.36655 11.76 5.52114C11.1416 7.31262 10.3687 9.04953 9.66843 10.55C10.0322 10.8046 10.205 11.2411 10.1231 11.6685C10.114 11.7504 10.1049 11.8413 10.0867 11.9414C10.0504 12.2687 9.99581 12.6598 9.79574 12.969C10.4232 13.2963 10.9961 13.7328 11.469 14.2603C12.4875 15.3697 13.0604 16.8702 13.0877 18.4707C13.1059 19.6074 12.8331 20.7169 12.3056 21.6626C11.2507 23.5723 9.16828 24.8 6.98577 24.8ZM5.14883 11.1684C5.0488 11.1866 4.99423 11.2502 4.96695 11.2957C4.91239 11.3594 4.8942 11.4503 4.91239 11.523L5.06698 12.4051C5.08517 12.4779 5.12155 12.5506 5.18521 12.5961C5.20339 12.6082 5.22158 12.6173 5.23977 12.6234C5.24583 12.6295 5.25189 12.6325 5.25795 12.6325C5.41255 12.6961 5.51258 12.8507 5.51258 13.0235C5.50349 13.1872 5.39436 13.3418 5.23977 13.3964C3.15729 14.133 1.74776 16.1063 1.73866 18.3161C1.73866 18.3434 1.73866 18.3798 1.73866 18.407V18.4616C1.73866 18.4737 1.73866 18.4828 1.73866 18.4889C1.7326 18.5677 1.72957 18.6495 1.72957 18.7344C1.72957 21.6262 4.09395 23.9815 6.98577 23.9815C8.86818 23.9815 10.6778 22.9176 11.5872 21.2716C12.051 20.4441 12.2783 19.4801 12.2692 18.4798C12.242 17.0975 11.7327 15.7608 10.8688 14.815C10.3141 14.2057 9.61387 13.7237 8.8409 13.4327C8.67721 13.3691 8.56808 13.1963 8.58627 13.0144C8.59537 12.8326 8.73178 12.6871 8.91365 12.6507H8.93183C8.97427 12.6386 9.01065 12.6204 9.04096 12.5961C9.19555 12.4779 9.24103 12.1232 9.2774 11.8322C9.29559 11.7231 9.30468 11.6231 9.32287 11.523C9.34106 11.4048 9.29559 11.2866 9.19556 11.2139L9.17737 11.2048C9.14099 11.1866 9.10765 11.1744 9.07734 11.1684L9.05006 11.1593C8.92274 11.1411 8.81362 11.0593 8.75906 10.9501C8.70449 10.8319 8.6954 10.7046 8.74996 10.5864C9.48655 9.02225 10.3232 7.15802 10.987 5.25742C11.0507 5.07555 11.1234 4.90276 11.1871 4.72089C11.4144 4.15707 11.6509 3.56598 11.5508 3.02035C11.4599 2.502 10.9507 2.12006 10.0413 1.90181C9.07734 1.66537 8.05884 1.63809 7.0949 1.629C5.01242 1.60172 3.4392 1.94728 2.88448 2.53838C2.72079 2.72025 2.64804 2.91122 2.66623 3.14766C2.68442 3.34773 2.72988 3.61145 2.81173 3.92063C3.08454 5.02098 3.48467 6.06677 4.00302 7.30352C4.20308 7.79459 4.43951 8.32203 4.70323 8.91313C4.72142 8.9495 4.76689 9.06772 4.83964 9.23141C4.96695 9.5315 5.29433 10.3136 5.39436 10.5045C5.43983 10.5591 5.46711 10.6228 5.4853 10.6955C5.52167 10.9138 5.37617 11.132 5.14883 11.1684ZM5.09427 10.359C5.06395 10.359 5.03667 10.359 5.01242 10.359C5.03667 10.359 5.05789 10.359 5.07608 10.359C5.08214 10.359 5.0882 10.359 5.09427 10.359Z" fill="#474747"/>
<path d="M12.6516 18.7338C12.6516 21.8621 10.1145 24.3901 6.98622 24.3901C3.85796 24.3901 1.3208 21.8621 1.3208 18.7338C1.3208 15.6055 3.85796 13.0684 6.98622 13.0684C10.1145 13.0684 12.6516 15.6055 12.6516 18.7338Z" fill="#C24402"/>
<path d="M12.6516 18.7338C12.6516 21.8621 10.1145 24.3901 6.98622 24.3901C3.85796 24.3901 1.3208 21.8621 1.3208 18.7338C1.3208 15.6055 3.85796 13.0684 6.98622 13.0684C10.1145 13.0684 12.6516 15.6055 12.6516 18.7338Z" fill="#2B5F9E"/>
<path d="M9.55965 12.4764C9.49599 12.8583 9.13224 13.113 8.7503 13.0584C8.29561 12.9857 7.68633 12.922 7.11342 12.922C6.54051 12.922 5.94033 12.9857 5.48564 13.0584C5.1037 13.113 4.73995 12.8583 4.6672 12.4764L4.50351 11.5943C4.43986 11.2033 4.69448 10.8304 5.08551 10.7668C5.63114 10.6667 6.39501 10.594 7.11342 10.594C7.83183 10.594 8.6048 10.6667 9.15043 10.7668C9.54146 10.8304 9.79608 11.2033 9.72333 11.5943L9.55965 12.4764Z" fill="url(#paint0_linear_6162_111797)"/>
<path fill-rule="evenodd" clip-rule="evenodd" d="M11.9419 3.1842C11.7691 5.29396 8.87728 11.2686 8.87728 11.2686H5.32162C5.32162 11.2686 2.4298 5.30306 2.25702 3.1842C2.11152 1.32907 5.77631 1.20176 7.104 1.21995C8.4226 1.20176 12.0965 1.32907 11.9419 3.1842ZM7.22222 6.00328C7.49503 5.11209 7.686 4.41187 7.73147 4.18452C7.89516 3.3388 7.50413 2.77498 7.14038 2.44761C6.85847 2.78408 6.57656 3.39336 6.80391 4.38458C6.85847 4.59374 7.01306 5.21212 7.22222 6.00328Z" fill="url(#paint1_linear_6162_111797)"/>
<path d="M6.09435 3.8562C5.83973 3.5743 3.31166 3.09233 2.41138 4.01989C3.03885 6.55706 5.32138 11.2676 5.32138 11.2676H8.34051C8.2132 10.8948 6.37626 5.54765 6.11254 3.96533C6.10647 3.92895 6.10042 3.89258 6.09435 3.8562Z" fill="url(#paint2_linear_6162_111797)"/>
<g style="mix-blend-mode:overlay">
<path fill-rule="evenodd" clip-rule="evenodd" d="M11.942 3.18293C11.7692 5.29269 8.87742 11.2673 8.87742 11.2673H8.34089C8.21358 10.8945 6.37663 5.54731 6.11291 3.96499C5.82191 2.24626 6.59489 1.24595 9.42305 1.36417C10.7507 1.58242 12.033 2.07348 11.942 3.18293ZM10.8144 2.24627C10.0869 1.80976 7.93167 1.38235 7.14052 2.44633C6.85861 2.7828 6.5767 3.39208 6.80404 4.38331C6.85861 4.59246 7.0132 5.21084 7.22236 6.002L8.59552 10.5034C10.1778 7.29332 10.969 5.04715 11.2236 4.14687C11.6146 2.74642 11.0417 2.38267 10.8144 2.24627Z" fill="#5ED197"/>
</g>
<g style="mix-blend-mode:multiply" opacity="0.3">
<path d="M10.814 2.24705C10.0865 1.81055 7.93129 1.38314 7.14014 2.44711C7.50389 2.77449 7.89492 3.33831 7.73123 4.18403C7.68576 4.41137 7.49479 5.11159 7.22198 6.00279L8.59514 10.5042C10.1775 7.29411 10.9686 5.04794 11.2232 4.14765C11.6143 2.74721 11.0414 2.38346 10.814 2.24705Z" fill="#392C82"/>
</g>
<path d="M9.55965 12.4764C9.49599 12.8583 9.13224 13.113 8.7503 13.0584C8.29561 12.9857 7.68633 12.922 7.11342 12.922C6.54051 12.922 5.94033 12.9857 5.48564 13.0584C5.1037 13.113 4.73995 12.8583 4.6672 12.4764L4.50351 11.5943C4.43986 11.2033 4.69448 10.8304 5.08551 10.7668C5.63114 10.6667 6.39501 10.594 7.11342 10.594C7.83183 10.594 8.6048 10.6667 9.15043 10.7668C9.54146 10.8304 9.79608 11.2033 9.72333 11.5943L9.55965 12.4764Z" fill="url(#paint3_linear_6162_111797)"/>
<g style="mix-blend-mode:screen" opacity="0.7">
<path d="M9.15003 10.7668C8.6044 10.6667 7.83143 10.594 7.11302 10.594C6.61286 10.594 6.09452 10.6304 5.63074 10.6849C7.74959 10.6849 9.02271 11.1669 9.20459 11.4215C9.38646 11.6762 9.20459 12.5401 9.0409 12.6492C8.94087 12.7128 8.96815 12.9129 9.00453 13.0493C9.28644 12.9948 9.51378 12.7674 9.55925 12.4764L9.72293 11.5943C9.79568 11.2033 9.54106 10.8304 9.15003 10.7668Z" fill="#A3EDFE"/>
</g>
<path d="M8.90446 12.5045C8.42249 12.3408 7.74045 12.2317 7.10389 12.2317C6.46733 12.2317 5.78529 12.3408 5.31242 12.5045C5.15782 12.5591 5.03051 12.7137 4.93958 12.9137C5.08508 13.0319 5.28514 13.0865 5.4852 13.0592C5.93989 12.9865 6.54008 12.9228 7.11298 12.9228C7.68589 12.9228 8.29517 12.9865 8.74986 13.0592C8.94083 13.0865 9.1318 13.0319 9.2773 12.9319C9.18637 12.7137 9.05905 12.5591 8.90446 12.5045Z" fill="#2B5F9E"/>
<path d="M6.98616 12.6858C3.87609 12.6858 1.34802 15.1957 1.32983 18.3058C1.34802 21.4158 3.87609 23.9257 6.98616 23.9257C10.1053 23.9257 12.6334 21.4158 12.6516 18.3058C12.6334 15.1957 10.1053 12.6858 6.98616 12.6858Z" fill="url(#paint4_linear_6162_111797)"/>
<g style="mix-blend-mode:screen" opacity="0.7">
<path d="M7.38642 12.7041C6.18604 14.823 6.19514 17.1328 7.55011 18.2786C8.80505 19.3426 10.8421 19.1152 12.6335 17.8785C12.4062 15.1049 10.1691 12.8951 7.38642 12.7041Z" fill="#7CF3FE"/>
</g>
<g style="mix-blend-mode:screen" opacity="0.7">
<path d="M10.2417 18.6968C10.2417 20.7066 8.67758 22.3344 6.7497 22.3344C4.82182 22.3344 3.25769 20.7066 3.25769 18.6968C3.25769 16.6871 4.82182 15.0593 6.7497 15.0593C8.67758 15.0593 10.2417 16.6871 10.2417 18.6968Z" fill="#A3EDFE"/>
</g>
<path d="M10.6235 18.3511C10.6235 20.3609 8.99574 21.9887 6.98602 21.9887C4.9763 21.9887 3.34851 20.3609 3.34851 18.3511C3.34851 16.3414 4.9763 14.7136 6.98602 14.7136C8.99574 14.7136 10.6235 16.3414 10.6235 18.3511Z" fill="url(#paint5_radial_6162_111797)"/>
<path d="M6.98602 15.1683C8.92299 15.1683 10.4962 16.6779 10.6144 18.5785C10.6205 18.5057 10.6235 18.43 10.6235 18.3511C10.6235 16.3414 8.99574 14.7136 6.98602 14.7136C4.9763 14.7136 3.34851 16.3414 3.34851 18.3511C3.35457 18.43 3.3576 18.5057 3.3576 18.5785C3.47582 16.6779 5.05814 15.1683 6.98602 15.1683Z" fill="#2B5F9E"/>
<g style="mix-blend-mode:multiply" opacity="0.3">
<path d="M10.6235 18.3511C10.6235 20.3609 8.99574 21.9887 6.98602 21.9887C4.9763 21.9887 3.34851 20.3609 3.34851 18.3511C3.34851 16.3414 4.9763 14.7136 6.98602 14.7136C8.99574 14.7136 10.6235 16.3414 10.6235 18.3511Z" fill="#392C82"/>
</g>
<path d="M9.46881 13.8684C9.59612 13.6684 9.89621 13.7593 10.2054 13.9594C10.5146 14.1594 10.7147 14.405 10.5873 14.605C10.4509 14.8051 10.1417 14.7323 9.83256 14.5232C9.52337 14.3231 9.3324 14.0685 9.46881 13.8684Z" fill="white"/>
<path d="M3.7398 20.6069C3.8853 20.4614 4.11265 20.5614 4.3309 20.7615C4.54005 20.9616 4.65827 21.1889 4.51277 21.3344C4.37636 21.489 4.13993 21.389 3.92168 21.1889C3.71252 20.9888 3.60339 20.7615 3.7398 20.6069Z" fill="white"/>
<path d="M4.68541 21.4344C4.81273 21.2798 4.96732 21.2979 5.09463 21.398C5.22195 21.5071 5.2765 21.6526 5.15829 21.8072C5.03097 21.9618 4.86729 21.9527 4.73997 21.8436C4.61266 21.7435 4.5672 21.5889 4.68541 21.4344Z" fill="white"/>
<path d="M8.76862 11.0855C8.83227 10.9764 8.99596 11.0219 9.15965 11.131C9.33243 11.2401 9.43246 11.3674 9.36881 11.4765C9.29606 11.5857 9.13237 11.5402 8.95959 11.4311C8.7959 11.322 8.69587 11.1855 8.76862 11.0855Z" fill="white"/>
<path d="M7.56769 1.50983C7.24941 1.60986 6.94932 1.75536 6.72198 1.96451C6.49463 2.17367 6.33094 2.45558 6.2491 2.75567C6.16725 3.05577 6.13997 3.38315 6.15816 3.71052C6.17635 4.0288 6.22182 4.35618 6.26729 4.68356C6.13997 4.38346 6.04904 4.05609 5.99447 3.71962C5.949 3.38315 5.9581 3.03758 6.04904 2.70111C6.07329 2.61624 6.1036 2.53439 6.13998 2.45558L6.19454 2.33736C6.21273 2.29189 6.23091 2.25552 6.25819 2.21914C6.31276 2.14639 6.35823 2.07364 6.42188 2.00998C6.44916 1.9827 6.47644 1.94633 6.51282 1.91905L6.61285 1.8372C6.89476 1.61895 7.23123 1.51892 7.56769 1.50073C7.56769 1.50679 7.56769 1.50983 7.56769 1.50983Z" fill="#85FFD6"/>
<path d="M5.99455 19.3067C6.10368 19.2157 6.21584 19.1248 6.33102 19.0339C6.44621 18.9429 6.5614 18.849 6.67659 18.752C6.79177 18.655 6.89181 18.5549 6.97668 18.4519C7.06762 18.3488 7.14037 18.2427 7.19493 18.1336C7.2495 18.0184 7.27678 17.9032 7.27678 17.788C7.27678 17.7213 7.26162 17.6637 7.23131 17.6152C7.201 17.5667 7.15856 17.5273 7.104 17.497C7.0555 17.4667 7.00093 17.4455 6.94031 17.4334C6.87362 17.4152 6.80996 17.4061 6.74934 17.4061C6.67659 17.4061 6.6008 17.4121 6.52199 17.4243C6.44318 17.4364 6.3674 17.4515 6.29465 17.4697C6.2219 17.4879 6.15521 17.5061 6.09459 17.5243C6.0279 17.5485 5.97333 17.5698 5.9309 17.5879L5.75812 16.6968V16.333L6.9494 16.5149C7.21615 16.5149 7.44956 16.5452 7.64962 16.6058C7.84968 16.6725 8.01338 16.7604 8.14069 16.8695C8.27406 16.9787 8.37106 17.106 8.43168 17.2515C8.49231 17.397 8.52262 17.5485 8.52262 17.7062C8.52262 17.882 8.48019 18.0578 8.39531 18.2336C8.3165 18.4094 8.20737 18.5792 8.06793 18.7429C7.92243 18.9005 7.75571 19.0521 7.56778 19.1976C7.37984 19.337 7.18281 19.4582 6.97668 19.5613H8.48625V20.5343H5.84906L5.70355 19.5522V19.1885L5.99455 19.3067Z" fill="#2B5F9E"/>
<path d="M6.97699 19.1985H8.48656V20.1716H5.84936L5.70386 19.1894C5.78267 19.1106 5.87967 19.0288 5.99486 18.9439C6.10398 18.853 6.21614 18.762 6.33133 18.6711C6.44652 18.5801 6.5617 18.4862 6.67689 18.3892C6.79208 18.2922 6.89211 18.1921 6.97699 18.0891C7.06792 17.986 7.14068 17.8799 7.19524 17.7708C7.2498 17.6556 7.27708 17.5404 7.27708 17.4252C7.27708 17.3585 7.26193 17.3009 7.23162 17.2524C7.2013 17.2039 7.15886 17.1645 7.1043 17.1342C7.0558 17.1039 7.00124 17.0827 6.94061 17.0706C6.87393 17.0524 6.81027 17.0433 6.74964 17.0433C6.67689 17.0433 6.60111 17.0494 6.5223 17.0615C6.44348 17.0736 6.3677 17.0888 6.29495 17.1069C6.2222 17.1251 6.15552 17.1433 6.09489 17.1615C6.02821 17.1858 5.97364 17.207 5.9312 17.2252L5.75842 16.334C5.96455 16.2612 6.17067 16.2127 6.3768 16.1885C6.57686 16.1642 6.76783 16.1521 6.94971 16.1521C7.21646 16.1521 7.44986 16.1824 7.64993 16.243C7.84999 16.3097 8.01368 16.3976 8.14099 16.5068C8.27437 16.6159 8.37136 16.7432 8.43199 16.8887C8.49261 17.0342 8.52293 17.1858 8.52293 17.3434C8.52293 17.5192 8.48049 17.695 8.39562 17.8708C8.3168 18.0466 8.20768 18.2164 8.06824 18.3801C7.92274 18.5377 7.75602 18.6893 7.56808 18.8348C7.38014 18.9742 7.18311 19.0955 6.97699 19.1985Z" fill="url(#paint6_linear_6162_111797)"/>
<defs>
<linearGradient id="paint0_linear_6162_111797" x1="5.03259" y1="12.6726" x2="7.1856" y2="9.70142" gradientUnits="userSpaceOnUse">
<stop stop-color="#F6A000"/>
<stop offset="1" stop-color="#FFE815"/>
</linearGradient>
<linearGradient id="paint1_linear_6162_111797" x1="12.3176" y1="1.14183" x2="12.3176" y2="9.38999" gradientUnits="userSpaceOnUse">
<stop stop-color="#25C264"/>
<stop offset="1" stop-color="#018A77"/>
</linearGradient>
<linearGradient id="paint2_linear_6162_111797" x1="10.1868" y1="2.03226" x2="11.9153" y2="10.1143" gradientUnits="userSpaceOnUse">
<stop stop-color="#018A77"/>
<stop offset="1" stop-color="#25C264"/>
</linearGradient>
<linearGradient id="paint3_linear_6162_111797" x1="5.03259" y1="12.6726" x2="7.1856" y2="9.70142" gradientUnits="userSpaceOnUse">
<stop stop-color="#4A8AC2"/>
<stop offset="1" stop-color="#B6F1FF"/>
</linearGradient>
<linearGradient id="paint4_linear_6162_111797" x1="2.61878" y1="26.4808" x2="-2.39167" y2="15.91" gradientUnits="userSpaceOnUse">
<stop stop-color="#4A8AC2"/>
<stop offset="1" stop-color="#B6F1FF"/>
</linearGradient>
<radialGradient id="paint5_radial_6162_111797" cx="0" cy="0" r="1" gradientUnits="userSpaceOnUse" gradientTransform="translate(6.98902 18.3515) scale(3.63633 3.63633)">
<stop stop-color="#B6F1FF"/>
<stop offset="1" stop-color="#4A8AC2"/>
</radialGradient>
<linearGradient id="paint6_linear_6162_111797" x1="10.589" y1="18.5715" x2="8.88113" y2="23.0206" gradientUnits="userSpaceOnUse">
<stop stop-color="#B6F1FF"/>
<stop offset="1" stop-color="#4A8AC2"/>
</linearGradient>
</defs>
</svg>
