<svg width="14" height="25" viewBox="0 0 14 25" fill="none" xmlns="http://www.w3.org/2000/svg">
<path fill-rule="evenodd" clip-rule="evenodd" d="M6.99066 24.8047C3.63506 24.8047 0.916016 22.0766 0.916016 18.73C0.916016 18.6452 0.916016 18.5603 0.916016 18.4754V18.439C0.916016 18.3966 0.916016 18.3542 0.916016 18.3117C0.934203 15.9746 2.29827 13.8558 4.37165 12.8645C4.32315 12.7675 4.28678 12.6614 4.26253 12.5463L4.09884 11.6732C4.05337 11.3822 4.11703 11.0731 4.28981 10.8275C4.3565 10.7305 4.43531 10.6456 4.52624 10.5729C4.50199 10.5305 4.47774 10.482 4.45349 10.4274C4.32618 10.1364 4.18978 9.79083 4.08065 9.5453C4.017 9.39071 3.97152 9.28158 3.95334 9.2452C3.68962 8.65411 3.45318 8.11757 3.24402 7.61741C2.78024 6.52616 2.31646 5.33487 2.01637 4.1163C1.92543 3.76165 1.87087 3.46155 1.85268 3.20692C1.8163 2.75223 1.9618 2.32483 2.28008 1.97926C3.26221 0.924382 5.72662 0.787976 7.09978 0.806163C8.10919 0.815257 9.18225 0.851631 10.2371 1.10626C11.8013 1.4882 12.256 2.27936 12.356 2.87955C12.4924 3.65252 12.2014 4.38002 11.9468 5.02568C11.8831 5.19847 11.8195 5.36215 11.7558 5.51675C11.1374 7.30823 10.3644 9.04514 9.67332 10.5547C10.028 10.8002 10.2008 11.2367 10.128 11.6732C10.1098 11.746 10.1007 11.8369 10.0916 11.937C10.0462 12.2643 10.0007 12.6554 9.79153 12.9646C10.419 13.2919 10.9919 13.7375 11.4739 14.2559C12.4833 15.3744 13.0562 16.8658 13.0835 18.4663C13.1017 19.603 12.8289 20.7125 12.3105 21.6673C11.2556 23.5679 9.16407 24.8047 6.99066 24.8047ZM5.14462 11.164C5.04459 11.1822 4.99002 11.2549 4.96274 11.2913C4.91727 11.3641 4.89 11.4459 4.90818 11.5277L5.07188 12.4008C5.08097 12.4735 5.12643 12.5463 5.19009 12.5917C5.20221 12.6038 5.21737 12.616 5.23556 12.6281C5.24162 12.6281 5.24769 12.6281 5.25375 12.6281C5.40834 12.6918 5.51746 12.8463 5.50837 13.0191C5.50837 13.1919 5.39924 13.3374 5.23556 13.392C3.15308 14.1286 1.75264 16.1019 1.73445 18.3117C1.73445 18.339 1.73445 18.3754 1.73445 18.4118V18.4572C1.73445 18.4693 1.73445 18.4815 1.73445 18.4936C1.73445 18.5724 1.73445 18.6512 1.73445 18.73C1.73445 21.631 4.08975 23.9862 6.99066 23.9862C8.87307 23.9862 10.6736 22.9223 11.5921 21.2672C12.0468 20.4397 12.2832 19.4757 12.265 18.4754C12.2378 17.1022 11.7285 15.7655 10.8646 14.8106C10.3099 14.2013 9.60967 13.7284 8.84579 13.4374C8.67301 13.3738 8.56388 13.201 8.58207 13.0191C8.60026 12.8282 8.73666 12.6827 8.91853 12.6463H8.92762C8.97006 12.6342 9.00644 12.616 9.03676 12.5917C9.03676 12.5917 9.03979 12.5917 9.04585 12.5917C9.19135 12.4735 9.23682 12.1188 9.27319 11.8369C9.29138 11.7278 9.30047 11.6187 9.31866 11.5277C9.34594 11.4004 9.29138 11.2822 9.19135 11.2095H9.17316C9.14285 11.1852 9.10951 11.1701 9.07313 11.164H9.04585C8.91854 11.1367 8.81851 11.0549 8.75485 10.9457C8.70029 10.8366 8.70029 10.7002 8.75485 10.582C9.48235 9.01786 10.3281 7.16273 10.9828 5.25303C11.0465 5.08025 11.1192 4.89837 11.192 4.72559C11.4102 4.15268 11.6467 3.56158 11.5557 3.02505C11.4557 2.49761 10.9555 2.12476 10.0462 1.89742C9.07313 1.66098 8.05463 1.6337 7.09978 1.6246C5.00821 1.59732 3.43499 1.94289 2.88027 2.53398C2.71659 2.71586 2.64383 2.90683 2.66202 3.14327C2.68021 3.35243 2.72568 3.60705 2.80752 3.92533C3.08034 5.02568 3.48046 6.07147 3.99881 7.29913C4.20796 7.79929 4.4353 8.31764 4.69902 8.90873C4.71721 8.94511 4.77177 9.06333 4.83543 9.22702C4.96274 9.52711 5.29013 10.3183 5.39016 10.5001C5.43563 10.5547 5.46291 10.6184 5.48109 10.6911C5.51747 10.9185 5.37196 11.1276 5.14462 11.164ZM5.08097 10.3546C5.06278 10.3546 5.04459 10.3577 5.02641 10.3637C5.04459 10.3577 5.06581 10.3546 5.09006 10.3546C5.084 10.3546 5.08097 10.3546 5.08097 10.3546Z" fill="#474747"/>
<path d="M12.656 18.7314C12.656 21.8596 10.1188 24.3968 6.99056 24.3968C3.8623 24.3968 1.32513 21.8596 1.32513 18.7314C1.32513 15.6031 3.8623 13.0659 6.99056 13.0659C10.1188 13.0659 12.656 15.6031 12.656 18.7314Z" fill="#C24402"/>
<path d="M12.656 18.7314C12.656 21.8596 10.1188 24.3968 6.99056 24.3968C3.8623 24.3968 1.32513 21.8596 1.32513 18.7314C1.32513 15.6031 3.8623 13.0659 6.99056 13.0659C10.1188 13.0659 12.656 15.6031 12.656 18.7314Z" fill="#991602"/>
<path d="M9.56396 12.4744C9.49121 12.8563 9.12746 13.1201 8.74552 13.0564C8.29083 12.9836 7.68156 12.92 7.11774 12.92C6.54483 12.92 5.93555 12.9836 5.48086 13.0564C5.09892 13.1201 4.73517 12.8563 4.66242 12.4744L4.50782 11.6014C4.43507 11.2104 4.6897 10.8375 5.08073 10.7648C5.62636 10.6647 6.39024 10.6011 7.11774 10.6011C7.83615 10.6011 8.60002 10.6647 9.14565 10.7648C9.53668 10.8375 9.79131 11.2104 9.71856 11.6014L9.56396 12.4744Z" fill="url(#paint0_linear_6162_111858)"/>
<path fill-rule="evenodd" clip-rule="evenodd" d="M11.9374 3.18005C11.7737 5.28981 8.8819 11.2735 8.8819 11.2735H5.31715C5.31715 11.2735 2.42533 5.29891 2.26164 3.18005C2.10705 1.32492 5.77183 1.19761 7.09952 1.21579C8.42721 1.19761 12.092 1.32492 11.9374 3.18005ZM7.22684 5.99913C7.49056 5.10794 7.69062 4.41681 7.72699 4.18947C7.89068 3.34374 7.49965 2.77083 7.14499 2.44346C6.85399 2.77993 6.57209 3.38921 6.80853 4.38953C6.854 4.59869 7.00859 5.20797 7.22684 5.99913Z" fill="url(#paint1_linear_6162_111858)"/>
<path d="M6.09033 3.85281C5.84479 3.5709 3.30763 3.09802 2.40735 4.02559C3.04391 6.56276 5.31736 11.2733 5.31736 11.2733H8.34559C8.20918 10.9005 6.37223 5.55334 6.10851 3.97103C6.10245 3.92859 6.09639 3.88918 6.09033 3.85281Z" fill="url(#paint2_linear_6162_111858)"/>
<g style="mix-blend-mode:screen">
<path fill-rule="evenodd" clip-rule="evenodd" d="M11.9375 3.18087C11.7738 5.29063 8.882 11.2743 8.882 11.2743H8.34547C8.20907 10.9015 6.37212 5.55435 6.1084 3.97203C5.8174 2.24421 6.59037 1.24389 9.41853 1.37121C9.42459 1.37121 9.42762 1.37121 9.42762 1.37121C10.7462 1.58036 12.0285 2.07143 11.9375 3.18087ZM10.8099 2.24421C10.0824 1.80771 7.93625 1.3803 7.14509 2.44427C6.85409 2.78074 6.57219 3.39003 6.80862 4.39034C6.85409 4.5995 7.00869 5.20879 7.22694 5.99995L8.591 10.5014C10.1733 7.29126 10.9645 5.0451 11.2282 4.1539C11.6101 2.74437 11.0463 2.38062 10.8099 2.24421Z" fill="#CDD50E"/>
</g>
<g style="mix-blend-mode:multiply" opacity="0.5">
<path d="M10.8103 2.2429C10.0828 1.8064 7.93667 1.37899 7.14551 2.44296C7.50016 2.77034 7.8912 3.34325 7.72751 4.18897C7.69114 4.41632 7.49107 5.10744 7.22735 5.99864L8.59142 10.5001C10.1737 7.28995 10.9649 5.04379 11.2286 4.1526C11.6105 2.74306 11.0467 2.37931 10.8103 2.2429Z" fill="#AE21C4"/>
</g>
<path d="M9.56396 12.4744C9.49121 12.8563 9.12746 13.1201 8.74552 13.0564C8.29083 12.9836 7.68156 12.92 7.11774 12.92C6.54483 12.92 5.93555 12.9836 5.48086 13.0564C5.09892 13.1201 4.73517 12.8563 4.66242 12.4744L4.50782 11.6014C4.43507 11.2104 4.6897 10.8375 5.08073 10.7648C5.62636 10.6647 6.39024 10.6011 7.11774 10.6011C7.83615 10.6011 8.60002 10.6647 9.14565 10.7648C9.53668 10.8375 9.79131 11.2104 9.71856 11.6014L9.56396 12.4744Z" fill="url(#paint3_linear_6162_111858)"/>
<g style="mix-blend-mode:overlay">
<path d="M9.14581 10.7648C8.60019 10.6647 7.83632 10.6011 7.11791 10.6011C6.61775 10.6011 6.09031 10.6284 5.63562 10.6829C7.74538 10.6829 9.0185 11.1649 9.20037 11.4195C9.38225 11.6741 9.20038 12.5381 9.04579 12.6472C8.93666 12.7108 8.97303 12.92 9.00032 13.0473C9.28222 12.9927 9.50956 12.7745 9.56413 12.4744L9.71873 11.6014C9.79148 11.2104 9.53685 10.8375 9.14581 10.7648Z" fill="#FEA012"/>
</g>
<path d="M8.90043 12.5107C8.41846 12.3379 7.74551 12.2288 7.10895 12.2288C6.47239 12.2288 5.79036 12.3379 5.30839 12.5107C5.1538 12.5561 5.02648 12.7107 4.93555 12.9199C5.09014 13.029 5.28111 13.0836 5.48117 13.0563C5.93586 12.9835 6.54514 12.9199 7.11805 12.9199C7.68187 12.9199 8.29114 12.9835 8.74583 13.0563C8.9368 13.0836 9.12777 13.0381 9.27327 12.929C9.18233 12.7198 9.05502 12.5652 8.90043 12.5107Z" fill="#991602"/>
<path d="M6.99049 12.6833C3.87133 12.6833 1.34326 15.2023 1.32507 18.3124C1.34326 21.4134 3.87133 23.9324 6.99049 23.9324C10.1006 23.9324 12.6286 21.4134 12.6468 18.3124C12.6286 15.2023 10.1006 12.6833 6.99049 12.6833Z" fill="url(#paint4_linear_6162_111858)"/>
<g style="mix-blend-mode:overlay">
<path d="M7.38137 12.7014C6.18099 14.8203 6.19009 17.1301 7.55415 18.285C8.8 19.349 10.837 19.1216 12.6285 17.8849C12.4011 15.1022 10.1641 12.8924 7.38137 12.7014Z" fill="#FEA012"/>
</g>
<g style="mix-blend-mode:overlay">
<path d="M10.246 18.6943C10.246 20.7041 8.68191 22.3319 6.74493 22.3319C4.81705 22.3319 3.25293 20.7041 3.25293 18.6943C3.25293 16.6937 4.81705 15.0659 6.74493 15.0659C8.68191 15.0659 10.246 16.6937 10.246 18.6943Z" fill="#FEA012"/>
</g>
<path d="M10.6189 18.3481C10.6189 20.3579 8.9911 21.9857 6.99047 21.9857C4.98075 21.9857 3.35297 20.3579 3.35297 18.3481C3.35297 16.3475 4.98075 14.7197 6.99047 14.7197C8.9911 14.7197 10.6189 16.3475 10.6189 18.3481Z" fill="url(#paint5_radial_6162_111858)"/>
<path opacity="0.9" d="M6.99047 15.1653C8.91835 15.1653 10.5007 16.6749 10.6189 18.5755C10.6189 18.5027 10.6189 18.427 10.6189 18.3481C10.6189 16.3475 8.9911 14.7197 6.99047 14.7197C4.98075 14.7197 3.35297 16.3475 3.35297 18.3481C3.35297 18.427 3.356 18.5027 3.36206 18.5755C3.47118 16.6749 5.0535 15.1653 6.99047 15.1653Z" fill="#991602"/>
<g style="mix-blend-mode:multiply" opacity="0.5">
<path d="M10.6189 18.3481C10.6189 20.3579 8.9911 21.9857 6.99047 21.9857C4.98075 21.9857 3.35297 20.3579 3.35297 18.3481C3.35297 16.3475 4.98075 14.7197 6.99047 14.7197C8.9911 14.7197 10.6189 16.3475 10.6189 18.3481Z" fill="#AE21C4"/>
</g>
<path d="M9.4731 13.8745C9.60041 13.6654 9.90961 13.7563 10.2188 13.9564C10.528 14.1564 10.728 14.402 10.5916 14.602C10.4643 14.8021 10.1551 14.7384 9.84595 14.5293C9.52767 14.3292 9.34579 14.0746 9.4731 13.8745Z" fill="#FCE867"/>
<path d="M3.74399 20.6133C3.88039 20.4587 4.10773 20.5587 4.32598 20.7588C4.53514 20.968 4.65336 21.1862 4.50786 21.3317C4.37145 21.4863 4.13502 21.3954 3.92586 21.1862C3.70761 20.9861 3.59848 20.7588 3.74399 20.6133Z" fill="#FEB121"/>
<path d="M4.68071 21.4317C4.80803 21.2771 4.96262 21.2953 5.08993 21.4044C5.21725 21.5044 5.27181 21.6499 5.15359 21.8045C5.02627 21.9591 4.87168 21.95 4.73528 21.85C4.60796 21.7499 4.5625 21.5953 4.68071 21.4317Z" fill="#FEB121"/>
<path d="M8.78198 11.0557C8.84564 10.9466 9.00933 10.9921 9.18211 11.1012C9.3458 11.2103 9.45492 11.3467 9.38217 11.4559C9.30942 11.5559 9.14573 11.5195 8.97295 11.4104C8.80926 11.3013 8.70923 11.1649 8.78198 11.0557Z" fill="#FCE867"/>
<path d="M7.56358 1.50708C7.2453 1.60711 6.95431 1.75261 6.71787 1.96177C6.49053 2.18002 6.32683 2.45283 6.24499 2.75293C6.16314 3.06212 6.14496 3.3804 6.15405 3.70778C6.17224 4.03515 6.21771 4.35344 6.27227 4.68991C6.27227 4.68991 6.26924 4.68991 6.26318 4.68991C6.13587 4.38072 6.04493 4.05334 5.99946 3.71687C5.9449 3.38949 5.95399 3.03484 6.04493 2.69837C6.06918 2.61349 6.09949 2.53165 6.13587 2.45283L6.19043 2.33461C6.20861 2.29824 6.2359 2.25277 6.25409 2.22549C6.30865 2.15274 6.35411 2.07089 6.41777 2.01633C6.45415 1.97996 6.48143 1.95268 6.50871 1.9163L6.61784 1.83446C6.89065 1.6253 7.23621 1.51617 7.56358 1.50708Z" fill="white"/>
<path d="M6.17234 18.1753C6.39666 18.1753 6.58156 18.1662 6.72706 18.148C6.8665 18.1359 6.97259 18.1116 7.04534 18.0752C7.12415 18.0449 7.17872 18.0055 7.20903 17.957C7.23328 17.9085 7.2454 17.8509 7.2454 17.7842C7.2454 17.7054 7.23024 17.6387 7.19993 17.5842C7.16962 17.5296 7.12719 17.4872 7.07263 17.4569C7.01807 17.4205 6.9544 17.3962 6.88165 17.3841C6.8089 17.3659 6.73616 17.3568 6.66341 17.3568C6.5846 17.3568 6.50577 17.3629 6.42696 17.375C6.34815 17.3811 6.26631 17.3932 6.18143 17.4114C6.10262 17.4296 6.02381 17.4508 5.945 17.4751C5.86619 17.4993 5.79343 17.5266 5.72675 17.5569V16.8021C5.90256 16.7172 6.0814 16.6566 6.26328 16.6202C6.45122 16.5839 6.65734 16.5657 6.88165 16.5657C7.0999 16.5657 7.29087 16.5808 7.45456 16.6111C7.61825 16.6415 7.76071 16.6839 7.88196 16.7385C7.99715 16.793 8.09416 16.8567 8.17297 16.9294C8.25178 17.0022 8.31544 17.081 8.36394 17.1659C8.41244 17.2507 8.44578 17.3417 8.46397 17.4387C8.48822 17.5296 8.50034 17.6206 8.50034 17.7115C8.49428 17.857 8.47003 17.9813 8.42759 18.0843C8.37909 18.1813 8.31846 18.2632 8.24571 18.3299C8.17296 18.3966 8.09415 18.4481 8.00928 18.4845C7.9244 18.5208 7.84559 18.5481 7.77284 18.5663C7.85772 18.5784 7.94563 18.6027 8.03656 18.6391C8.13357 18.6754 8.22147 18.727 8.30029 18.7937C8.38516 18.8664 8.45184 18.9543 8.50034 19.0574C8.55491 19.1665 8.58219 19.2999 8.58219 19.4575C8.58219 19.5606 8.57309 19.6636 8.55491 19.7667C8.53066 19.8698 8.49428 19.9637 8.44578 20.0486C8.39122 20.1395 8.3215 20.2214 8.23662 20.2941C8.15175 20.3729 8.04565 20.4396 7.91834 20.4942C7.78497 20.5488 7.63037 20.5912 7.45456 20.6215C7.27875 20.6518 7.07262 20.667 6.83618 20.667C6.62399 20.667 6.43 20.6488 6.25419 20.6124C6.07231 20.5821 5.8965 20.5306 5.72675 20.4578V19.6758C5.79343 19.7 5.86619 19.7243 5.945 19.7485C6.02381 19.7728 6.10262 19.794 6.18143 19.8122C6.26631 19.8303 6.34815 19.8455 6.42696 19.8576C6.51184 19.8637 6.59066 19.8667 6.66341 19.8667C6.73616 19.8667 6.8089 19.8607 6.88165 19.8485C6.94834 19.8303 7.00896 19.8031 7.06353 19.7667C7.11809 19.7303 7.16356 19.6818 7.19993 19.6212C7.23024 19.5606 7.2454 19.4878 7.2454 19.4029C7.2454 19.3241 7.23328 19.2544 7.20903 19.1938C7.18478 19.1332 7.13628 19.0786 7.06353 19.0301C6.98471 18.9877 6.87559 18.9543 6.73615 18.9301C6.59671 18.8997 6.40878 18.8846 6.17234 18.8846V18.1753Z" fill="#991602"/>
<path d="M6.17228 17.8115C6.39659 17.8115 6.5815 17.8024 6.727 17.7842C6.86644 17.7721 6.97253 17.7478 7.04528 17.7115C7.12409 17.6812 7.17866 17.6418 7.20897 17.5933C7.23322 17.5448 7.24534 17.4872 7.24534 17.4205C7.24534 17.3417 7.23018 17.275 7.19987 17.2204C7.16956 17.1658 7.12713 17.1234 7.07257 17.0931C7.018 17.0567 6.95434 17.0325 6.88159 17.0203C6.80884 17.0022 6.7361 16.9931 6.66335 16.9931C6.58453 16.9931 6.50571 16.9991 6.4269 17.0113C6.34809 17.0173 6.26625 17.0294 6.18137 17.0476C6.10256 17.0658 6.02375 17.087 5.94494 17.1113C5.86612 17.1355 5.79337 17.1628 5.72668 17.1931V16.4383C5.9025 16.3535 6.08134 16.2928 6.26322 16.2565C6.45116 16.2201 6.65728 16.2019 6.88159 16.2019C7.09984 16.2019 7.29081 16.2171 7.4545 16.2474C7.61819 16.2777 7.76065 16.3201 7.8819 16.3747C7.99709 16.4292 8.0941 16.4929 8.17291 16.5657C8.25172 16.6384 8.31538 16.7172 8.36388 16.8021C8.41238 16.887 8.44572 16.9779 8.46391 17.0749C8.48816 17.1658 8.50028 17.2568 8.50028 17.3477C8.49422 17.4932 8.46997 17.6175 8.42753 17.7206C8.37903 17.8176 8.3184 17.8994 8.24565 17.9661C8.1729 18.0328 8.09409 18.0843 8.00922 18.1207C7.92434 18.1571 7.84553 18.1844 7.77278 18.2025C7.85766 18.2147 7.94557 18.2389 8.0365 18.2753C8.1335 18.3117 8.22141 18.3632 8.30023 18.4299C8.3851 18.5026 8.45178 18.5905 8.50028 18.6936C8.55485 18.8027 8.58213 18.9361 8.58213 19.0937C8.58213 19.1968 8.57303 19.2999 8.55484 19.4029C8.53059 19.506 8.49422 19.6 8.44572 19.6848C8.39116 19.7758 8.32144 19.8576 8.23656 19.9304C8.15169 20.0092 8.04559 20.0759 7.91828 20.1304C7.78491 20.185 7.63031 20.2274 7.4545 20.2577C7.27869 20.288 7.07256 20.3032 6.83612 20.3032C6.62393 20.3032 6.42994 20.285 6.25413 20.2486C6.07225 20.2183 5.89643 20.1668 5.72668 20.094V19.312C5.79337 19.3362 5.86612 19.3605 5.94494 19.3847C6.02375 19.409 6.10256 19.4302 6.18137 19.4484C6.26625 19.4666 6.34809 19.4817 6.4269 19.4939C6.51178 19.4999 6.5906 19.503 6.66335 19.503C6.7361 19.503 6.80884 19.4969 6.88159 19.4848C6.94828 19.4666 7.0089 19.4393 7.06346 19.4029C7.11803 19.3665 7.1635 19.318 7.19987 19.2574C7.23018 19.1968 7.24534 19.124 7.24534 19.0392C7.24534 18.9604 7.23322 18.8906 7.20897 18.83C7.18472 18.7694 7.13621 18.7148 7.06346 18.6663C6.98465 18.6239 6.87553 18.5905 6.73609 18.5663C6.59665 18.536 6.40872 18.5208 6.17228 18.5208V17.8115Z" fill="url(#paint6_linear_6162_111858)"/>
<defs>
<linearGradient id="paint0_linear_6162_111858" x1="5.03035" y1="12.6735" x2="7.18336" y2="9.7024" gradientUnits="userSpaceOnUse">
<stop stop-color="#F6A000"/>
<stop offset="1" stop-color="#FFE815"/>
</linearGradient>
<linearGradient id="paint1_linear_6162_111858" x1="12.3157" y1="0.571136" x2="12.3157" y2="10.0031" gradientUnits="userSpaceOnUse">
<stop stop-color="#FFE815"/>
<stop offset="1" stop-color="#F6A000"/>
</linearGradient>
<linearGradient id="paint2_linear_6162_111858" x1="10.1853" y1="2.03187" x2="11.9138" y2="10.1139" gradientUnits="userSpaceOnUse">
<stop stop-color="#F6A000"/>
<stop offset="1" stop-color="#FFE815"/>
</linearGradient>
<linearGradient id="paint3_linear_6162_111858" x1="5.02781" y1="12.6715" x2="7.18598" y2="9.70103" gradientUnits="userSpaceOnUse">
<stop stop-color="#C4381A"/>
<stop offset="1" stop-color="#F57B29"/>
</linearGradient>
<linearGradient id="paint4_linear_6162_111858" x1="16.0798" y1="16.5179" x2="11.0694" y2="27.0887" gradientUnits="userSpaceOnUse">
<stop stop-color="#F57B29"/>
<stop offset="1" stop-color="#C4381A"/>
</linearGradient>
<radialGradient id="paint5_radial_6162_111858" cx="0" cy="0" r="1" gradientUnits="userSpaceOnUse" gradientTransform="translate(6.98693 18.3516) scale(3.63633 3.63633)">
<stop stop-color="#F57B29"/>
<stop offset="1" stop-color="#C4381A"/>
</radialGradient>
<linearGradient id="paint6_linear_6162_111858" x1="11.0469" y1="17.836" x2="8.82787" y2="23.6167" gradientUnits="userSpaceOnUse">
<stop stop-color="#F57B29"/>
<stop offset="1" stop-color="#C4381A"/>
</linearGradient>
</defs>
</svg>
