<svg width="15" height="16" viewBox="0 0 15 16" fill="none" xmlns="http://www.w3.org/2000/svg">
<mask id="path-1-outside-1_5789_9385" maskUnits="userSpaceOnUse" x="-0.400024" y="0.248047" width="16" height="16" fill="black">
<rect fill="white" x="-0.400024" y="0.248047" width="16" height="16"/>
<path fill-rule="evenodd" clip-rule="evenodd" d="M11.8064 2.69632C10.9428 1.92748 9.83092 1.41728 8.55171 1.28284C8.30432 1.25687 8.05719 1.24565 7.81124 1.24847C4.52096 1.27629 1.43666 3.82167 0.728588 7.23192C0.668006 7.52099 0.625994 7.81364 0.602809 8.10807C0.601908 8.12056 0.604249 8.13307 0.609607 8.14439C0.611779 8.14898 0.614418 8.15331 0.617469 8.15732C0.452548 10.4448 1.46443 12.4851 3.20002 13.621C3.05196 13.5245 2.90817 13.4207 2.76928 13.3096C2.69485 13.2519 2.62158 13.189 2.55061 13.1262C2.63922 13.2047 2.72731 13.284 2.81545 13.3634L2.81549 13.3634L2.81552 13.3635L2.81556 13.3635L2.8156 13.3635L2.81563 13.3635L2.81571 13.3636L2.81583 13.3637C3.22628 13.7334 3.63785 14.1041 4.10843 14.3951C4.29741 14.5101 4.4926 14.6139 4.69298 14.706C5.05244 14.874 5.43009 15.0034 5.81969 15.0913C7.15075 15.397 8.56202 15.2453 9.82327 14.7256C10.2356 14.5546 10.6319 14.3471 11.0072 14.1055C11.0117 14.1026 11.0159 14.0992 11.0196 14.0954C11.7818 13.6061 12.4547 12.9842 13.0047 12.2558C13.7736 11.2442 14.2721 10.0536 14.4535 8.79616C14.6439 7.43031 14.4165 6.00332 13.7265 4.80186C13.5033 4.41142 13.2349 4.04861 12.9268 3.72094C12.6773 3.45663 12.4012 3.21649 12.1258 2.97692L12.1258 2.97691C12.0271 2.89112 11.9286 2.8054 11.8314 2.71867L11.8504 2.73597L11.8273 2.71501L11.8064 2.69632ZM13.5561 8.79528C13.4205 9.36257 13.219 9.90444 12.9619 10.413L12.9632 10.4106C13.4312 9.50171 13.7043 8.47431 13.7452 7.44756C13.7299 7.81974 13.6834 8.1991 13.6036 8.58276C13.5888 8.65398 13.573 8.72483 13.5561 8.79528Z"/>
</mask>
<path fill-rule="evenodd" clip-rule="evenodd" d="M11.8064 2.69632C10.9428 1.92748 9.83092 1.41728 8.55171 1.28284C8.30432 1.25687 8.05719 1.24565 7.81124 1.24847C4.52096 1.27629 1.43666 3.82167 0.728588 7.23192C0.668006 7.52099 0.625994 7.81364 0.602809 8.10807C0.601908 8.12056 0.604249 8.13307 0.609607 8.14439C0.611779 8.14898 0.614418 8.15331 0.617469 8.15732C0.452548 10.4448 1.46443 12.4851 3.20002 13.621C3.05196 13.5245 2.90817 13.4207 2.76928 13.3096C2.69485 13.2519 2.62158 13.189 2.55061 13.1262C2.63922 13.2047 2.72731 13.284 2.81545 13.3634L2.81549 13.3634L2.81552 13.3635L2.81556 13.3635L2.8156 13.3635L2.81563 13.3635L2.81571 13.3636L2.81583 13.3637C3.22628 13.7334 3.63785 14.1041 4.10843 14.3951C4.29741 14.5101 4.4926 14.6139 4.69298 14.706C5.05244 14.874 5.43009 15.0034 5.81969 15.0913C7.15075 15.397 8.56202 15.2453 9.82327 14.7256C10.2356 14.5546 10.6319 14.3471 11.0072 14.1055C11.0117 14.1026 11.0159 14.0992 11.0196 14.0954C11.7818 13.6061 12.4547 12.9842 13.0047 12.2558C13.7736 11.2442 14.2721 10.0536 14.4535 8.79616C14.6439 7.43031 14.4165 6.00332 13.7265 4.80186C13.5033 4.41142 13.2349 4.04861 12.9268 3.72094C12.6773 3.45663 12.4012 3.21649 12.1258 2.97692L12.1258 2.97691C12.0271 2.89112 11.9286 2.8054 11.8314 2.71867L11.8504 2.73597L11.8273 2.71501L11.8064 2.69632ZM13.5561 8.79528C13.4205 9.36257 13.219 9.90444 12.9619 10.413L12.9632 10.4106C13.4312 9.50171 13.7043 8.47431 13.7452 7.44756C13.7299 7.81974 13.6834 8.1991 13.6036 8.58276C13.5888 8.65398 13.573 8.72483 13.5561 8.79528Z" fill="#E99855"/>
<path d="M8.55171 1.28284L8.59366 0.883758L8.5936 0.883752L8.55171 1.28284ZM11.8064 2.69632L12.074 2.39728L12.0732 2.39661L11.8064 2.69632ZM7.81124 1.24847L7.81463 1.64974L7.81585 1.64972L7.81124 1.24847ZM0.728588 7.23192L1.12133 7.31423L1.12148 7.3135L0.728588 7.23192ZM0.602809 8.10807L0.202763 8.07657L0.202575 8.07918L0.602809 8.10807ZM0.609607 8.14439L0.972303 7.97271L0.972303 7.97271L0.609607 8.14439ZM0.617469 8.15732L1.01771 8.18617L1.02861 8.03491L0.93675 7.91425L0.617469 8.15732ZM3.20002 13.621L2.98092 13.9572L3.41976 13.2852L3.20002 13.621ZM2.76928 13.3096L3.01999 12.9962L3.01508 12.9924L2.76928 13.3096ZM2.55061 13.1262L2.81669 12.8258L2.28452 13.4265L2.55061 13.1262ZM2.81545 13.3634L2.54688 13.6616L2.55036 13.6646L2.81545 13.3634ZM2.81563 13.3635L3.08559 13.0666L3.08073 13.0623L2.81563 13.3635ZM2.81571 13.3636L2.54577 13.6605L2.54824 13.6628L2.81571 13.3636ZM2.81583 13.3637L3.08439 13.0656L3.0833 13.0646L2.81583 13.3637ZM4.10843 14.3951L3.89737 14.7364L3.89985 14.7379L4.10843 14.3951ZM4.69298 14.706L4.86287 14.3425L4.86064 14.3415L4.69298 14.706ZM5.81969 15.0913L5.90951 14.7002L5.90796 14.6998L5.81969 15.0913ZM9.82327 14.7256L9.97614 15.0966L9.97696 15.0963L9.82327 14.7256ZM11.0072 14.1055L11.2244 14.443L11.2253 14.4424L11.0072 14.1055ZM11.0196 14.0954L10.8028 13.7577L10.7642 13.7825L10.7321 13.8154L11.0196 14.0954ZM13.0047 12.2558L12.6852 12.013L12.6845 12.014L13.0047 12.2558ZM14.4535 8.79616L14.8506 8.85344L14.8509 8.85157L14.4535 8.79616ZM13.7265 4.80186L13.3781 5.001L13.3785 5.00171L13.7265 4.80186ZM12.9268 3.72094L13.2192 3.44607L13.2186 3.44547L12.9268 3.72094ZM12.1258 2.97692L12.3893 2.67398L12.3788 2.66548L12.1258 2.97692ZM12.1258 2.97691L11.8623 3.27985L11.8727 3.28835L12.1258 2.97691ZM11.8314 2.71867L12.0985 2.41924L11.5619 3.01598L11.8314 2.71867ZM11.8504 2.73597L11.5813 3.03359L12.1199 2.43866L11.8504 2.73597ZM11.8273 2.71501L12.0964 2.41739L12.0948 2.41597L11.8273 2.71501ZM12.9619 10.413L12.6038 10.232L13.3186 10.5969L12.9619 10.413ZM13.5561 8.79528L13.1659 8.70192L13.1659 8.70199L13.5561 8.79528ZM12.9632 10.4106L13.3198 10.5945L13.3199 10.5943L12.9632 10.4106ZM13.7452 7.44756L14.1461 7.46352L13.3442 7.4311L13.7452 7.44756ZM13.6036 8.58276L13.2108 8.5011V8.5011L13.6036 8.58276ZM8.50977 1.68191C9.70608 1.80765 10.7392 2.28344 11.5395 2.99602L12.0732 2.39661C11.1465 1.57152 9.95575 1.02692 8.59366 0.883758L8.50977 1.68191ZM7.81585 1.64972C8.0465 1.64707 8.2781 1.6576 8.50983 1.68192L8.5936 0.883752C8.33054 0.856141 8.06788 0.84422 7.80663 0.847224L7.81585 1.64972ZM1.12148 7.3135C1.79267 4.08093 4.72058 1.67589 7.81463 1.64973L7.80785 0.847211C4.32134 0.876683 1.08066 3.56241 0.335692 7.15034L1.12148 7.3135ZM1.00285 8.13957C1.02469 7.86221 1.06426 7.58653 1.12133 7.31423L0.335845 7.14961C0.27175 7.45544 0.227301 7.76506 0.202772 8.07657L1.00285 8.13957ZM0.972303 7.97271C0.996529 8.02389 1.00712 8.08047 1.00304 8.13696L0.202575 8.07918C0.196693 8.16065 0.21197 8.24225 0.246911 8.31607L0.972303 7.97271ZM0.93675 7.91425C0.950544 7.93237 0.962477 7.95195 0.972303 7.97271L0.24691 8.31607C0.261081 8.346 0.278292 8.37425 0.298188 8.40038L0.93675 7.91425ZM3.41976 13.2852C1.81271 12.2335 0.862675 10.3365 1.01771 8.18617L0.217232 8.12846C0.0424199 10.5532 1.11615 12.7368 2.98027 13.9568L3.41976 13.2852ZM2.51861 13.6229C2.66778 13.7423 2.82212 13.8537 2.98092 13.9572L3.41912 13.2848C3.28179 13.1953 3.14856 13.0991 3.01996 12.9962L2.51861 13.6229ZM2.28452 13.4265C2.35814 13.4917 2.43893 13.5612 2.52348 13.6268L3.01508 12.9924C2.95078 12.9426 2.88502 12.8863 2.81671 12.8258L2.28452 13.4265ZM3.08401 13.0652C2.99608 12.986 2.90675 12.9056 2.81669 12.8258L2.28454 13.4265C2.3717 13.5037 2.45855 13.582 2.5469 13.6616L3.08401 13.0652ZM3.08058 13.0622L3.08055 13.0621L2.55036 13.6646L2.55039 13.6647L3.08058 13.0622ZM3.08062 13.0622L3.08058 13.0622L2.55039 13.6647L2.55043 13.6647L3.08062 13.0622ZM3.08065 13.0622L3.08062 13.0622L2.55043 13.6647L2.55047 13.6647L3.08065 13.0622ZM3.08069 13.0623L3.08065 13.0622L2.55047 13.6647L2.5505 13.6648L3.08069 13.0623ZM3.08073 13.0623L3.08069 13.0623L2.5505 13.6648L2.55054 13.6648L3.08073 13.0623ZM3.08564 13.0667L3.08556 13.0666L2.5457 13.6605L2.54578 13.6605L3.08564 13.0667ZM3.0833 13.0646L3.08318 13.0645L2.54824 13.6628L2.54837 13.6629L3.0833 13.0646ZM4.31947 14.0538C3.88471 13.785 3.49941 13.4394 3.08439 13.0656L2.54728 13.6619C2.95315 14.0275 3.39098 14.4233 3.89738 14.7364L4.31947 14.0538ZM4.86064 14.3415C4.67429 14.2558 4.49275 14.1592 4.317 14.0523L3.89985 14.7379C4.10206 14.861 4.31091 14.972 4.52532 15.0706L4.86064 14.3415ZM5.90796 14.6998C5.54658 14.6183 5.19629 14.4983 4.86286 14.3425L4.5231 15.0696C4.9086 15.2497 5.3136 15.3885 5.73141 15.4827L5.90796 14.6998ZM9.67039 14.3546C8.47928 14.8454 7.15273 14.9857 5.90951 14.7002L5.72987 15.4824C7.14877 15.8082 8.64476 15.6452 9.97614 15.0966L9.67039 14.3546ZM10.79 13.7681C10.4348 13.9967 10.0598 14.1931 9.66958 14.3549L9.97696 15.0963C10.4114 14.9161 10.8289 14.6975 11.2244 14.443L10.79 13.7681ZM10.7321 13.8154C10.7492 13.7979 10.7683 13.7822 10.7891 13.7687L11.2253 14.4424C11.2551 14.4231 11.2825 14.4005 11.307 14.3754L10.7321 13.8154ZM12.6845 12.014C12.1631 12.7044 11.5253 13.2939 10.8028 13.7577L11.2363 14.4331C12.0383 13.9183 12.7463 13.264 13.3249 12.4976L12.6845 12.014ZM14.0563 8.73889C13.8847 9.92889 13.4129 11.0556 12.6852 12.013L13.3242 12.4986C14.1342 11.4328 14.6596 10.1783 14.8506 8.85344L14.0563 8.73889ZM13.3785 5.00171C14.0195 6.11773 14.2355 7.45327 14.056 8.74076L14.8509 8.85157C15.0522 7.40736 14.8136 5.88892 14.0745 4.602L13.3785 5.00171ZM12.6345 3.99581C12.921 4.30053 13.1706 4.63792 13.3781 5.001L14.0749 4.60271C13.836 4.18492 13.5488 3.7967 13.2192 3.44607L12.6345 3.99581ZM11.8624 3.27968C12.1404 3.52148 12.4013 3.74886 12.635 3.99642L13.2186 3.44547C12.9532 3.1644 12.662 2.91149 12.3891 2.67415L11.8624 3.27968ZM11.8727 3.28835L11.8727 3.28835L12.3788 2.66548L12.3788 2.66548L11.8727 3.28835ZM11.5642 3.0181C11.6636 3.10679 11.7641 3.19417 11.8624 3.27968L12.3891 2.67414C12.2902 2.58807 12.1935 2.50401 12.0985 2.41924L11.5642 3.0181ZM12.1199 2.43866L12.1009 2.42136L11.5619 3.01598L11.5809 3.03328L12.1199 2.43866ZM11.5581 3.01262L11.5813 3.03359L12.1196 2.43835L12.0964 2.41739L11.5581 3.01262ZM11.5388 2.99536L11.5597 3.01404L12.0948 2.41597L12.074 2.39728L11.5388 2.99536ZM13.32 10.5941C13.5908 10.0584 13.8033 9.48714 13.9464 8.88858L13.1659 8.70199C13.0377 9.238 12.8472 9.75048 12.6038 10.232L13.32 10.5941ZM12.6065 10.2268L12.6052 10.2292L13.3186 10.5969L13.3198 10.5945L12.6065 10.2268ZM13.3442 7.43159C13.3057 8.39943 13.0479 9.36962 12.6064 10.2269L13.3199 10.5943C13.8146 9.6338 14.1029 8.54919 14.1461 7.46352L13.3442 7.43159ZM13.9965 8.66442C14.0807 8.25957 14.1299 7.8584 14.1461 7.46401L13.3442 7.4311C13.3299 7.78107 13.2861 8.13863 13.2108 8.5011L13.9965 8.66442ZM13.9464 8.88865C13.9642 8.81432 13.9809 8.73957 13.9965 8.66442L13.2108 8.5011C13.1968 8.5684 13.1818 8.63534 13.1659 8.70192L13.9464 8.88865Z" fill="#4C6042" mask="url(#path-1-outside-1_5789_9385)"/>
<path d="M14.4535 8.79607C14.6439 7.43022 14.4165 6.00323 13.7265 4.80177C13.5033 4.41133 13.2349 4.04852 12.9268 3.72085C12.5777 3.35113 12.1767 3.0287 11.7982 2.68896C12.8472 3.61991 13.5061 4.92751 13.693 6.31182C13.8799 7.69613 13.6047 9.16465 12.9631 10.4105C12.3274 11.653 11.3713 12.7031 10.1937 13.4525C9.02245 14.1926 7.65504 14.6021 6.26339 14.5634C4.99983 14.5237 3.75992 14.102 2.76927 13.3095C2.69484 13.2518 2.62157 13.1889 2.5506 13.1261C3.05198 13.5702 3.53664 14.0414 4.10841 14.395C4.63627 14.7162 5.2126 14.9499 5.81508 15.0872C7.14615 15.3958 8.55972 15.2441 9.81867 14.7244C11.0811 14.1989 12.1808 13.3468 13.0047 12.2557C13.7735 11.2441 14.2721 10.0535 14.4535 8.79607Z" fill="url(#paint0_linear_5789_9385)"/>
<path opacity="0.5" d="M9.82333 14.7256C10.2357 14.5546 10.6319 14.3471 11.0073 14.1055C11.0231 14.0952 11.0343 14.0791 11.0383 14.0606C11.0423 14.0421 11.0388 14.0228 11.0286 14.0069L11.0205 13.9965L10.6392 13.5916C10.6276 13.5796 10.6122 13.572 10.5957 13.5702C10.5791 13.5684 10.5624 13.5725 10.5486 13.5818L10.424 13.6631C9.22905 14.4176 7.83164 14.8352 6.4146 14.7959C5.41033 14.7679 4.42844 14.4929 3.55573 13.9953C4.21634 14.5294 4.99099 14.9044 5.81975 15.0913C7.15081 15.397 8.56208 15.2453 9.82333 14.7256Z" fill="url(#paint1_linear_5789_9385)" fill-opacity="0.5"/>
<path d="M8.55168 1.28284C12.1023 1.65602 14.3641 4.92414 13.6036 8.58276C12.8432 12.2414 9.34962 14.905 5.79896 14.5318C2.2483 14.1586 -0.0128397 10.8905 0.747028 7.2319C1.50689 3.57329 5.00159 0.910226 8.55168 1.28284Z" fill="url(#paint2_linear_5789_9385)"/>
<path style="mix-blend-mode:overlay" opacity="0.61" d="M8.50438 1.43675C5.07777 1.0751 1.70482 3.64703 0.971489 7.17817C0.91837 7.43204 0.879843 7.68875 0.856095 7.94704C0.855139 7.95972 0.857638 7.97242 0.863327 7.9838C0.869017 7.99517 0.877683 8.00479 0.888405 8.01164C2.31929 9.03487 4.04327 9.70799 5.97669 9.91102C8.56785 10.1833 11.1423 9.56956 13.3884 8.30869C13.3979 8.30349 13.4061 8.29623 13.4124 8.28744C13.4187 8.27866 13.4229 8.26857 13.4248 8.25793C14.0202 4.81792 11.8583 1.78917 8.50438 1.43675Z" fill="url(#paint3_linear_5789_9385)"/>
<path opacity="0.5" d="M6.3396 14.2174C3.17493 13.8846 0.867637 11.127 1.58077 7.70831C2.2939 4.28964 5.56185 1.795 8.88057 2.14397C11.0829 2.37468 12.5634 3.88993 13.1501 5.79566C13.1558 5.81304 13.1679 5.82758 13.1839 5.83626C13.2 5.84494 13.2188 5.84709 13.2364 5.84226C13.2541 5.83743 13.2691 5.82599 13.2785 5.81033C13.2879 5.79466 13.2909 5.77598 13.2869 5.75817C12.774 3.42907 10.9213 1.65196 8.39592 1.38663C4.95488 1.0221 1.57038 3.60153 0.837635 7.14478C0.104885 10.688 2.28929 13.8535 5.72744 14.2146C6.03688 14.2475 6.34841 14.2566 6.65924 14.2417C6.55308 14.2365 6.44634 14.229 6.3396 14.2174Z" fill="#94512A"/>
<path d="M8.0376 1.99809C8.23783 1.99808 8.43792 2.00848 8.63707 2.02924C10.1199 2.18498 11.4019 2.91058 12.2506 4.07456C12.6943 4.68476 13.0013 5.38333 13.1507 6.12276C13.3139 6.93013 13.3088 7.76248 13.1357 8.56779C12.807 10.1003 11.9709 11.4773 10.7626 12.4762C9.55849 13.4792 8.09241 14.0335 6.63441 14.0335C6.43399 14.0335 6.2337 14.0231 6.03436 14.0024C4.55329 13.8466 3.27011 13.1204 2.42139 11.9588C1.97749 11.3463 1.67106 10.6453 1.52305 9.90365C1.36035 9.0964 1.36566 8.26431 1.53863 7.45919C1.86644 5.9268 2.70147 4.54965 3.90881 3.55025C5.11295 2.5472 6.57902 1.9929 8.0376 1.9929M8.0376 1.42188C4.76273 1.42418 1.68172 3.95112 0.977238 7.34268C0.227179 10.9615 2.46293 13.9043 5.97436 14.2735C6.19362 14.2965 6.41394 14.3081 6.63441 14.3081C9.90986 14.3081 12.7255 11.8821 13.4299 8.4905C14.18 4.87111 12.2091 1.82736 8.6988 1.45821C8.47951 1.43563 8.2592 1.42427 8.03875 1.42418L8.0376 1.42188Z" fill="#E99855"/>
<path d="M7.88527 1.82509C8.08763 1.82498 8.28985 1.83557 8.49109 1.85681C9.98832 2.0137 11.2859 2.74796 12.1439 3.92231C12.5924 4.53929 12.9029 5.2455 13.0543 5.99301C13.2188 6.8094 13.2135 7.6509 13.0387 8.46515C12.7061 10.0148 11.8607 11.4071 10.6391 12.4174C9.42173 13.4314 7.9395 13.9897 6.46535 13.9897C6.2626 13.9901 6.05998 13.9795 5.85838 13.958C4.36115 13.8005 3.06412 13.0668 2.20617 11.8919C1.75735 11.2751 1.44681 10.5688 1.29571 9.8212C1.13064 9.00506 1.13594 8.16363 1.31129 7.34963C1.64367 5.80005 2.4891 4.40781 3.7109 3.39801C4.92715 2.384 6.41054 1.82509 7.88469 1.82509M7.88469 1.24829C4.57347 1.24829 1.459 3.80292 0.747018 7.23197C-0.0128493 10.8906 2.24714 14.1593 5.79895 14.5319C6.02069 14.5554 6.24352 14.5672 6.4665 14.5671C9.77715 14.5671 12.8916 12.0119 13.6036 8.58282C14.364 4.92421 12.1023 1.65609 8.55167 1.2829C8.33009 1.25984 8.10747 1.24828 7.88469 1.24829Z" fill="url(#paint4_linear_5789_9385)"/>
<path d="M5.56177 4.58049H5.55427C5.53845 4.57828 5.52234 4.58146 5.50855 4.58953C5.49477 4.5976 5.48411 4.61009 5.4783 4.62497C5.4725 4.63984 5.47188 4.65625 5.47656 4.67152C5.48123 4.68679 5.49093 4.70004 5.50407 4.70912L5.51215 4.71373C5.52601 4.72132 5.53697 4.73329 5.54331 4.74776L5.58369 4.84005C5.58991 4.85421 5.59133 4.87 5.58773 4.88504C5.58335 4.902 5.58539 4.91998 5.59347 4.93552C5.60154 4.95106 5.61509 4.96307 5.63149 4.96922C5.64789 4.97538 5.66599 4.97526 5.68231 4.96887C5.69862 4.96249 5.712 4.9503 5.71986 4.93464C5.72724 4.92083 5.73901 4.90987 5.75332 4.9035L5.84275 4.86255C5.85752 4.85632 5.87387 4.8549 5.88949 4.85851H5.89699C5.90604 4.86064 5.91543 4.86096 5.92461 4.85944C5.93379 4.85792 5.94258 4.8546 5.95047 4.84966C5.95836 4.84473 5.96519 4.83828 5.97056 4.83069C5.97594 4.8231 5.97976 4.81452 5.9818 4.80544C5.9852 4.79053 5.98373 4.77492 5.9776 4.76091C5.97148 4.74689 5.96102 4.73521 5.94776 4.72758L5.93968 4.72296C5.92582 4.71537 5.91487 4.7034 5.90853 4.68893L5.86814 4.59664C5.86193 4.58249 5.86051 4.56669 5.8641 4.55165C5.8659 4.53589 5.86236 4.51997 5.85405 4.50645C5.84574 4.49293 5.83313 4.48259 5.81825 4.47708C5.80337 4.47156 5.78706 4.4712 5.77194 4.47604C5.75683 4.48088 5.74377 4.49065 5.73486 4.50378C5.7277 4.51789 5.71588 4.5291 5.7014 4.5355L5.61197 4.57645C5.59628 4.58384 5.57844 4.58527 5.56177 4.58049Z" fill="white"/>
<path opacity="0.7" d="M8.53264 1.28348C8.31107 1.26022 8.08845 1.24848 7.86566 1.24829C4.55502 1.24829 1.44055 3.80292 0.728568 7.23197C0.667986 7.52103 0.625974 7.81368 0.602789 8.10812C0.601887 8.12061 0.604229 8.13312 0.609586 8.14444C0.614944 8.15575 0.623136 8.1655 0.633368 8.17272C0.77184 8.26847 0.912621 8.36114 1.05571 8.45073C1.06622 8.45736 1.07831 8.46108 1.09073 8.46152C1.10315 8.46197 1.11547 8.45911 1.12643 8.45325C1.13739 8.44739 1.1466 8.43874 1.15313 8.42816C1.15966 8.41759 1.16327 8.40548 1.1636 8.39305C1.17786 8.04231 1.2209 7.69334 1.29227 7.34963C1.62488 5.8 2.4705 4.40778 3.69245 3.39801C4.90928 2.384 6.39209 1.82509 7.86624 1.82509C8.06879 1.82498 8.2712 1.83557 8.47263 1.85681C9.97275 2.01428 11.2675 2.74796 12.1254 3.92289C12.5737 4.5399 12.8841 5.24611 13.0353 5.99359C13.2004 6.80973 13.1951 7.65116 13.0197 8.46515C13.0157 8.48477 13.0116 8.50438 13.007 8.52283C13.005 8.53224 13.0049 8.54195 13.0068 8.5514C13.0086 8.56084 13.0123 8.56981 13.0177 8.57778C13.0231 8.58575 13.03 8.59255 13.0381 8.59778C13.0462 8.603 13.0552 8.60655 13.0647 8.6082C13.0808 8.61161 13.0975 8.60937 13.112 8.60185C13.2794 8.51418 13.4449 8.42324 13.6088 8.32903C13.6181 8.3237 13.626 8.31639 13.6321 8.30761C13.6382 8.29883 13.6423 8.28881 13.644 8.27827C14.2164 4.74482 11.9852 1.6457 8.53264 1.28348Z" fill="url(#paint5_linear_5789_9385)"/>
<path d="M10.2647 6.34546C10.2647 6.3795 10.2341 6.3968 10.1718 6.3968C9.941 6.3968 9.58828 6.37661 9.11363 6.33624C8.63897 6.29586 8.28472 6.27663 8.05085 6.27856C7.75314 6.27856 7.58005 6.28952 7.53158 6.31143C7.41619 6.36373 7.35849 6.51254 7.35849 6.75787C7.35849 7.05204 7.43292 7.21931 7.58178 7.25969C7.6752 7.27824 7.77043 7.28618 7.86565 7.28333C8.07989 7.28333 8.40011 7.27161 8.8263 7.24815C9.25248 7.22469 9.5727 7.21316 9.78695 7.21354C9.88888 7.21354 9.94004 7.48637 9.94042 8.03201C9.94042 8.50614 9.92331 8.78204 9.88907 8.85972C9.88052 8.88562 9.86356 8.90792 9.84087 8.92308C9.81818 8.93823 9.79108 8.94537 9.76387 8.94335C9.80234 8.94335 9.70464 8.93258 9.47077 8.91105C9.13805 8.87837 8.63513 8.86202 7.962 8.86202C7.74506 8.86202 7.62274 8.86356 7.59505 8.86664C7.43657 8.89163 7.35734 8.95835 7.35734 9.06679C7.35734 9.50669 7.37657 10.0135 7.41503 10.5872C7.44619 11.1052 7.46177 11.3359 7.46177 11.2794C7.46177 11.3601 7.36368 11.4068 7.16867 11.419C7.22136 11.4159 7.08328 11.4143 6.7544 11.4143C6.17436 11.4143 5.80068 11.3942 5.63336 11.3538C5.54335 11.3324 5.49834 11.284 5.49834 11.2096C5.49834 10.8658 5.51008 10.349 5.53354 9.65915C5.557 8.96931 5.56854 8.45231 5.56816 8.10815C5.56816 7.69863 5.54893 7.18393 5.51046 6.56407C5.45469 5.60621 5.42507 5.09151 5.42161 5.01999L5.41699 4.96231C5.41699 4.88444 5.46084 4.84695 5.55662 4.84695C5.78741 4.84695 6.13359 4.85156 6.59516 4.86079C7.05674 4.87002 7.40484 4.87464 7.63947 4.87464C7.88757 4.87464 8.26048 4.85541 8.75821 4.81696C9.25595 4.7785 9.62886 4.75928 9.87696 4.75928C10.0308 4.75928 10.1177 4.82272 10.1377 4.94962C10.1377 5.08344 10.1435 5.28301 10.1562 5.54949C10.1626 5.61813 10.1827 5.74963 10.2168 5.94517C10.2439 6.07703 10.2599 6.21093 10.2647 6.34546Z" fill="#E1892B"/>
<path d="M10.2191 6.17821C10.2191 6.21224 10.1885 6.22954 10.1262 6.22954C9.89541 6.22954 9.54269 6.21032 9.06804 6.17186C8.59339 6.13341 8.23913 6.11419 8.00526 6.11419C7.70755 6.11419 7.53446 6.12495 7.48599 6.14649C7.3706 6.19955 7.3129 6.34856 7.3129 6.5935C7.3129 6.88767 7.38733 7.05494 7.53619 7.09531C7.62962 7.11387 7.72485 7.12181 7.82006 7.11896C8.03392 7.11896 8.35414 7.10723 8.78071 7.08378C9.20728 7.06032 9.5275 7.04879 9.74136 7.04917C9.84368 7.04917 9.89484 7.32199 9.89484 7.86764C9.89484 8.34177 9.87772 8.61767 9.84349 8.69534C9.83485 8.72119 9.81786 8.74344 9.7952 8.75858C9.77253 8.77372 9.74547 8.78089 9.71828 8.77898C9.75675 8.77898 9.65905 8.76802 9.42518 8.7461C9.09285 8.71572 8.59031 8.70034 7.91757 8.69996C7.70063 8.69996 7.57812 8.7015 7.55004 8.70457C7.39195 8.72957 7.3129 8.79609 7.3129 8.90414C7.3129 9.34481 7.33213 9.85182 7.3706 10.4252C7.40176 10.9431 7.41733 11.1738 7.41733 11.1173C7.41733 11.1981 7.31925 11.2448 7.12423 11.2569C7.17655 11.2538 7.03846 11.2523 6.70997 11.2523C6.13031 11.2523 5.75663 11.2331 5.58892 11.1946C5.49891 11.1733 5.45391 11.1248 5.45391 11.0504C5.45391 10.7066 5.46564 10.1896 5.48911 9.4994C5.51257 8.80917 5.52411 8.29236 5.52372 7.94897C5.52372 7.53945 5.50449 7.02475 5.46603 6.40489C5.41025 5.44664 5.38064 4.93195 5.37717 4.86081L5.37256 4.80313C5.37256 4.72584 5.41583 4.68777 5.51218 4.68777C5.74297 4.68777 6.08915 4.69238 6.55073 4.70161C7.0123 4.71084 7.36041 4.71546 7.59504 4.71546C7.84314 4.71546 8.21605 4.69623 8.71378 4.65778C9.21151 4.61932 9.58443 4.6001 9.83252 4.6001C9.98773 4.6001 10.0743 4.66355 10.0933 4.79044C10.0933 4.92426 10.0991 5.12383 10.1118 5.39031C10.1181 5.45895 10.1377 5.59045 10.1695 5.78599C10.1967 5.91515 10.2133 6.04633 10.2191 6.17821Z" fill="#FFF27E"/>
<defs>
<linearGradient id="paint0_linear_5789_9385" x1="15.8134" y1="-3.87843" x2="4.2133" y2="20.3099" gradientUnits="userSpaceOnUse">
<stop stop-color="#FFD243"/>
<stop offset="1" stop-color="#CD571B"/>
</linearGradient>
<linearGradient id="paint1_linear_5789_9385" x1="8.94634" y1="10.594" x2="5.96371" y2="16.8137" gradientUnits="userSpaceOnUse">
<stop stop-color="#E08C3C"/>
<stop offset="1" stop-color="#FFD06F"/>
</linearGradient>
<linearGradient id="paint2_linear_5789_9385" x1="3.56032" y1="26.017" x2="11.5231" y2="-13.8959" gradientUnits="userSpaceOnUse">
<stop stop-color="#F5942A"/>
<stop offset="1" stop-color="#F5D85D"/>
</linearGradient>
<linearGradient id="paint3_linear_5789_9385" x1="5.22663" y1="17.5928" x2="10.4313" y2="-8.49684" gradientUnits="userSpaceOnUse">
<stop stop-color="#E08C3C"/>
<stop offset="1" stop-color="#FFD06F"/>
</linearGradient>
<linearGradient id="paint4_linear_5789_9385" x1="9.78292" y1="-2.37052" x2="2.96815" y2="24.5085" gradientUnits="userSpaceOnUse">
<stop offset="0.2" stop-color="#FFDE43"/>
<stop offset="0.56" stop-color="#FFD23E"/>
<stop offset="1" stop-color="#FFBD37"/>
</linearGradient>
<linearGradient id="paint5_linear_5789_9385" x1="9.42463" y1="-1.08658" x2="5.00351" y2="16.3506" gradientUnits="userSpaceOnUse">
<stop offset="0.02" stop-color="#FFFFA0"/>
<stop offset="0.98" stop-color="#FFEB6A"/>
</linearGradient>
</defs>
</svg>
