<svg width="195" height="259" viewBox="0 0 195 259" fill="none" xmlns="http://www.w3.org/2000/svg">
<rect opacity="0.6" x="0.247217" y="0.868555" width="194.072" height="257.956" rx="1.9" fill="#C3CB57" fill-opacity="0.2" stroke="#C3CB57" stroke-width="0.2"/>
<path d="M4.75659 30.2165V8.03672C4.75659 7.8158 4.93568 7.63672 5.15659 7.63672H18.5207C18.8319 7.63672 19.0239 7.97656 18.8633 8.24316L5.49921 30.423C5.29004 30.7701 4.75659 30.6218 4.75659 30.2165Z" fill="#C3CB57" fill-opacity="0.2"/>
<path d="M189.341 30.2165V8.03672C189.341 7.8158 189.162 7.63672 188.941 7.63672H175.577C175.266 7.63672 175.074 7.97656 175.235 8.24316L188.599 30.423C188.808 30.7701 189.341 30.6218 189.341 30.2165Z" fill="#C3CB57" fill-opacity="0.2"/>
<path d="M4.75659 229.502V251.682C4.75659 251.903 4.93568 252.082 5.15659 252.082H18.5207C18.8319 252.082 19.0239 251.742 18.8633 251.476L5.49921 229.296C5.29004 228.949 4.75659 229.097 4.75659 229.502Z" fill="#C3CB57" fill-opacity="0.2"/>
<path d="M189.341 229.502V251.682C189.341 251.903 189.162 252.082 188.941 252.082H175.577C175.266 252.082 175.074 251.742 175.235 251.476L188.599 229.296C188.808 228.949 189.341 229.097 189.341 229.502Z" fill="#C3CB57" fill-opacity="0.2"/>
</svg>
