<svg width="24" height="25" viewBox="0 0 24 25" fill="none" xmlns="http://www.w3.org/2000/svg">
<g clip-path="url(#clip0_6162_116812)">
<path d="M20 3.7207V17.7207C19.9998 18.6012 19.7091 19.457 19.1729 20.1555C18.6368 20.8539 17.8852 21.3559 17.0346 21.5837C16.1841 21.8114 15.2822 21.7522 14.4688 21.4151C13.6553 21.078 12.9758 20.482 12.5357 19.7194C12.0955 18.9568 11.9193 18.0703 12.0343 17.1974C12.1493 16.3244 12.5491 15.5138 13.1717 14.8912C13.7944 14.2686 14.605 13.8689 15.478 13.754C16.351 13.6391 17.2375 13.8155 18 14.2557V5.7207H9.00001V17.7207C8.99981 18.6012 8.70909 19.457 8.17294 20.1555C7.63679 20.8539 6.88517 21.3559 6.03463 21.5837C5.1841 21.8114 4.28218 21.7522 3.46875 21.4151C2.65533 21.078 1.97584 20.482 1.53568 19.7194C1.09552 18.9568 0.919269 18.0703 1.03427 17.1974C1.14927 16.3244 1.5491 15.5138 2.17174 14.8912C2.79438 14.2686 3.60504 13.8689 4.47801 13.754C5.35098 13.6391 6.23747 13.8155 7.00001 14.2557V3.7207H20ZM5.00001 19.7207C5.53044 19.7207 6.03915 19.51 6.41422 19.1349C6.78929 18.7598 7.00001 18.2511 7.00001 17.7207C7.00001 17.1903 6.78929 16.6816 6.41422 16.3065C6.03915 15.9314 5.53044 15.7207 5.00001 15.7207C4.46957 15.7207 3.96086 15.9314 3.58579 16.3065C3.21072 16.6816 3.00001 17.1903 3.00001 17.7207C3.00001 18.2511 3.21072 18.7598 3.58579 19.1349C3.96086 19.51 4.46957 19.7207 5.00001 19.7207ZM16 19.7207C16.5304 19.7207 17.0391 19.51 17.4142 19.1349C17.7893 18.7598 18 18.2511 18 17.7207C18 17.1903 17.7893 16.6816 17.4142 16.3065C17.0391 15.9314 16.5304 15.7207 16 15.7207C15.4696 15.7207 14.9609 15.9314 14.5858 16.3065C14.2107 16.6816 14 17.1903 14 17.7207C14 18.2511 14.2107 18.7598 14.5858 19.1349C14.9609 19.51 15.4696 19.7207 16 19.7207Z" fill="#C5C9D1"/>
</g>
<defs>
<clipPath id="clip0_6162_116812">
<rect width="24" height="24" fill="white" transform="translate(0 0.720703)"/>
</clipPath>
</defs>
</svg>
