<svg width="24" height="25" viewBox="0 0 24 25" fill="none" xmlns="http://www.w3.org/2000/svg">
<g clip-path="url(#clip0_6162_116636)">
<path d="M10 7.94072L6.603 10.7207H3V14.7207H6.603L10 17.5007V7.94072ZM5.889 16.7207H2C1.73478 16.7207 1.48043 16.6154 1.29289 16.4278C1.10536 16.2403 1 15.9859 1 15.7207V9.72072C1 9.45551 1.10536 9.20115 1.29289 9.01362C1.48043 8.82608 1.73478 8.72072 2 8.72072H5.889L11.183 4.38872C11.2563 4.32867 11.3451 4.29066 11.4391 4.27912C11.5331 4.26757 11.6284 4.28297 11.714 4.32352C11.7996 4.36407 11.872 4.4281 11.9226 4.50816C11.9732 4.58821 12.0001 4.681 12 4.77572V20.6657C12.0001 20.7604 11.9732 20.8532 11.9226 20.9333C11.872 21.0133 11.7996 21.0774 11.714 21.1179C11.6284 21.1585 11.5331 21.1739 11.4391 21.1623C11.3451 21.1508 11.2563 21.1128 11.183 21.0527L5.89 16.7207H5.889ZM19.406 20.8547L17.99 19.4387C18.938 18.5952 19.6964 17.5604 20.2152 16.4024C20.734 15.2444 21.0015 13.9896 21 12.7207C21.0012 11.3868 20.7054 10.0694 20.1339 8.8641C19.5624 7.65882 18.7296 6.59596 17.696 5.75272L19.116 4.33272C20.3345 5.36427 21.3132 6.64921 21.9841 8.09792C22.6549 9.54663 23.0016 11.1242 23 12.7207C23 15.9437 21.614 18.8427 19.406 20.8547ZM15.863 17.3117L14.441 15.8897C14.9265 15.5164 15.3196 15.0365 15.5899 14.487C15.8602 13.9374 16.0006 13.3331 16 12.7207C16 11.2907 15.25 10.0357 14.12 9.32872L15.559 7.88972C16.3165 8.44691 16.9321 9.17458 17.3562 10.0138C17.7802 10.8531 18.0008 11.7804 18 12.7207C18 14.5627 17.17 16.2107 15.863 17.3117Z" fill="#C5C9D1"/>
</g>
<defs>
<clipPath id="clip0_6162_116636">
<rect width="24" height="24" fill="white" transform="translate(0 0.720703)"/>
</clipPath>
</defs>
</svg>
