<svg width="24" height="25" viewBox="0 0 24 25" fill="none" xmlns="http://www.w3.org/2000/svg">
<g clip-path="url(#clip0_6162_116823)">
<path d="M6.455 19.7207L2 23.2207V4.7207C2 4.45549 2.10536 4.20113 2.29289 4.0136C2.48043 3.82606 2.73478 3.7207 3 3.7207H21C21.2652 3.7207 21.5196 3.82606 21.7071 4.0136C21.8946 4.20113 22 4.45549 22 4.7207V18.7207C22 18.9859 21.8946 19.2403 21.7071 19.4278C21.5196 19.6153 21.2652 19.7207 21 19.7207H6.455ZM5.763 17.7207H20V5.7207H4V19.1057L5.763 17.7207ZM8 10.7207H16V12.7207H8V10.7207Z" fill="#C5C9D1"/>
</g>
<defs>
<clipPath id="clip0_6162_116823">
<rect width="24" height="24" fill="white" transform="translate(0 0.720703)"/>
</clipPath>
</defs>
</svg>
