<svg width="15" height="15" viewBox="0 0 15 15" fill="none" xmlns="http://www.w3.org/2000/svg">
<path d="M4.58688 6.30315L7.49988 3.39022L10.4144 6.30465L12.1094 4.60965L7.49988 0L2.89196 4.60815L4.58688 6.30315ZM0 7.49977L1.69505 5.80471L3.38999 7.49966L1.69496 9.1947L0 7.49977ZM4.58688 8.69685L7.49988 11.6098L10.4143 8.69543L12.1102 10.3895L12.1094 10.3904L7.49988 15L2.8918 10.392L2.88941 10.3896L4.58688 8.69685ZM11.6101 7.5007L13.3051 5.80565L15 7.50059L13.305 9.19565L11.6101 7.5007Z" fill="#F3BA2F"/>
<path d="M9.21883 7.49927H9.21958L7.49961 5.7793L6.22851 7.0504H6.22843L6.08241 7.1965L5.78121 7.49777L5.77881 7.5001L5.78121 7.50257L7.49961 9.22105L9.21958 7.50107L9.22041 7.5001L9.21883 7.49927Z" fill="#F3BA2F"/>
</svg>
